<svg width="197" height="24" viewBox="0 0 197 24" fill="none" xmlns="http://www.w3.org/2000/svg">
<g clip-path="url(#clip0_2152_15)">
<path d="M12.9147 0.0922852C10.3952 0.0922852 8.5657 0.686066 7.00501 2.06219L4.25677 4.44133C4.02808 4.62589 3.57071 4.7623 3.24975 4.48948C2.92879 4.21265 2.88465 3.84755 3.15747 3.48246L4.62187 1.28386C4.85055 0.962897 4.67001 0.553669 4.25677 0.553669H0.730191C0.316951 0.553669 0 0.874632 0 1.28386V22.7202C0 23.1334 0.320963 23.4504 0.730191 23.4504H4.39318C4.80642 23.4504 5.12337 23.1294 5.12337 22.7202V10.6279C5.12337 5.08727 9.74925 4.21666 11.4905 4.21666C15.2016 4.21666 16.5296 6.87263 16.5296 8.89068V22.7242C16.5296 23.1374 16.8506 23.4544 17.2598 23.4544H20.9228C21.336 23.4544 21.653 23.1334 21.653 22.7242V8.43331C21.657 3.30191 18.3149 0.0962972 12.9107 0.0962972H12.9147V0.0922852Z" fill="#ECECE9"/>
<path d="M36.5958 0C29.4945 0 24.9609 4.34905 24.9609 10.2588V13.5125C24.9609 19.7392 29.4945 24 36.5918 24C42.8667 24 47.2638 20.7462 47.7212 16.349C47.7694 15.8917 47.4444 15.5707 46.991 15.5707H43.4203C43.0994 15.5707 42.8265 15.7553 42.7343 16.0762C42.2769 17.5406 40.1264 19.7392 36.5958 19.7392C33.0652 19.7392 29.7714 17.1755 29.8155 13.5125L29.8636 9.43631C29.9118 6.3671 33.1174 4.26078 36.5958 4.26078C39.7573 4.26078 42.8225 6.05015 43.1435 8.97894C43.1716 9.31996 42.9349 9.62487 42.6019 9.68907L32.3351 11.683C31.9218 11.7753 31.6049 12.1404 31.6049 12.5978V12.6459C31.6049 13.0592 32.0181 13.4243 32.6119 13.4243H47.3601C47.7653 13.4243 48.0903 13.0953 48.0903 12.6941V9.80943C48.0903 4.35306 43.3722 0.00401204 36.5958 0.00401204V0Z" fill="#ECECE9"/>
<path d="M62.1503 0C56.4251 0 51.4783 3.34203 51.4783 7.73922C51.4783 8.10431 51.7992 8.38114 52.2085 8.38114H55.9196C56.2847 8.38114 56.5615 8.10431 56.6057 7.73922C56.9708 5.72518 59.402 4.26078 62.0099 4.26078C65.1232 4.26078 67.2295 6.18656 67.2295 9.48044V13.4644C67.2295 17.5406 64.2045 19.6028 60.4492 19.6028C57.5164 19.6028 55.8233 18.5035 55.8233 16.7182C55.8233 15.1615 56.6458 13.8335 60.036 13.0552L64.9387 11.7272C65.4442 11.5908 65.6247 11.1775 65.5324 10.7202C65.4843 10.3551 65.0751 10.1705 64.71 10.1705H59.6267C55.3218 10.1705 50.9688 12.9188 50.9688 16.9468V17.5888C50.9688 21.7091 54.8604 23.8636 59.3058 23.8636C62.1463 23.8636 64.5736 22.7643 66.0821 21.4845L68.3288 19.5587C68.6939 19.2377 69.059 19.2377 69.384 19.5587C69.6608 19.8355 69.5686 20.2447 69.3359 20.5657L67.9637 22.7202C67.735 23.0411 67.9156 23.4504 68.3288 23.4504H71.6267C72.04 23.4504 72.3569 23.1294 72.3569 22.7202V8.83852C72.3569 3.52658 68.5535 0 62.1423 0H62.1503Z" fill="#ECECE9"/>
<path d="M92.1425 0.549652H87.0151C85.2298 0.549652 83.4886 1.64895 82.2529 2.70412L80.2388 4.44534C80.0101 4.62989 79.5969 4.7663 79.3201 4.53762C78.9991 4.30893 78.8627 3.85156 79.1355 3.48245L80.5999 1.28385C80.8286 0.962892 80.648 0.553664 80.2348 0.553664H76.8005C76.3873 0.553664 76.0703 0.874627 76.0703 1.28385V22.7202C76.0703 23.1334 76.3913 23.4504 76.8005 23.4504H80.5558C80.969 23.4504 81.286 23.1294 81.286 22.7202V11.7272C81.286 7.00903 83.2117 4.90271 87.3762 4.90271H92.1385C92.5518 4.90271 92.8687 4.58175 92.8687 4.17252V1.29188C92.8687 0.878639 92.5477 0.561688 92.1385 0.561688V0.553664L92.1425 0.549652Z" fill="#ECECE9"/>
<path d="M99.2316 0.549652H102.414C102.767 0.549652 103.044 0.826483 103.044 1.17954V22.7924C103.044 23.1454 102.767 23.4223 102.414 23.4223H99.2316C98.8784 23.4223 98.6016 23.1454 98.6016 22.7924V1.17954C98.6016 0.826483 98.8784 0.549652 99.2316 0.549652Z" fill="#FB4D01"/>
<path d="M121.624 12.345V22.7964C121.624 23.1495 121.367 23.4263 120.994 23.4263H117.893C117.54 23.4263 117.263 23.1495 117.263 22.7964V13.1836C117.263 10.985 116.312 9.79339 114.466 9.79339C112.621 9.79339 110.767 10.9408 110.767 14.1063V22.7964C110.767 23.1495 110.491 23.4263 110.137 23.4263H107.02C106.667 23.4263 106.406 23.1495 106.406 22.7964V7.47844C106.406 7.12538 106.663 6.84855 107.02 6.84855H109.395C109.8 6.84855 109.993 7.00903 110.137 7.28586L110.719 8.43331C110.783 8.56169 110.896 8.57774 110.996 8.48145C112.015 7.3982 113.66 6.41525 115.955 6.41525C119.429 6.41525 121.624 8.50151 121.624 12.345Z" fill="#FB4D01"/>
<path d="M125.776 10.3751H123.385C123.08 10.3751 122.852 10.1344 122.852 9.84153V7.4343C122.852 7.14142 123.08 6.9007 123.385 6.9007H124.533C125.536 6.9007 126.182 6.31896 126.182 5.17152V2.76429C126.182 2.42327 126.438 2.15045 126.795 2.15045H129.768C130.121 2.15045 130.382 2.42728 130.382 2.76429V6.65597C130.382 6.78435 130.494 6.89669 130.623 6.89669H134.001C134.306 6.89669 134.551 7.13741 134.551 7.43029V9.83751C134.551 10.1304 134.31 10.3711 134.001 10.3711H130.623C130.494 10.3711 130.382 10.4835 130.382 10.6118V18.0742C130.382 19.1414 130.964 19.6911 132.111 19.6911H133.596C133.937 19.6911 134.178 19.9318 134.178 20.2568V22.8084C134.178 23.1334 133.949 23.3741 133.644 23.3741H131.317C127.698 23.3741 126.017 21.9378 126.017 18.3671V10.6118C126.017 10.4835 125.905 10.3711 125.776 10.3711V10.3751Z" fill="#FB4D01"/>
<path d="M150.891 16.0602H139.762C139.65 16.0602 139.569 16.1404 139.569 16.2528C139.569 18.6921 141.138 20.5015 143.641 20.5015C145.579 20.5015 146.743 19.4182 147.485 18.2748C147.678 17.9819 148.035 17.9218 148.295 18.0822L150.398 19.4865C150.655 19.6469 150.739 19.988 150.558 20.2768C149.411 22.0702 147.216 23.8636 143.533 23.8636C138.446 23.8636 135.164 20.3731 135.164 15.1254C135.164 9.87763 138.526 6.41925 143.373 6.41925C148.219 6.41925 151.465 9.97391 151.465 14.7202V15.4824C151.465 15.8074 151.224 16.0642 150.899 16.0642L150.891 16.0602ZM139.906 13.1514H146.915C147.028 13.1514 147.092 13.0873 147.092 12.9749C147.092 10.9368 145.575 9.53259 143.393 9.53259C141.21 9.53259 139.726 10.9529 139.726 12.9749C139.726 13.0873 139.79 13.1514 139.902 13.1514H139.906Z" fill="#FB4D01"/>
<path d="M168.71 12.345V22.7964C168.71 23.1495 168.453 23.4263 168.08 23.4263H164.979C164.626 23.4263 164.349 23.1495 164.349 22.7964V13.1836C164.349 10.985 163.398 9.79339 161.552 9.79339C159.707 9.79339 157.853 10.9408 157.853 14.1063V22.7964C157.853 23.1495 157.576 23.4263 157.223 23.4263H154.106C153.753 23.4263 153.492 23.1495 153.492 22.7964V7.47844C153.492 7.12538 153.749 6.84855 154.106 6.84855H156.481C156.886 6.84855 157.079 7.00903 157.223 7.28586L157.805 8.43331C157.869 8.56169 157.982 8.57774 158.082 8.48145C159.101 7.3982 160.746 6.41525 163.041 6.41525C166.515 6.41525 168.71 8.50151 168.71 12.345Z" fill="#FB4D01"/>
<path d="M172.862 10.3751H170.471C170.166 10.3751 169.938 10.1344 169.938 9.84153V7.4343C169.938 7.14142 170.166 6.9007 170.471 6.9007H171.619C172.622 6.9007 173.267 6.31896 173.267 5.17152V2.76429C173.267 2.42327 173.524 2.15045 173.881 2.15045H176.854C177.207 2.15045 177.468 2.42728 177.468 2.76429V6.65597C177.468 6.78435 177.58 6.89669 177.709 6.89669H181.087C181.392 6.89669 181.637 7.13741 181.637 7.43029V9.83751C181.637 10.1304 181.396 10.3711 181.087 10.3711H177.709C177.58 10.3711 177.468 10.4835 177.468 10.6118V18.0742C177.468 19.1414 178.05 19.6911 179.197 19.6911H180.682C181.023 19.6911 181.263 19.9318 181.263 20.2568V22.8084C181.263 23.1334 181.035 23.3741 180.73 23.3741H178.403C174.784 23.3741 173.103 21.9378 173.103 18.3671V10.6118C173.103 10.4835 172.991 10.3711 172.862 10.3711V10.3751Z" fill="#FB4D01"/>
<path d="M196.637 10.4393C196.75 10.7162 196.605 11.0532 196.332 11.1655L193.973 12.1003C193.696 12.1966 193.375 12.0682 193.263 11.7954C192.842 10.7121 191.614 9.56871 189.724 9.56871C188.092 9.56871 186.98 10.3109 186.98 11.2979C186.98 12.0401 187.53 12.5898 188.629 12.8305L192.132 13.6369C195.558 14.4112 196.962 16.0602 196.962 18.5156C196.962 22.1826 193.648 23.8475 189.789 23.8475C185.636 23.8475 183.261 21.7974 182.358 19.2297C182.246 18.9368 182.39 18.6159 182.683 18.5035L185.107 17.649C185.4 17.5527 185.72 17.6971 185.833 17.99C186.479 19.7834 187.871 20.7021 189.773 20.7021C191.674 20.7021 192.794 19.8957 192.794 18.7121C192.794 17.8576 192.1 17.1795 190.856 16.8867L187.514 16.1244C184.525 15.4463 182.86 13.9258 182.86 11.4223C182.86 8.35307 185.849 6.41525 189.741 6.41525C193.632 6.41525 195.927 8.5296 196.637 10.4393Z" fill="#FB4D01"/>
</g>
<defs>
<clipPath id="clip0_2152_15">
<rect width="196.963" height="24" fill="white"/>
</clipPath>
</defs>
</svg>
