<svg width="1888" height="230" viewBox="0 0 1888 230" fill="none" xmlns="http://www.w3.org/2000/svg">
<g clip-path="url(#clip0_2152_15)">
<path d="M123.766 0.884323C99.6205 0.884323 82.0879 6.57473 67.1314 19.7626L40.794 42.5627C38.6025 44.3314 34.2193 45.6386 31.1434 43.0241C28.0675 40.3711 27.6446 36.8723 30.2591 33.3735L44.2929 12.3036C46.4845 9.22769 44.7543 5.30592 40.794 5.30592H6.99766C3.03745 5.30592 0 8.38182 0 12.3036V217.735C0 221.695 3.07589 224.733 6.99766 224.733H42.1013C46.0615 224.733 49.099 221.657 49.099 217.735V101.851C49.099 48.753 93.4303 40.4096 110.117 40.4096C145.682 40.4096 158.409 65.8626 158.409 85.2023V217.773C158.409 221.734 161.484 224.771 165.406 224.771H200.51C204.47 224.771 207.508 221.695 207.508 217.773V80.8192C207.546 31.6433 175.518 0.922772 123.728 0.922772H123.766V0.884323Z" fill="#ECECE9"/>
<path d="M350.689 0C282.635 0 239.188 41.6784 239.188 98.3133V129.495C239.188 189.168 282.634 230 350.65 230C410.784 230 452.924 198.818 457.307 156.678C457.768 152.295 454.654 149.219 450.309 149.219H416.09C413.014 149.219 410.399 150.988 409.515 154.064C405.132 168.098 384.524 189.168 350.689 189.168C316.854 189.168 285.287 164.599 285.71 129.495L286.172 90.4313C286.633 61.0181 317.354 40.8325 350.689 40.8325C380.986 40.8325 410.361 57.9806 413.437 86.0482C413.706 89.3163 411.438 92.2384 408.246 92.8536L309.856 111.963C305.896 112.847 302.858 116.346 302.858 120.729V121.19C302.858 125.15 306.819 128.649 312.509 128.649H453.846C457.73 128.649 460.844 125.497 460.844 121.652V94.0071C460.844 41.7168 415.628 0.0384487 350.689 0.0384487V0Z" fill="#ECECE9"/>
<path d="M595.61 0C540.743 0 493.336 32.0278 493.336 74.1675C493.336 77.6664 496.412 80.3193 500.334 80.3193H535.899C539.398 80.3193 542.051 77.6664 542.473 74.1675C545.972 54.8663 569.272 40.8325 594.264 40.8325C624.1 40.8325 644.286 59.2879 644.286 90.8543V129.034C644.286 168.098 615.295 187.86 579.307 187.86C551.201 187.86 534.976 177.325 534.976 160.216C534.976 145.298 542.858 132.571 575.347 125.112L622.331 112.386C627.176 111.078 628.906 107.118 628.022 102.735C627.56 99.2361 623.639 97.4674 620.14 97.4674H571.425C530.17 97.4674 488.453 123.805 488.453 162.407V168.559C488.453 208.046 525.748 228.693 568.349 228.693C595.571 228.693 618.833 218.158 633.289 205.893L654.821 187.437C658.319 184.361 661.818 184.361 664.933 187.437C667.586 190.09 666.701 194.012 664.471 197.088L651.322 217.735C649.13 220.811 650.86 224.733 654.821 224.733H686.425C690.386 224.733 693.423 221.657 693.423 217.735V84.7025C693.423 33.7964 656.974 0 595.533 0H595.61Z" fill="#ECECE9"/>
<path d="M883.049 5.26747H833.911C816.802 5.26747 800.115 15.8024 788.273 25.9144L768.972 42.6012C766.78 44.3698 762.82 45.6771 760.167 43.4855C757.091 41.2939 755.784 36.9107 758.398 33.3735L772.432 12.3036C774.624 9.22769 772.893 5.30592 768.933 5.30592H736.021C732.061 5.30592 729.023 8.38182 729.023 12.3036V217.735C729.023 221.695 732.099 224.733 736.021 224.733H772.009C775.969 224.733 779.007 221.657 779.007 217.735V112.386C779.007 67.1699 797.462 46.9843 837.372 46.9843H883.01C886.971 46.9843 890.008 43.9084 890.008 39.9866V12.3805C890.008 8.42026 886.932 5.38282 883.01 5.38282V5.30592L883.049 5.26747Z" fill="#ECECE9"/>
<path d="M950.991 5.26747H981.486C984.87 5.26747 987.524 7.92043 987.524 11.3039V218.427C987.524 221.811 984.87 224.463 981.486 224.463H950.991C947.607 224.463 944.953 221.811 944.953 218.427V11.3039C944.953 7.92043 947.607 5.26747 950.991 5.26747Z" fill="#FB4D01"/>
<path d="M1165.53 118.307V218.465C1165.53 221.849 1163.07 224.502 1159.49 224.502H1129.77C1126.39 224.502 1123.74 221.849 1123.74 218.465V126.342C1123.74 105.273 1114.63 93.8533 1096.94 93.8533C1079.25 93.8533 1061.49 104.85 1061.49 135.186V218.465C1061.49 221.849 1058.84 224.502 1055.45 224.502H1025.58C1022.19 224.502 1019.7 221.849 1019.7 218.465V71.6684C1019.7 68.2849 1022.16 65.6319 1025.58 65.6319H1048.34C1052.22 65.6319 1054.07 67.1699 1055.45 69.8228L1061.03 80.8192C1061.64 82.0495 1062.72 82.2033 1063.68 81.2805C1073.45 70.8994 1089.21 61.4795 1111.2 61.4795C1144.5 61.4795 1165.53 81.4728 1165.53 118.307Z" fill="#FB4D01"/>
<path d="M1205.33 99.4283H1182.41C1179.49 99.4283 1177.3 97.1214 1177.3 94.3147V71.2454C1177.3 68.4387 1179.49 66.1318 1182.41 66.1318H1193.41C1203.02 66.1318 1209.21 60.5567 1209.21 49.5604V26.4912C1209.21 23.223 1211.67 20.6085 1215.09 20.6085H1243.58C1246.97 20.6085 1249.46 23.2615 1249.46 26.4912V63.7864C1249.46 65.0168 1250.54 66.0933 1251.77 66.0933H1284.15C1287.07 66.0933 1289.41 68.4002 1289.41 71.207V94.2762C1289.41 97.083 1287.11 99.3899 1284.15 99.3899H1251.77C1250.54 99.3899 1249.46 100.466 1249.46 101.697V173.211C1249.46 183.439 1255.04 188.706 1266.04 188.706H1280.26C1283.53 188.706 1285.84 191.013 1285.84 194.127V218.581C1285.84 221.695 1283.65 224.002 1280.72 224.002H1258.42C1223.74 224.002 1207.63 210.237 1207.63 176.018V101.697C1207.63 100.466 1206.56 99.3899 1205.33 99.3899V99.4283Z" fill="#FB4D01"/>
<path d="M1446.05 153.91H1339.4C1338.32 153.91 1337.55 154.679 1337.55 155.756C1337.55 179.132 1352.59 196.473 1376.58 196.473C1395.15 196.473 1406.3 186.092 1413.41 175.134C1415.26 172.327 1418.68 171.75 1421.18 173.288L1441.33 186.745C1443.79 188.283 1444.59 191.551 1442.86 194.32C1431.87 211.506 1410.84 228.693 1375.54 228.693C1326.79 228.693 1295.34 195.242 1295.34 144.952C1295.34 94.6607 1327.56 61.5179 1374 61.5179C1420.45 61.5179 1451.55 95.5835 1451.55 141.068V148.374C1451.55 151.488 1449.25 153.949 1446.13 153.949L1446.05 153.91ZM1340.78 126.035H1407.95C1409.03 126.035 1409.64 125.42 1409.64 124.343C1409.64 104.811 1395.11 91.3541 1374.19 91.3541C1353.28 91.3541 1339.05 104.965 1339.05 124.343C1339.05 125.42 1339.67 126.035 1340.74 126.035H1340.78Z" fill="#FB4D01"/>
<path d="M1616.8 118.307V218.465C1616.8 221.849 1614.34 224.502 1610.77 224.502H1581.05C1577.66 224.502 1575.01 221.849 1575.01 218.465V126.342C1575.01 105.273 1565.9 93.8533 1548.21 93.8533C1530.53 93.8533 1512.76 104.85 1512.76 135.186V218.465C1512.76 221.849 1510.11 224.502 1506.73 224.502H1476.85C1473.47 224.502 1470.97 221.849 1470.97 218.465V71.6684C1470.97 68.2849 1473.43 65.6319 1476.85 65.6319H1499.61C1503.5 65.6319 1505.34 67.1699 1506.73 69.8228L1512.3 80.8192C1512.92 82.0495 1513.99 82.2033 1514.95 81.2805C1524.72 70.8994 1540.48 61.4795 1562.48 61.4795C1595.77 61.4795 1616.8 81.4728 1616.8 118.307Z" fill="#FB4D01"/>
<path d="M1656.56 99.4283H1633.64C1630.72 99.4283 1628.53 97.1214 1628.53 94.3147V71.2454C1628.53 68.4387 1630.72 66.1318 1633.64 66.1318H1644.64C1654.25 66.1318 1660.44 60.5567 1660.44 49.5604V26.4912C1660.44 23.223 1662.9 20.6085 1666.33 20.6085H1694.82C1698.2 20.6085 1700.7 23.2615 1700.7 26.4912V63.7864C1700.7 65.0168 1701.78 66.0933 1703.01 66.0933H1735.38C1738.3 66.0933 1740.65 68.4002 1740.65 71.207V94.2762C1740.65 97.083 1738.34 99.3899 1735.38 99.3899H1703.01C1701.78 99.3899 1700.7 100.466 1700.7 101.697V173.211C1700.7 183.439 1706.27 188.706 1717.27 188.706H1731.5C1734.76 188.706 1737.07 191.013 1737.07 194.127V218.581C1737.07 221.695 1734.88 224.002 1731.96 224.002H1709.66C1674.98 224.002 1658.87 210.237 1658.87 176.018V101.697C1658.87 100.466 1657.79 99.3899 1656.56 99.3899V99.4283Z" fill="#FB4D01"/>
<path d="M1884.45 100.044C1885.52 102.696 1884.14 105.926 1881.52 107.003L1858.92 115.961C1856.26 116.884 1853.19 115.654 1852.11 113.039C1848.07 102.658 1836.31 91.7001 1818.2 91.7001C1802.55 91.7001 1791.9 98.8131 1791.9 108.272C1791.9 115.385 1797.17 120.652 1807.7 122.959L1841.27 130.687C1874.1 138.108 1887.56 153.91 1887.56 177.441C1887.56 212.583 1855.8 228.539 1818.81 228.539C1779.02 228.539 1756.26 208.892 1747.61 184.285C1746.53 181.478 1747.91 178.402 1750.72 177.325L1773.94 169.136C1776.75 168.213 1779.83 169.597 1780.9 172.404C1787.09 189.591 1800.44 198.395 1818.66 198.395C1836.89 198.395 1847.61 190.667 1847.61 179.325C1847.61 171.135 1840.96 164.637 1829.04 161.831L1797.01 154.525C1768.37 148.027 1752.41 133.455 1752.41 109.463C1752.41 80.0502 1781.06 61.4795 1818.35 61.4795C1855.65 61.4795 1877.64 81.7419 1884.45 100.044Z" fill="#FB4D01"/>
</g>
<defs>
<clipPath id="clip0_2152_15">
<rect width="1887.56" height="230" fill="white"/>
</clipPath>
</defs>
</svg>
