<?xml version="1.0" encoding="UTF-8"?>
<svg id="Capa_1" data-name="Capa 1" xmlns="http://www.w3.org/2000/svg" viewBox="0 0 600 600">
  <defs>
    <style>
      .cls-1 {
        fill: #121212;
      }
    </style>
  </defs>
  <polygon class="cls-1" points="239.18 188.92 226.77 188.92 203.79 188.92 203.79 213.74 226.77 213.74 226.77 408.02 251.59 408.02 251.59 188.92 239.18 188.92"/>
  <path class="cls-1" d="M428.4,331.72c0-52.4-29.11-83.66-73.85-83.66s-74.16,29.72-74.16,82.12,29.11,80.9,74.16,80.9c35.55,0,62.2-20.53,69.56-49.03h-27.58c-6.13,13.18-18.69,24.82-41.98,24.82-30.03,0-45.35-19-48.41-46.27h122.27v-8.89h0ZM306.44,317.01c3.68-26.35,19.61-45.05,48.11-45.05s43.51,18.39,47.19,45.05h-95.3,0Z"/>
  <path class="cls-1" d="M526.15,248.06c-45.05,0-74.16,29.72-74.16,82.12s29.11,80.9,74.16,80.9,73.85-27.58,73.85-80.9-29.11-82.12-73.85-82.12ZM526.15,387.49c-32.18,0-49.64-25.13-49.64-57.61s17.47-58.53,49.64-58.53,49.33,25.43,49.33,58.53-16.85,57.61-49.33,57.61Z"/>
  <g>
    <polygon class="cls-1" points="129.03 188.92 104.88 188.92 78.46 188.92 34.58 317.01 61.31 317.01 96.85 212.52 109.72 212.52 145.26 317.01 96.27 317.01 61.31 317.01 53.03 340.6 104.24 340.6 153.23 340.6 176.22 408.02 203.79 408.02 129.03 188.92"/>
    <polygon class="cls-1" points="3.39 408.02 30.05 408.02 53.03 340.6 26.49 340.6 3.39 408.02"/>
    <polygon class="cls-1" points="8.09 317.01 0 340.6 26.49 340.6 34.58 317.01 8.09 317.01"/>
  </g>
</svg>