<?xml version="1.0" encoding="UTF-8"?>
<svg id="Capa_1" data-name="Capa 1" xmlns="http://www.w3.org/2000/svg" viewBox="0 0 600 600">
  <defs>
    <style>
      .cls-1 {
        fill: #0f0e0d;
      }
    </style>
  </defs>
  <path class="cls-1" d="M200.11,342.58H3.3c4.34,30.25,13.16,59.03,25.81,85.65h116.04l54.95-85.65Z"/>
  <g>
    <path class="cls-1" d="M29.11,171.3c-12.65,26.62-21.48,55.4-25.81,85.64h251.78l54.97-85.64H29.11Z"/>
    <path class="cls-1" d="M596.7,256.94c-4.34-30.25-13.16-59.02-25.81-85.64h-150.91l-54.95-85.65h144.73C455.7,32.67,381.67,0,300,0S144.3,32.67,90.24,85.64h274.78l-54.98,85.65,54.98,85.64h231.68Z"/>
    <path class="cls-1" d="M145.16,428.23l-54.97,85.64c54.06,52.97,127.95,86.13,209.62,86.13s156.81-31.47,211.07-86.13H200.13l-54.97-85.64Z"/>
    <path class="cls-1" d="M255.08,428.23h315.81c12.65-26.62,21.48-55.4,25.81-85.64h-286.64l-54.97-85.65-54.98,85.64"/>
  </g>
</svg>