<?xml version="1.0" encoding="UTF-8"?>
<svg id="Capa_1" data-name="Capa 1" xmlns="http://www.w3.org/2000/svg" viewBox="0 0 600 600">
  <defs>
    <style>
      .cls-1 {
        fill: #fff;
      }

      .cls-2 {
        fill: none;
      }

      .cls-3 {
        fill: #213147;
      }

      .cls-4 {
        fill: #12aaff;
      }

      .cls-5 {
        fill: #9dcced;
      }
    </style>
  </defs>
  <path class="cls-3" d="M300.03,0C292.18,0,284.32,2.09,277.32,6.14L56.91,133.4c-13.99,8.09-22.71,23.08-22.71,39.27v254.52c0,16.19,8.72,31.29,22.71,39.4l220.42,127.26c7,4.05,14.84,6.14,22.71,6.14s15.71-2.09,22.71-6.14l220.42-127.26c14.12-8.1,22.71-23.08,22.71-39.4v-254.52c0-16.19-8.72-31.29-22.71-39.4L322.85,6.14C315.72,2.09,307.88,0,300.01,0h.01Z"/>
  <path class="cls-2" d="M54.28,182.37v235.26c0,14.97,7.98,28.83,20.99,36.33l203.73,117.57c13.01,7.49,28.96,7.49,41.97,0l203.73-117.57c13.01-7.49,20.99-21.35,20.99-36.33v-235.26c0-14.97-7.98-28.83-20.99-36.33L320.96,28.48c-13.01-7.49-28.96-7.49-41.97,0l-203.73,117.57c-12.88,7.49-20.99,21.35-20.99,36.33Z"/>
  <g>
    <path class="cls-4" d="M344.52,345.59l-29.09,79.65c-.85,2.2-.85,4.66,0,6.87l49.95,137.09,57.81-33.38-69.34-190.22c-1.59-4.42-7.73-4.42-9.33,0h0Z"/>
    <path class="cls-4" d="M402.68,211.57c-1.59-4.42-7.73-4.42-9.33,0l-29.09,79.65c-.85,2.2-.85,4.66,0,6.87l81.85,224.47,57.81-33.38-101.24-277.6h0Z"/>
  </g>
  <path class="cls-5" d="M299.97,37.18c1.48,0,2.83.37,4.17,1.11l220.42,127.26c2.57,1.48,4.17,4.17,4.17,7.12v254.52c0,2.94-1.59,5.64-4.17,7.12l-220.42,127.39c-1.22.74-2.7,1.11-4.17,1.11s-2.83-.37-4.17-1.11l-220.3-127.26c-2.57-1.48-4.17-4.17-4.17-7.12v-254.65c0-2.94,1.59-5.64,4.17-7.12l220.42-127.26c1.22-.74,2.7-1.11,4.05-1.11M299.97,0c-7.85,0-15.71,2.09-22.71,6.14L56.85,133.4c-13.99,8.09-22.71,23.08-22.71,39.27v254.52c0,16.19,8.72,31.29,22.71,39.4l220.42,127.26c7,4.05,14.84,6.14,22.71,6.14s15.71-2.09,22.71-6.14l220.42-127.26c14.12-8.1,22.71-23.08,22.71-39.4v-254.52c0-16.19-8.72-31.29-22.71-39.4L322.79,6.14c-7.12-4.05-14.97-6.14-22.83-6.14h.01Z"/>
  <g>
    <path class="cls-1" d="M281.43,154.5h-55.83c-4.17,0-7.98,2.57-9.33,6.5l-119.78,328.41,57.81,33.38,131.93-361.67c1.11-3.18-1.22-6.63-4.79-6.63h0Z"/>
    <path class="cls-1" d="M379.25,154.5h-55.83c-4.17,0-7.98,2.57-9.33,6.5l-136.83,375.05,57.81,33.38,148.84-408.18c1.22-3.31-1.22-6.75-4.66-6.75Z"/>
  </g>
</svg>