<?xml version="1.0" encoding="UTF-8"?>
<svg id="Capa_1" data-name="Capa 1" xmlns="http://www.w3.org/2000/svg" viewBox="0 0 600 600">
  <defs>
    <style>
      .cls-1 {
        fill: #5deb5a;
      }

      .cls-2 {
        fill: #101820;
      }
    </style>
  </defs>
  <path class="cls-1" d="M66.43,243.72c5.63,0,10.69,3.13,13.21,8.16l41.52,83.04c2.3,4.61,2.06,9.98-.64,14.36-2.71,4.39-7.41,7-12.56,7H24.91c-5.15,0-9.85-2.62-12.56-7-2.71-4.39-2.95-9.75-.65-14.36l41.52-83.04c2.52-5.03,7.58-8.16,13.21-8.16M66.43,233.57c-9.44,0-18.06,5.33-22.28,13.77L2.63,330.38c-3.86,7.72-3.45,16.9,1.09,24.24,4.54,7.35,12.56,11.82,21.19,11.82h83.04c8.63,0,16.65-4.47,21.19-11.82,4.54-7.35,4.95-16.52,1.09-24.24l-41.52-83.04c-4.22-8.44-12.84-13.77-22.28-13.77h0Z"/>
  <path class="cls-2" d="M297.26,267.52c.5,0,.9.4.9.9v38.17c0,18.1-11.32,27-26.26,27s-26.26-8.91-26.26-27v-38.17c0-.5.4-.9.9-.9h8.87c.5,0,.9.4.9.9v37.52c0,12.62,6.59,17.63,15.59,17.63s15.59-5.01,15.59-17.63v-37.52c0-.5.4-.9.9-.9h8.87Z"/>
  <path class="cls-2" d="M452.75,300c-.09,19.12-14.66,33.59-33.69,33.59s-33.69-14.48-33.69-33.59,14.66-33.59,33.69-33.59,33.59,14.48,33.69,33.59ZM395.96,300c0,13.55,9.93,23.57,23.11,23.57s23.02-10.02,23.02-23.57-9.93-23.57-23.02-23.57-23.11,10.02-23.11,23.57Z"/>
  <path class="cls-2" d="M547.33,332.48h-9.18c-.63,0-1.07-.64-.84-1.22l24.31-62.78c.2-.52.7-.86,1.26-.86h11.49c.56,0,1.06.34,1.26.86l24.31,62.78c.23.59-.21,1.22-.84,1.22h-9.18c-.38,0-.71-.23-.84-.58l-19.6-51.69c-.29-.77-1.39-.77-1.69,0l-19.61,51.69c-.13.35-.47.58-.84.58h0Z"/>
  <path class="cls-2" d="M176.17,332.48h-9.18c-.63,0-1.07-.64-.84-1.22l24.31-62.78c.2-.52.7-.86,1.26-.86h11.49c.56,0,1.06.34,1.26.86l24.31,62.78c.23.59-.21,1.22-.84,1.22h-9.18c-.38,0-.71-.23-.84-.58l-19.6-51.69c-.29-.77-1.39-.77-1.69,0l-19.61,51.69c-.13.35-.47.58-.84.58h0Z"/>
  <path class="cls-2" d="M521.51,331.03l-18.23-23.29c10.29-1.95,16.31-8.9,16.31-19.55,0-12.23-7.97-20.57-22.06-20.57h-25.43c-.74,0-1.35.61-1.35,1.35h0c0,4.78,3.88,8.66,8.66,8.66h17.01c8.53,0,12.6,4.36,12.6,10.66s-3.99,10.75-12.6,10.75h-24.32c-.74,0-1.35.61-1.35,1.35v31.2c0,.5.4.9.9.9h8.67c.5,0,.9-.4.9-.9v-23.29h10.01l15.83,20.66c1.71,2.23,4.35,3.53,7.15,3.53h6.59c.75,0,1.17-.86.71-1.46h0Z"/>
  <path class="cls-2" d="M370.77,331.03l-18.23-23.29c10.29-1.95,16.31-8.9,16.31-19.55,0-12.23-7.97-20.57-22.06-20.57h-25.43c-.74,0-1.35.61-1.35,1.35h0c0,4.78,3.88,8.66,8.66,8.66h17.01c8.53,0,12.6,4.36,12.6,10.66s-3.99,10.75-12.6,10.75h-24.32c-.74,0-1.35.61-1.35,1.35v31.2c0,.5.4.9.9.9h8.67c.5,0,.9-.4.9-.9v-23.29h10.01l15.83,20.66c1.71,2.23,4.35,3.53,7.15,3.53h6.59c.75,0,1.17-.86.71-1.46h0Z"/>
</svg>