<?xml version="1.0" encoding="UTF-8"?>
<svg id="Capa_1" data-name="Capa 1" xmlns="http://www.w3.org/2000/svg" viewBox="0 0 600 600">
  <defs>
    <style>
      .cls-1 {
        fill: none;
      }

      .cls-2 {
        fill: #ff394a;
      }
    </style>
  </defs>
  <rect class="cls-1" y="245.67" width="600" height="108.66"/>
  <g>
    <path class="cls-2" d="M375.97,563.77h200.95c17.73,0,28.83-19.2,19.95-34.55l-100.48-174.02c-8.88-15.35-31.02-15.35-39.9,0l-100.48,174.02c-8.88,15.35,2.22,34.55,19.95,34.55Z"/>
    <path class="cls-2" d="M401.11,190.15l-82.58-143.07c-8.34-14.46-29.23-14.46-37.57,0L3.21,528.14c-9.13,15.84,2.29,35.6,20.56,35.6h165.38c17.64,0,33.92-9.41,42.73-24.67l169.23-293.11c9.98-17.26,9.98-38.55,0-55.81Z"/>
  </g>
</svg>