<?xml version="1.0" encoding="UTF-8"?>
<svg id="Capa_1" data-name="Capa 1" xmlns="http://www.w3.org/2000/svg" viewBox="0 0 600 600">
  <defs>
    <style>
      .cls-1 {
        fill: blue;
      }
    </style>
  </defs>
  <path d="M209.64,375.78c-11.82,0-23.22-4.32-29.94-15.72h-3.9v12.48h-26.88v-148.43h26.88v54h3.9c6.9-11.82,19.8-16.38,31.44-16.38,29.04,0,48.66,23.22,48.66,55.92s-21.54,58.08-50.16,58.08v.06h0ZM203.82,351.72c16.56,0,28.38-13.56,28.38-32.94s-12.06-32.94-28.38-32.94-27.96,12.9-27.96,32.94,11.82,32.94,27.96,32.94ZM309.48,375.78c-20.64,0-37.44-12.48-37.44-32.94s18.48-31.86,40.86-34.2l31.62-3.24v-6c0-9.24-7.56-15.72-20.88-15.72s-20.04,5.58-22.38,13.98h-25.8c2.58-20.46,19.56-35.94,48.18-35.94s45.84,13.32,45.84,39.36v52.5c0,6.66.66,15.9,1.08,18.48v.42h-25.8c-.24-3.66-.24-7.08-.24-10.74h-3.9c-6.66,10.74-18.3,13.98-31.2,13.98l.06.06h0ZM316.8,355.56c17.64,0,27.78-13.32,27.78-26.88v-5.4l-23.7,2.82c-14.64,1.74-21.72,6-21.72,15.48s7.32,13.98,17.64,13.98h0ZM434.1,375.78c-27.12,0-46.5-13.56-49.5-34.86h26.46c3,9.48,12.9,13.56,23.22,13.56s19.14-4.5,19.14-12.48-8.16-10.14-19.38-12.06l-11.4-1.92c-21.54-3.66-34.86-12.72-34.86-32.04s18.48-34.2,44.1-34.2,41.52,11.64,46.02,31.86h-25.8c-3-7.98-10.98-11.16-20.04-11.16s-18.06,4.74-18.06,11.4,5.58,9.06,17.22,10.98l11.4,1.92c20.88,3.42,36.78,12.06,36.78,32.94s-18.96,36.18-45.42,36.18l.12-.12h0ZM546.83,375.78c-33.12,0-55.08-22.62-55.08-57.24s23.22-56.82,55.32-56.82,52.92,24.96,52.92,57.9v4.74h-81.96c1.32,17.88,13.8,28.38,28.86,28.38s20.04-4.32,23.7-11.82h27.54c-5.58,20.22-25.62,34.86-51.24,34.86h-.07ZM573.72,306.54c-2.16-14.4-13.56-22.8-26.88-22.8s-25.8,8.16-28.38,22.8h55.32-.07Z"/>
  <path class="cls-1" d="M6.48,372.6c-4.32,0-6.48-2.16-6.48-6.48v-94.68c0-4.32,2.16-6.48,6.48-6.48h94.68c4.32,0,6.48,2.16,6.48,6.48v94.68c0,4.32-2.16,6.48-6.48,6.48H6.48Z"/>
</svg>