<?xml version="1.0" encoding="UTF-8"?>
<svg id="Capa_1" data-name="Capa 1" xmlns="http://www.w3.org/2000/svg" viewBox="0 0 600 600">
  <defs>
    <style>
      .cls-1 {
        fill: #fff;
      }

      .cls-2 {
        fill: #814625;
      }
    </style>
  </defs>
  <circle class="cls-2" cx="300" cy="300" r="300"/>
  <path class="cls-1" d="M288.81,284.81c-.33-1-.56-2.02-.74-3.05-.08-.48-.18-.95-.29-1.43-.24-1.03-.5-2.05-.78-3.06h0c4.68-6.82,27.04-42.4,1.59-65.24-28.25-25.34-61.25,7.88-61.25,7.88l.1.15c-14.83-4.34-30.92-4.85-46.56-.15h0c-.19-.19-33.08-33.14-61.25-7.87-28.17,25.28,2.25,66.17,2.41,66.39h0c-.32.96-.58,1.94-.76,2.94-3.05,17.5-23.79,22.9-23.79,53.39s21.7,55.56,66,55.56h18.18c.08.11,7.57,10.33,22.93,10.32,14.27-.01,23.69-10.23,23.77-10.32h17.35c44.3,0,66-24.48,66-55.56,0-28.39-17.99-35.02-22.93-49.94h0Z"/>
  <path class="cls-1" d="M500.52,249.98s3.29-29.38-21.75-35.69v-11.78h-19.39v11.49c-26.42,5.63-23.01,35.99-23.01,35.99v5.04s-3.41,30.37,23.02,35.99h0v25.22c-27.85,4.89-24.33,36.24-24.33,36.24v5.04s-3.41,30.36,23.01,35.99v11.49h19.39v-11.78c25.05-6.31,21.75-35.69,21.75-35.69,1.09,0,1.98-.85,1.98-1.91v-1.22c0-1.05-.89-1.91-1.98-1.91,0,0,3.27-29.13-21.42-35.61v-25.86h-.29c26.43-5.62,23.02-35.99,23.02-35.99,1.09,0,1.98-.85,1.98-1.91v-1.22c0-1.05-.89-1.91-1.98-1.91h0ZM484.71,352.47h-1.77c-1.09,0-1.98.86-1.98,1.91v1.22c0,1.05.89,1.91,1.98,1.91h1.77c0,18.23-6.28,21.29-8.4,21.81-.35.08-.69-.16-.69-.51v-5.81c0-3.21-2.12-4.97-4.25-5.93-2.69-1.21-5.81-1.21-8.5,0-2.12.96-4.25,2.72-4.25,5.93v5.81c0,.34-.33.59-.67.51-2.1-.51-8.41-3.55-8.41-21.81v-5.04c0-18.23,6.28-21.29,8.4-21.81.35-.08.68.16.68.51v5.81c0,3.21,2.13,4.97,4.25,5.93,2.68,1.21,5.81,1.21,8.5,0,2.12-.96,4.25-2.72,4.25-5.93v-5.81c0-.34.33-.59.67-.51,2.1.51,8.41,3.55,8.41,21.81ZM484.25,255.02h1.77c0,18.26-6.31,21.3-8.41,21.81-.34.08-.67-.17-.67-.51v-5.81c0-3.21-2.12-4.97-4.25-5.93-2.68-1.21-5.81-1.21-8.5,0-2.12.96-4.25,2.72-4.25,5.93v5.81c0,.35-.34.59-.69.51-2.11-.52-8.4-3.58-8.4-21.81v-5.04c0-18.26,6.31-21.3,8.41-21.81.34-.08.67.17.67.51v5.81c0,3.21,2.12,4.97,4.25,5.93,2.69,1.21,5.81,1.21,8.5,0,2.13-.96,4.25-2.72,4.25-5.93v-5.81c0-.35.34-.59.69-.51,2.11.52,8.4,3.58,8.4,21.81h-1.77c-1.1,0-1.98.85-1.98,1.91v1.22c0,1.05.89,1.91,1.98,1.91Z"/>
  <path class="cls-1" d="M403.46,301.86s3.42-30.54-23.24-36.03v-27.43c25.96-5.86,22.59-35.89,22.59-35.89,0,0-14.56,0-14.5,0,0,18.26-6.31,21.3-8.41,21.81-.34.08-.67-.17-.67-.51v-5.81c0-3.21-2.12-4.97-4.25-5.93-2.68-1.21-5.81-1.21-8.5,0-2.12.96-4.25,2.72-4.25,5.93v5.81c0,.34-.34.59-.69.51-2.11-.52-8.4-3.58-8.4-21.81.06,0-14.5,0-14.5,0,0,0-3.49,31.17,24.08,36.2v27.09c-26.86,5.4-23.42,36.07-23.42,36.07v5.04s-3.44,30.67,23.42,36.07v25.83c-27.57,5.03-24.08,36.19-24.08,36.19,0,0,14.56,0,14.5,0,0-18.26,6.31-21.3,8.41-21.81.34-.08.67.17.67.51v5.81c0,3.21,2.12,4.97,4.25,5.93,2.69,1.21,5.81,1.21,8.5,0,2.13-.96,4.25-2.72,4.25-5.93v-5.81c0-.34.34-.59.69-.51,2.11.52,8.4,3.58,8.4,21.81-.06,0,14.5,0,14.5,0,0,0,3.37-30.03-22.59-35.89v-26.17c26.67-5.5,23.24-36.03,23.24-36.03,1.1,0,1.98-.85,1.98-1.91v-1.22c0-1.05-.89-1.91-1.98-1.91h0ZM387.19,306.9h1.77c0,18.26-6.31,21.3-8.41,21.81-.34.08-.67-.17-.67-.51v-5.81c0-3.21-2.12-4.97-4.25-5.93-2.69-1.21-5.81-1.21-8.5,0-2.13.96-4.25,2.72-4.25,5.93v5.81c0,.35-.34.59-.69.51-2.11-.52-8.4-3.58-8.4-21.81v-5.04c0-18.26,6.31-21.3,8.41-21.81.34-.08.67.17.67.51v5.81c0,3.21,2.12,4.97,4.25,5.93,2.68,1.21,5.81,1.21,8.5,0,2.12-.96,4.25-2.72,4.25-5.93v-5.81c0-.35.34-.59.69-.51,2.11.52,8.4,3.58,8.4,21.81h-1.77c-1.09,0-1.98.86-1.98,1.91v1.22c0,1.05.89,1.91,1.98,1.91Z"/>
</svg>