<?xml version="1.0" encoding="UTF-8"?>
<svg id="Capa_1" data-name="Capa 1" xmlns="http://www.w3.org/2000/svg" viewBox="0 0 600 600">
  <defs>
    <style>
      .cls-1 {
        fill: #fff;
      }

      .cls-2 {
        fill: #f7931a;
      }
    </style>
  </defs>
  <g id="Layer_1">
    <g id="_1421344023328" data-name=" 1421344023328">
      <path class="cls-2" d="M591.02,372.58c-40.07,160.73-202.87,258.55-363.62,218.47C66.72,550.98-31.1,388.17,8.99,227.45,49.04,66.7,211.84-31.13,372.54,8.94c160.74,40.07,258.56,202.9,218.48,363.64h0s0,0,0,0Z"/>
      <path class="cls-1" d="M432.3,257.25c5.97-39.93-24.43-61.39-65.99-75.71l13.48-54.09-32.92-8.2-13.13,52.66c-8.66-2.16-17.54-4.19-26.38-6.21l13.22-53.01-32.9-8.2-13.49,54.07c-7.16-1.63-14.2-3.24-21.02-4.94l.04-.17-45.4-11.34-8.76,35.16s24.43,5.6,23.91,5.94c13.33,3.33,15.74,12.15,15.34,19.15l-15.36,61.62c.92.23,2.11.57,3.42,1.1-1.1-.27-2.27-.57-3.48-.86l-21.53,86.32c-1.63,4.05-5.76,10.13-15.09,7.82.33.48-23.93-5.97-23.93-5.97l-16.35,37.69,42.84,10.68c7.97,2,15.78,4.09,23.47,6.06l-13.62,54.71,32.89,8.2,13.49-54.13c8.98,2.44,17.7,4.69,26.24,6.81l-13.45,53.87,32.93,8.2,13.62-54.6c56.14,10.63,98.36,6.34,116.12-44.44,14.32-40.88-.71-64.47-30.25-79.84,21.51-4.96,37.72-19.11,42.04-48.34h-.01s0,0,0,0ZM357.08,362.73c-10.17,40.88-79.01,18.78-101.33,13.24l18.08-72.48c22.32,5.57,93.88,16.6,83.25,59.23h0ZM367.26,256.66c-9.28,37.19-66.57,18.3-85.16,13.66l16.39-65.73c18.59,4.63,78.44,13.28,68.77,52.07h0Z"/>
    </g>
  </g>
</svg>