<?xml version="1.0" encoding="UTF-8"?>
<svg id="Capa_1" data-name="Capa 1" xmlns="http://www.w3.org/2000/svg" viewBox="0 0 600 600">
  <defs>
    <style>
      .cls-1 {
        fill: #fff;
      }

      .cls-2 {
        fill: #0ac18e;
      }
    </style>
  </defs>
  <circle class="cls-2" cx="300" cy="300" r="300"/>
  <path id="symbol" class="cls-1" d="M393.58,199.26c-15.08-34.19-49.72-41.5-92.13-34.42l-13.63-52.84-32.13,8.3,13.4,52.69c-8.45,2.13-17.13,3.96-25.74,6.4l-13.4-52.39-32.13,8.3,13.63,52.84c-6.93,1.98-64.87,16.83-64.87,16.83l8.83,34.42s23.6-6.62,23.38-6.09c13.1-3.43,19.26,3.12,22.16,9.29l37.46,144.82c.46,4.19-.3,11.35-9.29,13.78.53.3-23.38,6.02-23.38,6.02l3.5,40.13s57.41-14.7,64.95-16.6l13.78,53.45,32.13-8.3-13.78-53.83c8.83-2.06,17.44-4.19,25.81-6.4l13.71,53.53,32.13-8.3-13.78-53.38c49.49-12.03,84.44-43.25,77.28-90.99-4.57-28.78-36.02-52.39-62.13-55.05,16.07-14.24,24.21-35.03,14.24-62.21h0ZM378.12,325.28c6.4,47.28-59.31,53.07-81.02,58.78l-18.88-70.74c21.78-5.71,89.09-29.7,99.9,11.95ZM338.53,228.96c6.78,42.03-49.42,46.9-67.54,51.55l-17.21-64.19c18.2-4.49,70.96-26.27,84.75,12.64Z"/>
</svg>