<?xml version="1.0" encoding="UTF-8"?>
<svg id="Capa_1" data-name="Capa 1" xmlns="http://www.w3.org/2000/svg" viewBox="0 0 600 600">
  <defs>
    <style>
      .cls-1 {
        fill: #f0b90b;
      }
    </style>
  </defs>
  <path class="cls-1" d="M142.12,91.9L300,0l157.88,91.9-58.05,33.95-99.84-57.95-99.84,57.95-58.05-33.95ZM457.88,207.8l-58.05-33.95-99.84,57.95-99.84-57.95-58.05,33.95v67.9l99.84,57.95v115.9l58.05,33.95,58.05-33.95v-115.9l99.84-57.95v-67.9ZM457.88,391.61v-67.9l-58.05,33.95v67.9l58.05-33.95ZM499.1,415.61l-99.84,57.95v67.9l157.88-91.9v-183.8l-58.05,33.95v115.9ZM441.05,149.85l58.05,33.95v67.9l58.05-33.95v-67.9l-58.05-33.95-58.05,33.95ZM241.95,498.15v67.9l58.05,33.95,58.05-33.95v-67.9l-58.05,33.95-58.05-33.95ZM142.12,391.61l58.05,33.95v-67.9l-58.05-33.95v67.9ZM241.95,149.85l58.05,33.95,58.05-33.95-58.05-33.95-58.05,33.95ZM100.9,183.81l58.05-33.95-58.05-33.95-58.05,33.95v67.9l58.05,33.95v-67.9ZM100.9,299.71l-58.05-33.95v183.8l157.88,91.9v-67.9l-99.84-57.95v-115.9Z"/>
</svg>