<?xml version="1.0" encoding="UTF-8"?>
<svg id="Capa_1" data-name="Capa 1" xmlns="http://www.w3.org/2000/svg" viewBox="0 0 600 600">
  <defs>
    <style>
      .cls-1 {
        fill: #0033ad;
      }
    </style>
  </defs>
  <g id="Layer_2" data-name="Layer 2">
    <g id="Layer_1-2" data-name="Layer 1-2">
      <path class="cls-1" d="M164.41,298c-1.22,22.26,15.79,41.33,38.05,42.64h2.34c22.32-.02,40.4-18.12,40.39-40.45-.02-22.32-18.12-40.4-40.45-40.39-21.45.02-39.15,16.78-40.33,38.19Z"/>
      <path class="cls-1" d="M13.79,287.6c-7.2-.4-13.36,5.11-13.77,12.3-.4,7.2,5.11,13.36,12.3,13.77,7.2.4,13.36-5.1,13.77-12.3.42-7.19-5.07-13.36-12.26-13.77-.01,0-.03,0-.04,0Z"/>
      <path class="cls-1" d="M161.85,63.49c6.43-3.27,8.98-11.13,5.71-17.56-3.27-6.43-11.13-8.98-17.56-5.71-6.39,3.26-8.96,11.06-5.75,17.48,3.25,6.46,11.12,9.05,17.58,5.8,0,0,.02,0,.02-.01Z"/>
      <path class="cls-1" d="M202.84,134.96c9.95-5.02,13.95-17.15,8.93-27.1-5.02-9.95-17.15-13.95-27.1-8.93-9.95,5.01-13.95,17.14-8.94,27.09,5.02,9.95,17.15,13.95,27.1,8.94Z"/>
      <path class="cls-1" d="M64.92,184.11c7.68,5.03,17.98,2.88,23.02-4.79,5.03-7.68,2.88-17.98-4.79-23.02-7.68-5.03-17.98-2.88-23.02,4.79,0,0,0,0,0,0-5.03,7.68-2.88,17.98,4.8,23.01Z"/>
      <path class="cls-1" d="M89.48,280.4c-11.13-.64-20.67,7.87-21.31,19.01-.64,11.13,7.87,20.67,19.01,21.31,11.13.64,20.67-7.87,21.31-19.01,0,0,0-.01,0-.02.63-11.13-7.88-20.66-19.01-21.3Z"/>
      <path class="cls-1" d="M67.2,415.95c-8.2,4.13-11.5,14.12-7.37,22.32,4.13,8.2,14.12,11.5,22.32,7.37,8.2-4.13,11.5-14.12,7.37-22.32h0c-4.11-8.2-14.08-11.51-22.27-7.39-.02,0-.03.02-.05.02Z"/>
      <path class="cls-1" d="M145.6,238.62c10.97,7.19,25.68,4.13,32.88-6.83,7.19-10.97,4.13-25.68-6.83-32.88-10.96-7.19-25.68-4.13-32.87,6.83-7.2,10.95-4.15,25.66,6.8,32.86.01,0,.02.01.03.02Z"/>
      <path class="cls-1" d="M394.35,133.36c9.32,6.12,21.84,3.52,27.96-5.8,6.12-9.32,3.52-21.84-5.8-27.96-9.32-6.12-21.84-3.52-27.96,5.8,0,0,0,0,0,0-6.12,9.31-3.52,21.82,5.79,27.94,0,0,.01,0,.02.01Z"/>
      <path class="cls-1" d="M435.76,62.11c6.03,3.95,14.13,2.26,18.07-3.77s2.26-14.13-3.77-18.07c-6.02-3.94-14.1-2.26-18.06,3.75-3.96,6.03-2.29,14.12,3.74,18.08,0,0,.01,0,.02.01Z"/>
      <path class="cls-1" d="M397.52,259.46c-22.28-1.27-41.36,15.76-42.63,38.04-1.27,22.28,15.76,41.36,38.04,42.63h2.32c22.31,0,40.4-18.09,40.4-40.4,0-21.43-16.73-39.13-38.13-40.34v.06Z"/>
      <path class="cls-1" d="M216.12,235.82c6.84,13.65,20.83,22.24,36.1,22.18,22.31,0,40.4-18.1,40.39-40.41,0-6.32-1.48-12.54-4.33-18.18-10.04-19.93-34.34-27.94-54.26-17.9-19.93,10.04-27.94,34.34-17.9,54.26v.05Z"/>
      <path class="cls-1" d="M532.8,184.06c8.18-4.16,11.44-14.17,7.27-22.36-4.16-8.18-14.17-11.44-22.36-7.27-8.15,4.15-11.42,14.1-7.32,22.27,4.13,8.21,14.13,11.52,22.34,7.39.02,0,.04-.02.06-.03Z"/>
      <path class="cls-1" d="M430.4,196.93c-11.71,5.91-16.41,20.18-10.51,31.89,5.91,11.71,20.18,16.41,31.89,10.51,11.7-5.9,16.41-20.17,10.52-31.87-5.91-11.71-20.19-16.42-31.9-10.53Z"/>
      <path class="cls-1" d="M298.48,56.02c9.17.51,17.01-6.5,17.53-15.67s-6.5-17.01-15.67-17.53c-9.14-.51-16.97,6.46-17.52,15.6-.56,9.16,6.4,17.03,15.56,17.59.03,0,.07,0,.1,0Z"/>
      <path class="cls-1" d="M298.28,160.61c13.09.72,24.29-9.31,25.01-22.4.72-13.09-9.31-24.29-22.4-25.01-13.08-.72-24.27,9.28-25.01,22.36-.74,13.09,9.27,24.31,22.36,25.05.01,0,.03,0,.04,0Z"/>
      <path class="cls-1" d="M169.6,403.09c11.71-5.9,16.42-20.17,10.53-31.89-5.9-11.71-20.17-16.42-31.89-10.53-11.71,5.9-16.42,20.17-10.53,31.88,5.9,11.71,20.17,16.42,31.89,10.53Z"/>
      <path class="cls-1" d="M313.6,195.26c-12.2,18.65-6.98,43.66,11.67,55.86,18.65,12.2,43.66,6.98,55.86-11.67,12.2-18.65,6.98-43.66-11.67-55.86-6.55-4.29-14.21-6.58-22.04-6.59-13.63,0-26.35,6.86-33.82,18.26Z"/>
      <path class="cls-1" d="M383.87,364.19c-10.04-19.94-34.34-27.96-54.27-17.92-19.94,10.04-27.96,34.34-17.92,54.27,10.04,19.94,34.34,27.96,54.27,17.92.01,0,.02-.01.04-.02,19.87-9.88,27.97-33.99,18.09-53.86-.07-.13-.13-.26-.2-.39Z"/>
      <path class="cls-1" d="M454.4,361.39c-10.97-7.19-25.68-4.13-32.88,6.83-7.19,10.97-4.13,25.68,6.83,32.88,10.96,7.19,25.68,4.13,32.87-6.83,7.19-10.96,4.14-25.68-6.83-32.88h0Z"/>
      <path class="cls-1" d="M531.8,300.69c.64-11.13-7.87-20.67-19.01-21.31-11.13-.64-20.67,7.87-21.31,19.01-.64,11.13,7.87,20.67,19.01,21.31,0,0,.01,0,.02,0,11.13.63,20.66-7.88,21.3-19.01Z"/>
      <path class="cls-1" d="M587.68,286.34c-7.2-.4-13.36,5.11-13.77,12.3-.4,7.2,5.11,13.36,12.3,13.77,7.2.4,13.36-5.1,13.77-12.3.4-7.2-5.11-13.36-12.3-13.78Z"/>
      <path class="cls-1" d="M535.07,415.89c-7.68-5.03-17.99-2.88-23.01,4.81-5.03,7.68-2.88,17.99,4.81,23.01,7.68,5.02,17.98,2.88,23.01-4.8,5.03-7.68,2.89-17.98-4.79-23.02h-.01Z"/>
      <path class="cls-1" d="M164.24,537.9c-6.03-3.96-14.12-2.28-18.08,3.74-3.96,6.03-2.28,14.12,3.74,18.08,6.03,3.96,14.12,2.28,18.08-3.74,0,0,0,0,0,0,3.95-6.03,2.27-14.12-3.74-18.08Z"/>
      <path class="cls-1" d="M438.12,536.53c-6.43,3.27-8.98,11.13-5.71,17.56,3.27,6.43,11.13,8.98,17.56,5.71,6.39-3.26,8.96-11.06,5.75-17.48-3.23-6.45-11.07-9.06-17.52-5.83-.03.01-.05.03-.08.04Z"/>
      <path class="cls-1" d="M286.4,404.74c12.23-18.66,7.02-43.7-11.65-55.93-18.66-12.23-43.7-7.02-55.93,11.65-12.23,18.66-7.02,43.7,11.65,55.93,6.57,4.31,14.25,6.6,22.11,6.61,13.64.06,26.38-6.82,33.82-18.26Z"/>
      <path class="cls-1" d="M205.64,466.66c-9.32-6.12-21.84-3.52-27.96,5.8-6.12,9.32-3.52,21.84,5.8,27.96,9.32,6.12,21.84,3.52,27.96-5.8,0,0,0,0,0,0,6.11-9.32,3.51-21.84-5.81-27.95Z"/>
      <path class="cls-1" d="M299.8,543.98c-9.17-.52-17.02,6.49-17.54,15.65-.52,9.17,6.49,17.02,15.65,17.54,9.14.52,16.99-6.45,17.54-15.59.55-9.16-6.43-17.04-15.59-17.6-.02,0-.04,0-.06,0Z"/>
      <path class="cls-1" d="M299.98,439.39c-13.09-.72-24.29,9.31-25.01,22.4-.72,13.09,9.31,24.29,22.4,25.01,13.07.72,24.26-9.28,25.01-22.34.74-13.1-9.27-24.33-22.37-25.07,0,0-.02,0-.03,0Z"/>
      <path class="cls-1" d="M397.13,465.04c-9.94,5.05-13.9,17.21-8.85,27.15,5.05,9.94,17.21,13.9,27.15,8.85,9.9-5.04,13.88-17.12,8.9-27.05-5-9.97-17.14-13.99-27.1-8.99-.03.02-.06.03-.1.05Z"/>
    </g>
  </g>
</svg>