<?xml version="1.0" encoding="UTF-8"?>
<svg id="Capa_1" data-name="Capa 1" xmlns="http://www.w3.org/2000/svg" viewBox="0 0 600 600">
  <defs>
    <style>
      .cls-1 {
        fill: #c2a633;
      }
    </style>
  </defs>
  <path class="cls-1" d="M307.2,197.7h-42.86v84.51h67.44v35.38h-67.44v84.5h44.96c11.55,0,94.85,1.3,94.72-98.32-.13-99.62-80.79-106.07-96.82-106.07Z"/>
  <path class="cls-1" d="M300,0C134.31,0,0,134.31,0,300s134.31,300,300,300,300-134.31,300-300S465.69,0,300,0ZM311.79,462.03h-108.65v-144.44h-38.3v-35.38h38.3v-144.45h93.25c22.06,0,168.17-4.58,168.17,164.84s-152.76,159.42-152.76,159.42h0Z"/>
</svg>