<?xml version="1.0" encoding="UTF-8"?>
<svg id="Capa_1" data-name="Capa 1" xmlns="http://www.w3.org/2000/svg" viewBox="0 0 600 600">
  <path d="M308.03,302.6c-1.14,0-2.17-.37-2.99-1.02l6.84-6.84c.65.83,1.02,1.87,1.02,2.99,0,2.7-2.18,4.88-4.87,4.87ZM300.29,281.26c-5.35,0-10.16,2.24-13.58,5.82-.46.49-.91,1.01-1.32,1.54l14.89,14.88,14.89-14.9c-.37-.52-.82-1.05-1.29-1.52-3.41-3.58-8.23-5.82-13.58-5.82ZM295.55,301.59l-6.84-6.84c-.65.82-1.02,1.85-1.02,2.99-.01,2.69,2.17,4.87,4.87,4.87,1.12,0,2.16-.37,2.99-1.02ZM314.93,297.76c0,3.81-3.09,6.89-6.9,6.89-1.68,0-3.22-.6-4.43-1.61l-3.32,3.32-3.32-3.32c-1.21,1.01-2.73,1.61-4.43,1.61-3.81,0-6.9-3.09-6.9-6.89,0-1.68.6-3.22,1.61-4.42l-1.55-1.55-1.48-1.48c-1.72,2.84-2.72,6.16-2.72,9.72,0,10.37,8.41,18.76,18.77,18.76s18.77-8.4,18.77-18.76c.03-3.58-.96-6.89-2.69-9.72l-3.03,3.03c1.01,1.21,1.61,2.73,1.61,4.42ZM172.7,240.37h-55.69v119.38h15.36v-63.82c0-22.21,18.02-40.22,40.26-40.22s40.26,18.01,40.26,40.22v63.82h15.23v-64.02c0-30.58-24.81-55.36-55.41-55.36ZM0,300.01h0c0,32.99,26.78,59.73,59.8,59.7h.64s42.34,0,42.34,0v-67.55h-57.71v15.01h41.32v37.1h-25.44c-7.85,0-15.11-1.96-21.77-5.89-6.66-3.92-11.92-9.24-15.79-15.95-3.87-6.71-5.8-14.75-5.8-22.71s1.93-15.32,5.8-22.09c3.87-6.76,9.13-12.11,15.79-16.03,6.66-3.92,13.92-5.89,21.77-5.89h41.83v-15.41h-43.02c-33,0-59.75,26.73-59.75,59.7ZM352.54,269.62c5.48,9.22,8.22,19.27,8.22,30.14s-2.74,20.92-8.22,30.14c-5.48,9.22-12.87,16.55-22.16,21.98-9.3,5.43-19.42,8.15-30.38,8.15s-20.67-2.72-30.13-8.15c-9.46-5.43-16.86-12.76-22.16-21.98-5.32-9.22-7.97-19.27-7.97-30.14s2.65-20.91,7.97-30.14c5.31-9.22,12.7-16.47,22.16-21.74,9.46-5.26,19.5-7.9,30.13-7.9s21.08,2.64,30.38,7.9c9.29,5.27,16.68,12.52,22.16,21.74ZM321.03,300.02c0-11.49-9.31-20.8-20.79-20.8s-20.79,9.31-20.79,20.8,9.31,20.8,20.79,20.8,20.79-9.31,20.79-20.8ZM452.06,240.33h64.17v119.38h-64.17v-119.38ZM463.41,276.34c0,11.45,9.28,20.73,20.73,20.73s20.73-9.28,20.73-20.73-9.28-20.73-20.73-20.73-20.73,9.28-20.73,20.73ZM551.75,260.75c3.7-3.35,8.45-5.03,14.26-5.03h33.99v-15.41h-36.86c-18.5,0-33.5,14.99-33.5,33.47v.13l.21,33.26h33.61c6.26,0,11.35,1.62,15.28,5.03,3.93,3.41,5.89,7.85,5.89,13.31s-1.96,9.95-5.89,13.48c-3.93,3.53-9.02,5.29-15.28,5.29h-36.72v15.44h39.12c18.86,0,34.15-15.27,34.15-34.12h0v-33.2h-33.99c-5.8,0-10.56-1.68-14.26-5.03-3.7-3.35-5.55-7.82-5.55-13.39s1.85-9.86,5.55-13.22ZM370.32,273.78v.13l.02,3.6c.1,16.41,13.45,29.66,29.87,29.66l5.11-.09c6.26,0,11.35,1.71,15.28,5.12,3.93,3.41,5.89,7.85,5.89,13.31s-1.96,9.95-5.89,13.48c-3.93,3.53-9.02,5.29-15.28,5.29h-40.25v15.44h76.79v-67.32h-35.17c-5.8,0-10.56-1.68-14.25-5.03-3.7-3.35-5.55-7.82-5.55-13.39s1.85-9.86,5.55-13.22c3.7-3.35,8.45-5.03,14.25-5.03h35.17v-15.41h-38.04c-18.5,0-33.5,14.99-33.5,33.47Z"/>
</svg>