<?xml version="1.0" encoding="UTF-8"?>
<svg id="Capa_1" data-name="Capa 1" xmlns="http://www.w3.org/2000/svg" viewBox="0 0 600 600">
  <defs>
    <style>
      .cls-1 {
        fill: #00ec97;
      }
    </style>
  </defs>
  <rect class="cls-1" width="600" height="600"/>
  <path d="M429.68,135.21c-12.21,0-23.54,6.33-29.93,16.73l-68.89,102.28c-2.24,3.37-1.33,7.92,2.04,10.16,2.73,1.82,6.35,1.6,8.84-.54l67.81-58.82c1.13-1.01,2.86-.91,3.88.22.46.52.7,1.18.7,1.87v184.15c0,1.52-1.23,2.74-2.75,2.74-.82,0-1.59-.36-2.1-.99l-204.99-245.37c-6.68-7.88-16.48-12.42-26.8-12.43h-7.16c-19.39,0-35.11,15.72-35.11,35.11v259.36c0,19.39,15.72,35.11,35.11,35.11,12.21,0,23.54-6.33,29.93-16.73l68.89-102.28c2.24-3.37,1.33-7.92-2.04-10.16-2.73-1.82-6.35-1.6-8.84.54l-67.81,58.82c-1.13,1.01-2.86.91-3.88-.22-.46-.52-.7-1.18-.7-1.87v-184.2c0-1.52,1.23-2.74,2.75-2.74.81,0,1.59.36,2.1.99l204.96,245.42c6.68,7.88,16.48,12.42,26.8,12.43h7.16c19.39,0,35.12-15.7,35.14-35.09V170.32c0-19.39-15.72-35.11-35.11-35.11h0Z"/>
</svg>