<?xml version="1.0" encoding="UTF-8"?>
<svg id="Capa_1" data-name="Capa 1" xmlns="http://www.w3.org/2000/svg" viewBox="0 0 600 600">
  <defs>
    <style>
      .cls-1 {
        fill: #fff;
      }

      .cls-2 {
        fill: #162f29;
      }
    </style>
  </defs>
  <path class="cls-2" d="M300,0h0c165.69,0,300,134.31,300,300h0c0,165.69-134.31,300-300,300h0C134.31,600,0,465.69,0,300h0C0,134.31,134.31,0,300,0Z"/>
  <path class="cls-1" d="M529.69,301.23c0,2.33-.03,4.66-.1,6.99h-111.72v-5.09h-107.52c0-1.07.03-2.13.03-3.16s0-2.13-.03-3.16h107.52v-5.06h111.62c.13,3.16.2,6.32.2,9.48ZM308.45,278.31l105.23-12.94.63,5.06,111.12-13.68c-1.06-5.45-2.33-10.84-3.76-16.13l-109.39,13.47.63,5.05-105.73,13.01c.47,2.06.9,4.13,1.26,6.22v-.07ZM302.96,257.95l100.57-25.12,1.23,4.92,106.73-26.65c-2.2-5.16-4.56-10.25-7.09-15.2l-103.6,25.88,1.23,4.92-101.4,25.35c.83,1.96,1.6,3.92,2.33,5.92v-.03ZM294.04,238.89l94.02-35.5,1.8,4.76,99.47-37.56c-3.23-4.72-6.62-9.32-10.21-13.77l-95.08,35.9,1.79,4.76-95.15,35.93c1.16,1.8,2.29,3.63,3.36,5.49ZM281.7,221.25l83.04-43.28,2.33,4.52,91.82-47.87c-4.23-4.09-8.62-7.98-13.14-11.74l-86.3,44.98,2.33,4.52-84.44,44.01c1.46,1.6,2.93,3.19,4.32,4.86h.03ZM261.67,202.22l75.19-47.81,2.73,4.29,82.97-52.76c-5.22-3.33-10.55-6.42-16.04-9.32l-75.75,48.17,2.73,4.29-77.35,49.17c1.9,1.26,3.72,2.59,5.56,3.96h-.03ZM243.91,191.11l63.01-51.67,3.23,3.93,70.96-58.22c-6.02-2.3-12.21-4.36-18.47-6.15l-62.95,51.63,3.23,3.93-65.31,53.56c2.13.93,4.23,1.93,6.29,2.99ZM220.39,181.96l49.77-49.54,3.56,3.59,63.25-62.84c-6.86-1.13-13.81-1.96-20.86-2.49l-53.93,53.66,3.56,3.59-52.56,52.3c2.43.5,4.82,1.06,7.22,1.73ZM192.87,177.8l39.69-48.11,3.93,3.23,51.67-62.61c-7.85.37-15.6,1.13-23.22,2.26l-41.15,49.87,3.93,3.23-42.98,52.1c1.2-.03,2.43-.07,3.63-.07,1.53,0,3.03,0,4.52.07v.03ZM169.09,179.23l30.57-47.31,4.26,2.76,36.96-57.22c-8.45,2.2-16.7,4.86-24.75,7.95l-26.02,40.29,4.26,2.76-33.87,52.43c2.83-.67,5.69-1.23,8.58-1.7v.03ZM142.67,186.59l21.99-41.22,4.46,2.4,29.11-54.53c-9.35,4.56-18.33,9.71-26.91,15.44l-16.73,31.34,4.49,2.4-25.88,48.51c3.06-1.56,6.22-2.99,9.45-4.29l.03-.03ZM123.71,196.27l9.35-26.55,4.79,1.7,18.16-51.57c-9.22,7.32-17.87,15.3-25.88,23.92l-7.82,22.19,4.79,1.7-12.24,34.73c2.86-2.16,5.79-4.19,8.82-6.09l.03-.03ZM100.39,215.26l4.13-19.3,4.96,1.06,8.32-38.86c-8.75,11.11-16.5,23.06-23.12,35.66l3.69.8-7.59,31.94c2.96-3.96,6.19-7.75,9.61-11.31ZM83.25,237.82v-25.55c-6.19,16.34-10.58,36.66-12.94,56.59,2.89-11.04,7.29-21.46,12.94-31.04ZM70.48,331.74c2.43,17,6.69,33.4,12.61,49v-18.86c-5.46-9.31-9.75-19.43-12.61-30.14ZM91.57,374.49l6.62,30.88-3.69.8c6.62,12.64,14.37,24.55,23.12,35.66l-8.32-38.86-4.96,1.07-4.19-19.53c-3.03-3.19-5.92-6.52-8.58-10.05v.03ZM114.63,397.44l12.31,34.93-4.79,1.69,7.82,22.19c8.02,8.62,16.67,16.6,25.88,23.92l-18.16-51.56-4.79,1.69-9.38-26.68c-3.03-1.93-5.99-3.96-8.85-6.12l-.03-.07ZM132.99,408.99l25.95,48.64-4.49,2.4,16.73,31.34c8.58,5.72,17.57,10.88,26.91,15.43l-29.11-54.53-4.49,2.4-22.06-41.32c-3.23-1.3-6.39-2.76-9.48-4.33l.03-.03ZM160.3,419.03l33.9,52.5-4.26,2.76,26.02,40.29c8.05,3.1,16.3,5.76,24.75,7.95l-36.96-57.22-4.26,2.76-30.61-47.37c-2.89-.47-5.79-1.03-8.62-1.7l.03.03ZM184.52,422.23l42.98,52.1-3.93,3.23,41.15,49.87c7.62,1.13,15.37,1.9,23.22,2.26l-51.67-62.64-3.93,3.23-39.69-48.11c-1.43.07-2.89.07-4.36.07-1.26,0-2.56,0-3.83-.07l.03.07ZM213.04,419.77l52.53,52.27-3.56,3.59,53.93,53.66c7.05-.53,14.01-1.36,20.86-2.5l-63.21-62.88-3.59,3.63-49.74-49.51c-2.36.63-4.79,1.23-7.22,1.73ZM237.52,411.95l65.24,53.53-3.23,3.92,62.94,51.63c6.25-1.8,12.44-3.86,18.47-6.15l-71-58.22-3.23,3.93-62.94-51.63c-2.06,1.06-4.16,2.06-6.29,2.99h.03ZM256.02,401.77l77.25,49.14-2.73,4.29,75.75,48.18c5.49-2.9,10.85-6.02,16.04-9.31l-82.97-52.77-2.73,4.29-75.09-47.74c-1.83,1.37-3.66,2.7-5.56,3.96l.03-.03ZM277.31,383.67l84.34,43.95-2.33,4.52,86.3,44.98c4.53-3.76,8.92-7.65,13.14-11.74l-91.82-47.87-2.33,4.52-82.94-43.22c-1.4,1.67-2.83,3.3-4.32,4.86h-.03ZM290.65,366.64l95.01,35.9-1.8,4.76,95.08,35.89c3.56-4.46,6.95-9.05,10.21-13.77l-99.47-37.56-1.8,4.76-93.88-35.47c-1.07,1.86-2.2,3.69-3.36,5.49ZM300.6,348.01l101.23,25.28-1.23,4.93,103.6,25.88c2.56-4.96,4.93-10.05,7.12-15.2l-106.73-26.65-1.23,4.93-100.44-25.08c-.73,2-1.53,3.96-2.33,5.92ZM307.19,327.91l105.56,12.98-.63,5.06,109.39,13.47c1.43-5.32,2.7-10.71,3.76-16.13l-111.12-13.67-.63,5.06-105.06-12.94c-.36,2.09-.8,4.16-1.26,6.22v-.03Z"/>
</svg>