<?xml version="1.0" encoding="UTF-8"?>
<svg id="Capa_1" data-name="Capa 1" xmlns="http://www.w3.org/2000/svg" viewBox="0 0 600 600">
  <defs>
    <style>
      .cls-1 {
        fill: #000001;
      }

      .cls-2 {
        fill: #050506;
      }

      .cls-3 {
        fill: #010101;
      }

      .cls-4 {
        fill: #0b0b0c;
      }

      .cls-5 {
        fill: #010102;
      }

      .cls-6 {
        fill: #8f8f8f;
      }

      .cls-7 {
        fill: #020202;
      }

      .cls-8 {
        fill: #050505;
      }

      .cls-9 {
        fill: #060606;
      }

      .cls-10 {
        fill: #030304;
      }

      .cls-11 {
        fill: #909090;
      }

      .cls-12 {
        fill: #030303;
      }

      .cls-13 {
        fill: #6d6d6d;
      }

      .cls-14 {
        fill: #0e0e0e;
      }

      .cls-15 {
        fill: #919191;
      }

      .cls-16 {
        fill: #070708;
      }

      .cls-17 {
        fill: #111112;
      }

      .cls-18 {
        fill: #040404;
      }

      .cls-19 {
        fill: #070707;
      }

      .cls-20 {
        fill: #020203;
      }
    </style>
  </defs>
  <g>
    <g>
      <path class="cls-17" d="M135.41,74.65c3.75.88,8.3.86,12.05,0,.37,0,1.6-.21,1.88.24l.14,27.96c-10.79-.43-20.96-.55-30.92,3.09-22.26,8.13-36.63,27.19-40.42,49.9-.82,24.82-.81,50.66.05,75.41,0,1.24.35,4.16-1.1,4.7-.7,1.36-.67,2.8.09,4.34-1.71,5.84-2.67,11.99-5.3,17.78-6.15,13.57-14.78,24.63-26.75,33.52-.49.36-1.96.71-1.96,1.34,0,.46.62,1.11.89,1.56l3.01,2.12c.65-.53,1.57.51,2.01.9,3.65,4.27,7.56,8.34,11.74,12.18-.06.25.22.7.09.91.81,1.21,1.88,2.2,3.23,2.97.41,1.47.98,2.83,2.01,4.02l2.86,4.17c3.76,7.59,6.38,15.61,8.06,23.94-.44,1.46-.89,2.98.03,4.33,1.17.27,1.04,2.7,1.1,3.7-.59,28.28-.77,56.67-.53,85.18l.7,1.15c1.18,2.46.6,5.35,1.51,8.27,1.88,6,4.17,11.44,6.35,16.82,1.47,3.2,3.48,5.87,6.02,8.03.62.72.66,1.08.89,2.01,2.41,3.02,5.11,5.77,8.1,8.25.25.1.63.1.9.09l3.16,2.89c1.14.79,2.65,1.43,4.02,1.82,1.93,2.1,4.14,3.74,7.03,4.23,2.55,1.75,6.12,2.34,9.03,2.8,1.02.67,1.82.98,3.01,1,.62-.03,1.26.21,1.87.14,1.49,1.17,3.29,1.5,5.16.86l5.02,1,1.26.84c.05,8.14.3,16.23.75,24.25,0,1.01-.43,2.06-2.06,2.05l-7.98-.04c-.84-1.29-2.18-1.62-4.02-1-14.27-1.96-27.69-7.36-39.15-16.06-1.81-1.98-3.84-3.72-6.1-5.25-1.27-.12-2.01-1.13-2.93-1.78-1.71-2.24-3.66-4.48-6.02-6.02l-.8-2.01c-1.13-1.65-2.55-3.01-4.22-4.13-1.19-1.56-1.95-3.16-2.79-4.9-.34-1.6-1.31-2.99-2.92-4.16l-.09-.9c-1.34-3.44-3.08-6.43-5.24-8.99-.14-.24.07-.71,0-1-.07-1.82-.58-2.84-2.01-4.02-.64-2.35-1.39-4.65-1.88-7.03.23-1.42.19-2.1-.81-3.17.12-.24-.14-.63-.09-.89.09-1.71-.28-3.08-1.1-4.1.07-.61-.17-1.26-.13-1.88.39-2.07.11-3.79-.85-5.16.1-1.27-.17-2.6-.16-3.87.34-28.01.36-56.14.08-84.38l-.96-1.95-.12-2.01c.24-1.67.05-2.68-1-4.02-.65-3.11-1.98-6.01-2.9-9.03-.02-1.94-1.06-3.61-3.12-5.02-.11-1.52-2.06-2.41-2.01-4.02-.58-1.45-1.71-2.18-3.01-3.01-1.74-2.28-3.63-4.42-6.02-6.02-.67-1.24-1.67-2.24-3.01-3.01-6.16-3.08-18.03-9.54-25.7-9.36-1.14-.18-1.86-.77-2.08-1.85-.07-.28.01-.61-.08-.88,1.41-7.87,1.49-15.81.25-23.81,1.19-1.04,2.7-1.75,4.53-2.12l2.01-.12c1.25.35,2.3.12,3.17-.69.29.04.6-.1.89-.08,1.93-.03,3.68-.63,5.15-1.92.26-.02.65-.17.88-.08,2.66-.72,5.27-1.81,7.15-3.93.21-.06.66-.11.88-.08,2.18-.83,3.71-2.32,4.97-4.26.48-.26,1.47-.82,2.01-.81,2.12-1.6,3.98-3.49,5.56-5.66-.09-.31-.61-.76-.32-1.07.26-.28.63-.36.79-.49,1.68-1,2.98-2.37,4.02-4.02,0-.6.04-1.27.14-1.86,2.15-2.05,3.47-4.44,3.97-7.17,1.18-1.96,1.65-4.92,1.91-7.03.98-1.35,1.32-2.34,1-4.02-.12-.62.33-1.4.13-2.01.89-3.11,1.32-6.35,1.3-9.71.31-22.67.17-45.2-.42-67.59,0-.99.21-2.03.11-3.01.87-1.68,1.3-3.11.9-5.02.12-.47.19-1.36.13-1.87.85-1.12,1.01-2.19,1.12-4.09l.08-.87,3.92-11.18c-.05-.24,0-.66.09-.89,2.2-3.56,4.18-7.28,5.94-11.15,0-.29,0-.62.09-.89l3.92-5.14c-.04-.29.11-.6.09-.9l2.93-3.11c.32-.28.54-.68.88-.94,3.53-4.1,7.18-8.15,10.94-12.15.56-.39,1.45-.36,2.01-.79l3.24-2.22c.25-2.02,2.7-1.78,3.79-2.79,1.81-.25,3.1-1.79,4.14-3.23,2.95-1.34,5.61-3.52,8.91-3.89,1.68-.04,3.05-.73,4.17-1.98,1.18-.48,2.77-.45,3.87-1.04,4.19-.55,8.21-1.59,12.05-3.12.33-.05.67.03,1,0,2.51.39,4.74.27,7.03-.88.97.15,2.03-.12,3.01-.12Z"/>
      <path d="M51.09,439.04c.09-8.73.1-17.4-.48-26.63-1.26-20.06.73-39.97-.41-59.7.57.19,1.88.83,1.88,2.15v83.05c.01.79-.63,1.24-.99,1.13Z"/>
      <path d="M78.19,361.75c.87,24.72.86,50.58,0,75.29,0,.85-.2,2.24.17,3.01-.42.17-1.18-.24-1.18-1.1v-84.1c0-.79.64-1.24,1.01-1.13.12,2.14,0,5.77,0,8.03Z"/>
      <path d="M50.21,233.25c-1.07-3.25.74-6.53.74-10.14l.13-67.15c.36-.12,1.01.34,1.01,1.12l-.02,74.04c0,1.3-1.3,1.96-1.87,2.14Z"/>
      <path class="cls-15" d="M78.19,437.03v-75.29c.37-.12,1,.34,1,1.11v73.06c0,.77-.64,1.23-1,1.11Z"/>
      <path d="M78.19,158.97c.87,21.74.86,44.52,0,66.25v6.02c-.38.12-.99-.34-.99-1.11l-.07-71.2c0-1.53.51-2.4,1.01-3.1l.05,3.13Z"/>
      <path class="cls-6" d="M78.19,225.22v-66.25c.37-.12,1,.35,1,1.1v64.05c0,.75-.64,1.22-1,1.1Z"/>
      <path class="cls-3" d="M5.92,278.54c-.47,1.43-1.95,1.66-4.24,2.24,1.5,2.32,2.35,23.63-.53,23.69-1.21-3.5.67-7.11.61-10.98-.07-4.77-2.35-9.85-.09-14.35.66-1.32,3.23-.54,4.26-.6Z"/>
      <path class="cls-18" d="M142.44,523.37c-.78.07-1.03-.92-1.03-1.96l.05-19.19c0-1.65-.37-2.96-1.03-3.95.51.1,2.01-.34,2.01.95v24.15Z"/>
      <path d="M60.82,309.68c-.06,1.51-13.94-12.14-11.74-12.18,3.17,2.79,9.65,8.06,11.74,12.18Z"/>
      <path d="M71.27,106.88c-1.75-1.32,10.06-11.54,10.94-12.15,1.75.86-10.55,11.85-10.94,12.15Z"/>
      <path class="cls-3" d="M53.43,141.09c.35-3.8,1.42-8.27,3.92-11.18.46,2.18-2.97,13.35-3.92,11.18Z"/>
      <path class="cls-5" d="M57.43,129.01c1.47-3.85,2.96-8.29,5.94-11.15-.01,2.27-4.68,12.19-5.94,11.15Z"/>
      <path d="M101.24,483.43c-3.26-1.31-7.21-4.77-8.1-8.25,3.12,2.18,6.17,4.96,8.1,8.25Z"/>
      <path class="cls-3" d="M124.37,75.65c3.56.99-15.54,5.11-12.05,3.12,3.69-1.98,7.92-2.47,12.05-3.12Z"/>
      <path class="cls-3" d="M92.25,473.17c-4.11.52-7.11-10.73-6.02-8.03,2.89,1.88,3.84,5.48,6.02,8.03Z"/>
      <path class="cls-7" d="M63.36,479.15c-2.84-2.18-3.35-6.07-5.24-8.99,2.01-.94,4.98,6.4,5.24,8.99Z"/>
      <path class="cls-7" d="M116.34,492.46c-2.57,1.16-6.88-1.28-7.03-4.23,2.76.78,4.85,2.74,7.03,4.23Z"/>
      <path class="cls-3" d="M43.2,253.48c.49-2.85,2.59-4.89,3.97-7.17,1.51,2.41-1.23,6.7-3.97,7.17Z"/>
      <path d="M147.46,74.65c2.62,1.48-14.66,1.48-12.05,0h12.05Z"/>
      <path class="cls-8" d="M80.2,501.28c-2.32-1.63-4.98-3.4-6.02-6.02.49.07,1.14-1.12,1.51-.88-1.66-1.08,6.19,6.83,4.51,6.9Z"/>
      <path class="cls-5" d="M18.01,275.66c1.81-1.97,4.86-2.69,7.15-3.93-.72,2.68-4.54,4.97-7.15,3.93Z"/>
      <path class="cls-8" d="M89.24,508.31c-2.13-1.61-5.28-2.25-6.1-5.25,2.5.23,5.81,2.63,6.1,5.25Z"/>
      <path d="M132.4,74.77c-1.14,2.65-5.01,2.62-7.03.88,2.29-.73,4.63-1.25,7.03-.88Z"/>
      <path class="cls-1" d="M38.58,260.91c-.05,2.38-3.45,5.71-5.56,5.66,1.36-2.17,3.18-4.74,5.56-5.66Z"/>
      <path class="cls-3" d="M46.18,337.65c-.5-1.63-2.97-2.96-3.12-5.02,1.16-.06,2.24.35,2.88,1.58.46.88,1.96,2.76.24,3.44Z"/>
      <path class="cls-7" d="M63.45,116.97c.62-2.09,1.8-4.34,3.92-5.14.3,2.12-1.84,4.69-3.92,5.14Z"/>
      <path class="cls-7" d="M26.05,271.65c1.02-1.5,3.55-3.49,4.97-4.26-.06,2.41-2.66,5-4.97,4.26Z"/>
      <path class="cls-20" d="M52.09,448.08c-1.11-1.53-.99-3.37-.85-5.16,1.33-.49,1.95.78,1.93,1.68-.03,1.36.32,3.13-1.08,3.48Z"/>
      <path class="cls-7" d="M11.99,277.66c1.5-1.12,3.29-1.74,5.15-1.92.06,1.28-1.06,1.84-2.17,2.29-.97.39-2.15.55-2.97-.38Z"/>
      <path class="cls-7" d="M51.2,152.95c-.19-1.76-.08-3.51.9-5.02,1.2.07,1.07,1.54,1.05,2.47-.03,1.13-.75,2.22-1.94,2.55Z"/>
      <path class="cls-7" d="M135.41,497.27c-.16,1.24-1.65.98-2.51,1.09-1.38.18-3.14-.24-2.65-1.96,1.8-.22,3.44.52,5.16.86Z"/>
      <path class="cls-3" d="M73.38,493.25c-2.16-.57-3.01-2.55-4.22-4.13,1.96.31,4.83,2.01,4.22,4.13Z"/>
      <path class="cls-5" d="M132.4,525.37c-1.34,0-2.69-.82-4.02-1,1.29-1.74,4.26-1.21,6.06-.58-1.13.89-1.85.85-2.04,1.58Z"/>
      <path class="cls-2" d="M52.23,146.05c-.15-1.48-.07-3.05,1.12-4.09.72.69.83,1.7.85,2.43.03,1.28-.83,2.12-1.97,1.67Z"/>
      <path d="M69.01,321.75c-1.7-.4-3.84-2.42-2.86-4.17,1.99.53,2.1,2.63,2.86,4.17Z"/>
      <path class="cls-9" d="M39.04,259.35c.87-1.58,2.33-3.21,4.02-4.02-.03,2.24-1.77,4-4.02,4.02Z"/>
      <path class="cls-12" d="M53.33,454.05c-1.15-1.06-1.27-2.62-1.1-4.1,1.18-.44,2.02.42,1.98,1.67-.03.79-.17,1.78-.87,2.43Z"/>
      <path class="cls-3" d="M58.12,469.16c-1.04-1.05-1.62-2.58-2.01-4.02.97-.13,1.71.29,2.29,1.24.53.86.87,2.04-.29,2.77Z"/>
      <path class="cls-3" d="M66.37,484.22c-.69-1.43-2.72-2.17-2.92-4.16,1.71.12,4.25,2.63,2.92,4.16Z"/>
      <path class="cls-3" d="M104.29,81.8c1.02-1.36,2.73-1.4,4.17-1.98.05.94-.48,1.64-1.37,2.1-.79.41-2.45,1.44-2.79-.12Z"/>
      <path class="cls-7" d="M91.24,88.92c1.34-1.24,2.41-2.45,4.14-3.23.14.98-.56,2.27-1.63,2.77-.72.33-1.87,1.93-2.51.46Z"/>
      <path class="cls-10" d="M41.05,328.62c-1.54-.45-2.14-1.87-3.01-3.01,1.55.1,4.52,1.32,3.01,3.01Z"/>
      <path d="M50.09,350.7c-.99-1.15-.72-2.67-1-4.02.87.23,1.63.8,1.92,1.71s-.15,1.76-.92,2.31Z"/>
      <path class="cls-3" d="M64.14,313.56c-1.5-.13-4.37-1.2-3.23-2.97,1.35.49,2.82,1.49,3.23,2.97Z"/>
      <path d="M49.08,239.28c.18-1.39.08-2.84,1-4.02.76.54,1.19,1.41.92,2.3s-1.05,1.48-1.92,1.71Z"/>
      <path class="cls-1" d="M105.3,486.41c-1.7.77-2.85-1.29-3.16-2.89,1.69-.09,2.59,1.48,3.16,2.89Z"/>
      <path class="cls-3" d="M67.46,110.93c-.13-1.69,1.52-2.56,2.93-3.11,1.4.49.09,1.19-.28,1.59-.89.97-1.74,1.44-2.65,1.52Z"/>
      <path class="cls-20" d="M87.45,91.71c1.56.67-.62,1.25-1.18,1.69s-1.33,1.12-2.05.53c.17-1.6,1.76-2.2,3.24-2.22Z"/>
      <path class="cls-3" d="M32.02,319.59c-1.21-.81-2.52-1.52-3.01-3.01,1.15.57,3.31-.05,3.01,3.01Z"/>
      <path class="cls-3" d="M54.22,458.12c-.21-1.02-1.41-1.93-.81-3.17.69-.4,1.53.18,1.64.71.22,1.05.37,2.47-.83,2.46Z"/>
      <path class="cls-3" d="M3.3,307.21c-.61.01-1.96.86-2.39-.18-.19-.47.3-1.29.31-1.67.56.01,1.11.01,2.1.17.66.11.64,1.02-.03,1.69Z"/>
      <path d="M128.38,496.26c-.3.53-.87,1.01-1.37.86-.98-.29-1.42-1.11-1.64-1.86,1.05.17,2.63-.39,3.01,1Z"/>
      <path d="M47.07,296.6c-1.43,1.17-2.32-.94-3.01-2.12,1.41-.08,2.73.68,3.01,2.12Z"/>
      <path class="cls-7" d="M77.09,235.94c-.22,1.36.49,3,.09,4.34-1.55-.97-1.75-3.73-.09-4.34Z"/>
      <path class="cls-7" d="M77.09,350.02c-1.8-.42-1.28-3.33-.03-4.33.28,1.41,0,2.91.03,4.33Z"/>
      <path class="cls-3" d="M11.1,277.74c.41.71-.14,1.44-.8,1.66-.91.29-1.87-.21-2.37-.97.91-.7,2.06-.85,3.17-.69Z"/>
    </g>
    <g>
      <path class="cls-17" d="M293.02,309.55h17.07c1.68,1.12,3.03,1.27,5.02,1h1c1.38.93,2.32,1.35,4.02,1,.33.03.68-.05,1,0,1.64,1.36,3.63,2.11,5.97,2.26l.87.08c1.22,1.04,2.6,1.83,4.2,1.87.67.7,2.14.64,3.01.81,1.36,1.75,3.04,2.76,5.02,3.01,3.1,1.54,5.66,3.95,8.9,5.15l3.15,3.09,2.01.79,10.12,10.25c.77.44,2.24,1.21,2.93,1.79,3.9,4.74,8.48,9.21,13.13,13.29,1.44.45,2.81,1.85,3.93,2.77,3.68,4.43,7.73,8.52,12.13,12.28,1.45.46,2.8,1.85,3.93,2.78,3.68,4.43,7.72,8.52,12.13,12.26.9.27,2.13,1.26,2.93,1.79,3.11,3.64,7.56,8.81,10.13,10.28,1.89,2.17,4.75,3.88,6.94,5.78,2.74,3.79,6.41,7.08,10.04,10.04.37.52-.07.88-1.77.88l-37.3.04c-4.91-4.29-9.62-8.68-14.14-13.16-1.18-.47-2.14-1.94-3.01-2.81-5.07-4.7-10.11-9.45-15.14-14.26-2.86-1.3-3.83-2.71-5.94-4.82-3.22-4.14-6.93-7.84-11.12-11.1-.95-.14-1.24-.36-1.93-.94-4.37-5.55-9.42-10.59-15.14-15.12-.91-.2-1.23-.45-1.93-.94-.71-1.38-1.72-2.42-3.01-3.11-1.45.88-2.7-1.78-3.78-1.91-1.52-2.02-3.27-3.03-5.25-3.01-8.74-3.64-17.73-6.62-27.1-5.02-1.85-.65-3.85-.66-5.15.88-11.18,1.91-20.65,7.11-29.03,15.03l-12.96,12.26c-3.86,3.65-7.6,6.89-11.21,10.79-2.09,2.26-4.7,4.11-6.95,6.22l-16.58,15.5-16.01,15.25c-13.4.67-26.38.29-39.31.14l-.65-.74,4.33-5.07c1.18-.78,3.07-1.64,3.93-2.78,3.15-2.3,7.93-7.32,11.13-11.27,1.16-.91,2.46-2.35,3.93-2.8,4.66-4.06,9.26-8.51,13.13-13.27,1.14-.96,3.01-1.59,3.93-2.78,3.13-2.26,8.62-7.99,12.13-12.27.69-.55,2.09-1.55,2.93-1.8,4.63-4.09,9.32-8.47,13.13-13.26,1.8-1.59,4.42-2.96,5.94-4.79,2.87-1.78,7.12-6.74,10.12-10.27.93-.65,2.06-1.03,2.93-1.78l4.19-3.2c1.84-1.95,4.33-4.42,6.93-5.06,1.86-.39,3.14-1.41,4.15-3.01,1.52-.9,3.09-1.75,4.88-1.88,1.73.03,2.96-.81,4.16-1.99,2.2-.51,4.64-1.93,6.88-2.05,1.19-.13,1.97-.52,3.01-1.1h1c1.28.12,2.33-.17,3.15-.86l1.87-.14c1.5-.03,2.64-.21,4.02-.87,1.01.02,2.01-.03,3.01-.13Z"/>
      <path class="cls-17" d="M202.64,192.19c.27-.1.63.09.91.03l14.18,14.13c.57.21,1.56.42,2.01.8,4.01,4.73,8.36,9.15,13.05,13.26,1.25.38,2.05.99,3.01,1.8,3.85,4.86,8.45,9.02,13.05,13.16,1.52.45,1.83.91,3.01,1.9,3.49,4.47,7.71,8.38,12.05,12.05.3.07.72-.12,1,0,1.07,1.62,2.32,3.02,4.02,4.02h1c.97,1.65,2.14,2.64,4.02,3.01,1.49,1.05,3.38,1.39,5.02,2.01,1.79,1.96,5.38,3.04,8.03,3.01h1c1.54,1.05,3.15,1.76,5.02,1,.6.13,1.39.16,2.01.13,3.35,1.09,6.74,1.51,10.04.02,1,.07,2.01-.13,3.01-.14,1.7.31,2.64-.05,4.02-1h1c2.65.02,6.24-1.05,8.03-3.01,1.52-.57,3.29-2.16,5.02-1.89,1.82-.56,3.01-1.5,4.02-3.13.24-.13.74.04,1,0,1.26-.56,2.26-1.57,3.01-3.01.64-.24,1.34-.68,2.01-.81,3.7-3.07,7.05-6.49,10.04-10.24,1.41-1.2,2.8-3.34,4.93-3.79,3.76-3.06,7.13-6.48,10.12-10.26,1.35-1.17,1.92-2.25,3.93-2.79,4.4-3.74,8.45-7.83,12.13-12.27,1.48-1.23,3.74-2.27,4.93-3.79,2.56-1.52,6.44-6.03,9.12-9.26,1.1-.75,2.75-2.33,3.93-2.78,2.42-2.31,4.93-4.48,7.52-6.52,12.58-.26,25.14-.24,37.7.07.5.49.18,1.23-.98,2.21,6.57-4.78-30.83,29.62-29.71,28.56l-16.48,15.57-16.6,15.55-15.03,14.12c-6.27,5.9-12.2,11.17-19.83,15.34-17.99,9.84-37.97,14.05-58.16,9.51-8.55-1.92-16.51-4.21-23.78-8.3-1.04-1.45-2.49-2.45-4.12-3.11-1.45-.36-2.5-1.54-3.89-2.03-.85-1.34-1.9-2.3-3.14-2.89h-1c-1.76-2.31-3.63-4.55-6.02-6.22-1.2-.07-2.17-1.1-3.01-1.81-4-4.73-8.35-9.15-13.05-13.25-2-.56-2.65-1.61-4.02-2.81-3.66-4.4-7.67-8.48-12.05-12.24-2-.57-2.65-1.61-4.02-2.81-3.66-4.4-7.67-8.48-12.05-12.25-2-.57-2.64-1.62-4.02-2.81-3.17-4.11-7.15-7.91-11.12-11.26-.76-.44-2.25-1.22-2.93-1.79-4.01-4.73-8.36-9.15-13.05-13.26-1.6-.5-3.38-1.17-4.02-2.8-.17-.61-.26-1.11-.08-1.23,1.67-1.16,36.86-.57,40.48.63,1.09,1.51,2.34,2.74,3.73,3.71Z"/>
      <path d="M439.58,190.09c.01-.42.19-1.1-.04-1.46-.29-.44-1.03-.65-1.93-.64l-34.54.4c-3.33,1.79-4.43,5.81-7.74,5.95,1.71-2.2,4.18-6.03,7.11-7.1l41.24-.12-4.09,2.98Z"/>
      <path d="M202.64,192.19c-2.27.87-3.39-3.59-5.25-3.73-12.01-.87-23.72-.23-35.7-.28-1.24,0-2.86.09-3.19.9-1.03.15-1.32-.88-.85-2.06l39.91.24c2.44.01,3.98,3.57,5.08,4.92Z"/>
      <path class="cls-12" d="M352.24,365.76c-5.43-4.59-10.53-9.71-15.14-15.12,4.77,1.03,7.18,6.76,11.69,9.39,2.34,1.36,4.38,3.29,3.45,5.73Z"/>
      <path d="M386.37,396.88c-1.06,1.49-14.57-12.99-15.14-14.26,6.13,2.8,10.31,9.46,15.14,14.26Z"/>
      <path class="cls-7" d="M217.73,206.35c-2.96-1.06-13.57-11.42-14.18-14.13,5.29,3.97,10.1,8.92,14.18,14.13Z"/>
      <path class="cls-3" d="M403.52,412.85c-2.93,0-12.32-10.55-14.14-13.16-2.14-4.45,14.53,13.39,14.14,13.16Z"/>
      <path class="cls-3" d="M181.5,390.07c3.76-4.9,8.41-9.29,13.13-13.27-.11,1.03-.44,2.49-1.67,3.35-4.37,3.08-6.71,8.49-11.47,9.92Z"/>
      <path class="cls-3" d="M175.57,205.15c-4.71-3.96-9.4-8.32-13.05-13.26,2.75.87,13.27,11.01,13.05,13.26Z"/>
      <path class="cls-3" d="M213.63,359.95c3.7-4.99,8.49-9.16,13.13-13.26-.11,1.03-.44,2.49-1.67,3.35-4.37,3.06-6.7,8.5-11.47,9.91Z"/>
      <path d="M380.43,353.96c-4.75-1.48-7.1-6.85-11.47-9.94-1.22-.86-1.56-2.31-1.67-3.35,4.75,3.96,9.39,8.38,13.13,13.29Z"/>
      <path d="M308.07,309.55c1.12,1.52-16.14,1.51-15.06,0,4.88-1.51,10.18-1.51,15.06,0Z"/>
      <path class="cls-3" d="M232.78,220.41c-2.73-.83-13.28-11.04-13.05-13.26,4.71,3.98,9.39,8.3,13.05,13.26Z"/>
      <path d="M248.85,235.37c-2.94-.88-13.11-10.77-13.05-13.16,4.7,3.96,9.3,8.29,13.05,13.16Z"/>
      <path class="cls-20" d="M238.81,264.37c-4.7-3.99-9.39-8.29-13.05-13.25,2.69.75,13.31,11.08,13.05,13.25Z"/>
      <path class="cls-3" d="M198.57,374.02c3.49-4.51,7.67-8.7,12.13-12.27.02,1.2-.63,2.24-1.69,3.29l-9.67,9.6c-.39.39-1.14-.1-.77-.62Z"/>
      <path class="cls-20" d="M221.74,248.31c-4.27-3.75-8.81-7.56-12.05-12.24,2.74.78,12.32,10.12,12.05,12.24Z"/>
      <path class="cls-7" d="M263.9,249.32c-2.98-.65-12.03-9.66-12.05-12.05,4.32,3.62,8.55,7.6,12.05,12.05Z"/>
      <path class="cls-12" d="M205.68,233.25c-4.26-3.75-8.81-7.56-12.05-12.25,2.74.78,12.33,10.13,12.05,12.25Z"/>
      <path class="cls-3" d="M412.56,384.05c-2.98-.91-12.31-10.04-12.13-12.26,4.41,3.62,8.7,7.71,12.13,12.26Z"/>
      <path class="cls-7" d="M365.21,222.44c3.41-4.58,7.74-8.62,12.13-12.27.25,2.12-9.29,11.51-12.13,12.27Z"/>
      <path class="cls-3" d="M396.5,369.01c-2.96-.93-12.32-10.05-12.13-12.28,4.41,3.63,8.71,7.71,12.13,12.28Z"/>
      <path d="M365.29,377.81c-3.65-3.66-8.18-6.73-11.12-11.1,2.95.44,11.32,9.08,11.12,11.1Z"/>
      <path class="cls-3" d="M189.62,218.2c-3.95-3.43-8.12-6.94-11.12-11.26-1.23-3.34,13.79,11.8,11.12,11.26Z"/>
      <path class="cls-3" d="M166.45,404.14c3.16-4.18,7-8.02,11.13-11.27.02,1.19-.63,2.24-1.69,3.29l-8.67,8.6c-.39.38-1.14-.1-.77-.62Z"/>
      <path class="cls-5" d="M364.37,338.87c.94,3.07-12.51-10.53-10.12-10.25,4.24,1.67,7.36,6.38,10.12,10.25Z"/>
      <path class="cls-7" d="M351.15,235.48c2.65-4.01,6.52-7.14,10.12-10.26.34,1.9-7.3,9.66-10.12,10.26Z"/>
      <path d="M232.7,341.9c3.04-3.66,6.17-7.49,10.12-10.27.01,1.19-.63,2.24-1.69,3.29l-7.67,7.6c-.38.38-1.14-.1-.76-.62Z"/>
      <path class="cls-3" d="M425.61,396.12c.38.53-.38.99-.77.61l-7.67-7.6c-1.06-1.05-1.7-2.1-1.69-3.29,4.03,2.7,7.02,6.71,10.13,10.28Z"/>
      <path class="cls-12" d="M336.18,249.51c2.57-4.01,6.44-7.16,10.04-10.24.4,1.84-7.39,9.72-10.04,10.24Z"/>
      <path d="M442.59,411.94c-.59,1.57-11.72-9.45-10.04-10.04,3.55,3.07,7.31,6.19,10.04,10.04Z"/>
      <path class="cls-1" d="M382.27,206.38c2.65-3.35,5.52-6.83,9.12-9.26-.05.88-.31,1.91-1.18,2.77l-7.17,7.12c-.38.37-1.15-.12-.77-.63Z"/>
      <path class="cls-18" d="M305.06,262.51c-2.02,3.24-7.51,2.48-10.04-.02,3.34-.19,6.7-.22,10.04.02Z"/>
      <path class="cls-3" d="M247.84,272.4c-2.42-1.54-4.65-3.69-6.02-6.22,2.82.16,5.37,3.53,6.02,6.22Z"/>
      <path class="cls-7" d="M328.38,344.68c-1.92-.24-3.67-2.35-5.25-3.01-.74-2.85,6.18,1.76,5.92,1.48.31.34-.63,1.04-.67,1.53Z"/>
      <path class="cls-1" d="M286.99,261.36c.57,1.95-10.11-1.4-8.03-3.01l8.03,3.01Z"/>
      <path d="M158.84,412.73c-.57,0-1.23.71-2.42-.15,2.01-2.13,3.81-4.15,6.1-5.66.04,2.67-2.82,3.56-3.68,5.81Z"/>
      <path class="cls-3" d="M313.09,261.36l8.03-3.01c2.08,1.61-8.61,4.96-8.03,3.01Z"/>
      <path class="cls-3" d="M327.09,313.81c-2,.73-6.1.39-5.97-2.26,2.12.34,4.22.98,5.97,2.26Z"/>
      <path d="M315.1,310.55c-.61.77-1.52,1.14-2.45,1.08-1.28-.08-2.3-.85-2.57-2.08,1.74,0,3.53.04,5.02,1Z"/>
      <path class="cls-3" d="M259.99,280.44c-1.53-.86-3.53-1.17-4.12-3.11.5-1.66,1.79-.01,2.49.32,1.2.57,1.73,1.76,1.63,2.79Z"/>
      <path class="cls-20" d="M340.2,319.59c-1.49,1.52-5.05-1.02-5.02-3.01,2.02.39,3.36,2.18,5.02,3.01Z"/>
      <path class="cls-1" d="M290,309.68c-.35.8-.96,1.5-1.75,1.77-.92.3-1.74-.18-2.27-.89.59-1.57,2.68-.94,4.02-.87Z"/>
      <path class="cls-7" d="M332.17,315.77c-.27,1.17-1.54.62-2.11.38-1.02-.42-2.22-1.11-2.09-2.26,1.68.16,3.06.7,4.2,1.87Z"/>
      <path class="cls-7" d="M265.91,316.7c1.09-1.19,2.64-1.63,4.16-1.99.05.94-.48,1.64-1.37,2.11-.79.41-2.44,1.44-2.79-.12Z"/>
      <path class="cls-3" d="M256.88,321.59c1.09-1.38,2.68-2.13,4.15-3.01.13,1.1-.51,2.03-1.68,2.96-.61.49-1.61.61-2.47.05Z"/>
      <path class="cls-3" d="M249.94,326.65c-1.21,1.28-2.16,4.01-4.19,3.2.69-1.82,2.15-3.32,4.19-3.2Z"/>
      <path class="cls-12" d="M296.03,336.65l-5.15.88c-.46-1.34.71-1.98,1.66-1.96,1.35.04,3.13-.33,3.49,1.08Z"/>
      <path class="cls-3" d="M293.02,262.37c-.08,1.21-1.57,1.07-2.48,1.05-1.21-.02-2.26-.83-2.54-2.06,1.73,0,3.35.63,5.02,1Z"/>
      <path class="cls-7" d="M326.14,256.46c1.05-1.36,2.5-2.35,4.02-3.13.11,1.16-.34,1.95-1.53,2.96-.82.7-1.39.35-2.48.17Z"/>
      <path class="cls-7" d="M273.94,256.34c-.85.55-1.86.43-2.48-.05-1.11-.87-1.74-1.92-1.54-2.96,1.45.85,2.91,1.73,4.02,3.01Z"/>
      <path d="M268.92,253.33c-2.24,0-4-1.78-4.02-4.02,1.78.79,3.05,2.36,4.02,4.02Z"/>
      <path d="M335.18,349.7c-1.21-.85-2.58-1.52-3.01-3.11,1.85-1.13,2.83,1.41,3.01,3.11Z"/>
      <path class="cls-3" d="M331.16,253.33c.62-1.29,1.63-2.49,3.01-3.01-.06,1.53-1.45,4.66-3.01,3.01Z"/>
      <path class="cls-3" d="M251.98,275.29c-1.42-.5-2.59-1.44-3.14-2.89,1.51-1.63,2.92,1.41,3.14,2.89Z"/>
      <path class="cls-3" d="M320.12,311.55c-.54.77-1.4,1.22-2.31.92s-1.47-1.06-1.71-1.93c1.41,0,2.82.24,4.02,1Z"/>
      <path d="M284.12,310.69c.35.66,0,1.58-.68,1.85-.88.35-2-.19-2.47-.99.35-1.38,2.08-.78,3.15-.86Z"/>
      <path class="cls-3" d="M352.24,327.83c-1.78.97-2.89-1.57-3.15-3.09,1.49.55,2.72,1.45,3.15,3.09Z"/>
      <path d="M312.09,261.36c-.23.87-.8,1.64-1.71,1.92s-1.76-.16-2.31-.91c1.2-.76,2.6-1,4.02-1Z"/>
      <path d="M279.97,311.55c-.15.58-.5,1.06-1,1.57-.7.72-1.45-.06-2.02-.47.31-1.35,1.9-1.1,3.01-1.1Z"/>
    </g>
  </g>
  <g>
    <path class="cls-17" d="M466.68,74.76c2.62.83,5.29,1.47,8.03.89.31.1.69-.06,1,0,3.83,1.57,7.84,2.64,12.05,3.21,1.27.64,2.48.75,3.87.95,1.17,1.01,2.56,1.7,4.16,2.08.94.43,1.98.64,3.01.79.97,1.25,1.98,2.17,3.01,2.01.77.65,1.93.88,2.87,1.14l4.15,3.07c1.23.77,2.44,1.62,3.87,1.95l3.16,3.07,2.01.8,11.04,11.04.81,2.01c.74,1.21,1.81,2.22,3.2,3.01.05.24.08.77,0,1,.96,2,2.26,3.75,4.02,5.13l2.01,3.91c-.14.64-.24,2.08,1,3.01,1.78.38,1.5,2.19,2.16,3.79,3.88,9.37,6.16,18.66,6.87,28.33-.73,25.1-1.18,51.24.18,76.29,2.41,12.94,3.53,13.77,9.65,25.1l3.15,3.09c.2.65.51,1.26.86,1.84.85,1.51,1.96,2.62,3.31,3.32.32.64,1.7.92,1.82,1.78l3.05,2.26c1.7,1.05,4.15,2.79,6.08,3.76l5.02,2.19c2.23.98,4.57,1.84,7.03,1.82,1.24,1.14,2.35,1.61,4.02,1h1c1.49.41,2.5,1.08,3.01,2.01.59,6.6.72,13.37.39,20.32,1.57,4.44.36,6.65-3.6,6.63-18.15,3.04-33.91,14.72-40.76,32.41-.81,2.09-4.01,13.59-4.27,13.79-.78,28.14-.83,57.28.06,85.45-3.02,43.51-34.12,78.25-77.3,85.22-2.06-.49-4.66-.69-6.17,1-2.25.36-4.62-.08-6.88.12-.26-.45-.47-.9-.47-1.34,0-7.47.05-15.95.49-23.35.03-.48.45-.95.98-1.4.05-.95.77-1.57,2.15-1.85,1.11-.17,2.79.2,3.87-.16,1.68.31,2.76.25,4.18-.68.26.09.61-.13.89-.08,1.76.16,3.08-.25,3.97-1.24,2.95-.9,6.23-1.63,9.03-2.89,2.67-.45,5.01-1.83,7.03-4.13,1.47-.31,2.43-1.85,4.02-1.9,1.33-1.19,2.66-1.89,4.02-2.11l8.23-9.03c.16-.59.45-1.52.8-2.01,1.99-1.19,3.11-3.05,4.24-4.98-.02-.22.04-.68.09-.9,2.51-2.23,4.03-5.94,4.93-9.14l.09-.9c1.35-1.48,1.87-3.21,1.91-5.16.8-1.51.87-3.2.94-4.87,1.18-1.26,1.58-2.41.86-4.16.13-.63.12-1.37.12-2.01l.94-2.31c-.02-28.11-.04-56.11-.05-84.02l.11-4.02c.99-1.63,1.32-3.14.9-5.02.19-.49.1-1.32.14-1.87.92-.81,1.2-1.86.86-3.15v-1c.96-.72,1.37-1.72,1.22-3.01.67-1.2.79-2.53.93-3.87,1.12-1.25,2.04-2.43,2.06-4.16.72-.73.56-2.11.81-3.01,1.31-.91,2.11-2,2.01-3.01.75-.74.69-2,1.14-2.87,1.83-1.85,3.46-3.91,4.88-6.16.51-1.19,1.22-3.01,2.01-4.02,4.36-3.49,8.58-7.65,12.05-12.05,1.55-1.3,3.27-3.05,5.02-4.02.69-1.19.04-2.27-1.96-3.25-.26.09-.61-.09-.89-.08-1.73-2.06-3.48-3.69-5.26-4.92-1.51-1.03-2.41-2.66-3.73-3.72-1.23-2.09-2.97-3.79-5.22-5.1-2.73-4.26-6.37-8.26-8.03-13.05.5-1.34-.88-2.39-2.01-3.01-1.06-1.87-1.11-4.15-2.01-6.02-.33-2.78-1.44-5.64-2.7-8.18.03-.3-.09-.6-.09-.9,0-1.58-.36-2.67-1.23-3.97.02-.31.08-.71,0-1,.53-1.91.4-3.65-.85-5.16.15-1.22-.49-2.7-.15-3.88.07-24.53.1-49.21.08-74.04l-.9-2.26v-1c.16-2.12.23-3.66-1.19-5.02v-1c.27-1.73.24-1.97-1-3.01-.47-1.22-.37-2.87-1-4.02.36-1.8-.7-2.88-2.01-4.02-.21-.85-1.34-2.08-1-3.01-.65-1.68-1.52-2.94-3.01-4.02-.11-.27.03-.73,0-1-1.14-1.42-1.81-2.76-2.01-4.02-2.31-1.59-4.53-3.64-6.02-6.02-1.6-1.25-3.28-2.59-5.02-4.02-1.37.74-2.1-2.16-3.01-2.01-1.15-1.39-2.15-2.06-3.01-2.01-12.64-6.19-25.92-9.39-40-8.03-1.73-7.81-1.47-18.03-1.12-26.43,0-.24.43-.46.97-.68,3.93-.31,7.94-.65,12.05-1,.52-.22,1.42.21,2.01.11Z"/>
    <path d="M521.01,441.05l-.17-77.17c1.09-3.3.98-6.25,1.05-9.16.36-.12,1.01.34,1.01,1.13v83.05c-.01,1.32-1.33,1.97-1.89,2.15Z"/>
    <path d="M521.89,231.25c.76-2.61-.94-5.15-.93-8.14l.11-68.15c.53.21,1.81.88,1.81,2.14l.02,73.04c0,.77-.64,1.23-1.01,1.11Z"/>
    <path d="M549,359.74c.87,25.06.86,51.25,0,76.29,0,1,.07,2.02,0,3.01-.38.12-1-.33-1-1.12l-.04-81.21c0-1.49.17-2.5.98-3.11l.06,6.14Z"/>
    <path class="cls-11" d="M549,436.03v-76.29c.37-.12,1,.34,1,1.12v74.06c0,.77-.64,1.23-1,1.12Z"/>
    <path d="M549,158.97c.87,22.41.86,45.86,0,68.26,0,1.68-.03,3.35.18,5.02-.83-.54-1.24-1.42-1.24-2.97l.07-72.21c0-.77.61-1.23.99-1.11.07.99,0,2.01,0,3.01Z"/>
    <path class="cls-11" d="M549,227.23v-68.26c.37-.12,1,.35,1,1.11v66.05c0,.76-.64,1.22-1,1.11Z"/>
    <path d="M452.63,75.65l.15,27.11c-1.21.12-2.22-1.55-2.22-2.96l.05-23.14c0-.85.64-1.09,1.01-1.01.29-.43.63-.41,1,0Z"/>
    <path class="cls-4" d="M459.65,499.27c.35,9.78-.37,16.87-1,26.1-.35.03-1.03-.1-1.03-.99l.03-26.11c.82-.89,2.44-.37,2.01,1Z"/>
    <path class="cls-14" d="M598.18,297.5l1,6.02c.02,1.05.14,3.44-.78,3.9-1.34.65-3.13-.25-4.44-.03l3.1-2.04.11-24.91c.28-.88.62-.86,1,0v17.07Z"/>
    <path class="cls-3" d="M538.96,309.55c3.47-4.45,7.72-8.44,12.05-12.05-.05.88-.31,1.9-1.18,2.78l-8.08,8.08c-.88.88-1.9,1.13-2.78,1.18Z"/>
    <path d="M528.92,105.77c-.17,2.05-13.09-10.87-11.04-11.04,4.6,1.83,9.18,6.45,11.04,11.04Z"/>
    <path d="M498.8,484.22c-.88-.28-.86-.62,0-1,2.29-3.03,4.98-6.06,8.23-8.03-1.06,3.9-5.3,6.35-8.23,9.03Z"/>
    <path class="cls-3" d="M487.76,78.86c3.02,1.73-15.45-2.17-12.05-3.21,4.06.72,8.35,1.35,12.05,3.21Z"/>
    <path class="cls-5" d="M512.16,467.29c1.75-2.91,2.74-6.56,4.93-9.14,2.07-.16-3.37,10.61-4.93,9.14Z"/>
    <path class="cls-7" d="M464.67,74.65c-3.63,2.28-8.03.44-12.05,1-.3.04-.71.07-1,0-.07-.79.91-1.02,1.95-1.02h11.1Z"/>
    <path class="cls-3" d="M483.75,492.36c2.3-1.03,4.29-3.55,7.03-4.13-.69,2.52-4.64,5.74-7.03,4.13Z"/>
    <path class="cls-7" d="M526.91,254.34c-1.23-2.56-2.98-5.14-2.7-8.18,1.29-2.43,4.6,10.73,2.7,8.18Z"/>
    <path class="cls-7" d="M474.71,75.65c-2.07,2.13-6.14,1.24-8.03-.89,2.72-.44,5.42.08,8.03.89Z"/>
    <path class="cls-3" d="M509.85,124.84c-.28.88-.62.86-1,0-2.07-1.21-3.77-2.98-5.02-5.02-.45-.31-.44-.64,0-1,2.27,1.71,4.55,3.52,6.02,6.02Z"/>
    <path class="cls-1" d="M503.82,118.82v1c-2.03-1.25-3.82-2.95-5.02-5.02,2.44-1.32,3.38,2.78,5.02,4.02Z"/>
    <path class="cls-3" d="M553.17,290.15c-2.87.09-3.4-3.64-5.26-4.92-1.79-3.89,6.58,4.82,5.26,4.92Z"/>
    <path class="cls-18" d="M507.84,473.17c1.3-1.79,2.02-4.28,4.24-4.98.8,2.32-1.82,4.91-4.24,4.98Z"/>
    <path class="cls-20" d="M544.17,281.52c-2.03-1.62-3.77-2.85-5.22-5.1,2.26.42,5.77,2.72,5.22,5.1Z"/>
    <path class="cls-7" d="M532.07,319.72c1.21-2.34,2.44-4.98,4.88-6.16-1.03,2.42-1.85,5.85-4.88,6.16Z"/>
    <path class="cls-20" d="M536.95,116.92c-2.21-.12-4.85-3.18-4.02-5.13,2.04,1,3.03,3.2,4.02,5.13Z"/>
    <path class="cls-3" d="M522.9,240.28c-.44-1.68-1.07-3.4-.85-5.16,1.33-.48,1.95.77,1.93,1.67-.03,1.36.32,3.13-1.08,3.48Z"/>
    <path class="cls-7" d="M517.19,457.26c.18-1.85.85-3.63,1.91-5.16.82.87.81,2.02.41,3.02-.45,1.1-1.03,2.21-2.31,2.15Z"/>
    <path class="cls-12" d="M556.02,293.49c-.74-1.03-1.42-2.1-1.96-3.25,1.23-.41,3.44.9,3.93,2.2s-1.57,1.05-1.96,1.05Z"/>
    <path class="cls-9" d="M511.85,128.86c-1.73-.64-2.87-2.18-3.01-4.02h1c.76,1.29,3.46,2.58,2.01,4.02Z"/>
    <path class="cls-3" d="M514.86,133.87c-1.67-.67-2.38-2.42-3.01-4.02,1.01-.18,2.2.45,2.91,1.54.44.68.93,1.53.1,2.48Z"/>
    <path class="cls-7" d="M521.07,153.95c-.63-1.61-1.19-3.27-1.19-5.02,1.35-.36,2.12.28,2.11,1.54s-.07,2.58-.93,3.48Z"/>
    <path d="M522,350.7c.05-1.75-.09-3.5.9-5.02,1.2.07,1.07,1.54,1.05,2.47-.03,1.14-.75,2.22-1.95,2.55Z"/>
    <path class="cls-7" d="M598.18,280.44h-1c-1.36,0-2.67-.63-3.01-2.01,2.78,0,4.02-.29,4.02,2.01Z"/>
    <path class="cls-19" d="M498.8,483.21v1c-1.11,1.02-2.5,3.07-4.02,2.11.57-1.79,2.14-2.98,4.02-3.12Z"/>
    <path class="cls-5" d="M471.7,524.26l-6.17,1c-.56-1.8,1.43-2.09,2.66-1.98,1.23.11,2.91-.29,3.51.98Z"/>
    <path class="cls-5" d="M517.88,140.9c-.73-1.32-1.64-2.5-2.01-4.02.95-.11,1.76.29,2.24,1.22.44.84,1.54,2.61-.24,2.8Z"/>
    <path class="cls-3" d="M526.05,332.78c.17-1.63.96-3.03,2.06-4.16,1.21.29.61,1.55.37,2.16-.38.94-1.31,2.21-2.43,2Z"/>
    <path d="M582.12,275.6c-1.67,1.49-3.53-1.44-5.02-2.19,1.97-.15,4,.4,5.02,2.19Z"/>
    <path class="cls-18" d="M566.14,265.6c-.58,1.59-1.59-.24-2.14-.75-.77-.7-2-1.54-1.17-2.57,1.62.54,2.57,1.87,3.31,3.32Z"/>
    <path class="cls-7" d="M474.71,495.26c.26,1.18-.02,2.26-1.54,2.1-.75-.08-1.78-.12-2.43-.85.95-1.39,2.66-.85,3.97-1.24Z"/>
    <path d="M469.86,496.59c.47,1.25-.76,1.83-1.69,1.77-.99-.06-2.46.13-2.49-1.09,1.33-.6,2.66-1.23,4.18-.68Z"/>
    <path class="cls-7" d="M461.81,497.43c.05.43.03.96-.23,1.26-.5.58-1.28.63-1.92.59l-2.01-1c0-1.94,3.04-.67,4.16-.84Z"/>
    <path d="M508.84,88.9c-1.83.53-3.78-1.31-4.15-3.07,1.75.48,3.66,1.16,4.15,3.07Z"/>
    <path class="cls-3" d="M561.97,260.44c-1.89-.06-3.64-1.41-3.15-3.09,1.49.49,2.67,1.59,3.15,3.09Z"/>
    <path class="cls-13" d="M599.19,303.52c-1.69-1.26-1-4.05-1-6.02,1.76,1.27.97,4.03,1,6.02Z"/>
    <path class="cls-1" d="M524.13,245.26c-1.04-1.06-1.31-2.53-1.23-3.97.86.21,1.58.77,1.89,1.71.25.77.05,1.67-.66,2.26Z"/>
    <path class="cls-3" d="M520.03,447.22c.05-1.42.58-2.78.86-4.16,1.3.02,1,1.55,1.09,2.51.11,1.13-.7,2.09-1.95,1.65Z"/>
    <path class="cls-7" d="M539.96,123.84c-.23,1.62-1.23.67-1.3-.69-.47-.55-.71-1.12-.67-1.73.02-.35.42-.76.97-.6.49.95,1.04,1.97,1,3.01Z"/>
    <path class="cls-16" d="M495.79,112.79c-1.62.27-2.06-1.54-3.01-2.01.08-1.64,1.31-.42,1.85-.17.86.39,1.39,1.4,1.16,2.18Z"/>
    <path class="cls-3" d="M532.93,110.79c-1.58-.11-4.24-1.18-3.2-3.01,1.39.58,2.77,1.52,3.2,3.01Z"/>
    <path class="cls-3" d="M515.87,93.92c-1.77.99-2.89-1.55-3.16-3.07,1.56.37,2.68,1.56,3.16,3.07Z"/>
    <path d="M495.79,81.89c-.8.26-1.35.31-1.93.13-1.14-.35-2.68-.99-2.23-2.21,1.54.22,3.36.7,4.16,2.08Z"/>
    <path class="cls-5" d="M519.88,147.93c-.69-.87-.63-2.03-1-3.01.63-.03,1.7-.27,2,.52.36.96-.21,2.06-.99,2.49Z"/>
    <path class="cls-3" d="M571.02,269.65c-.86-.53-2.77-.24-3.05-2.26,1.5-.14,2.95.67,3.05,2.26Z"/>
    <path d="M593.16,278.43c-.53.78-1.4,1.21-2.31.92s-1.47-1.05-1.71-1.93l4.02,1Z"/>
    <path class="cls-3" d="M528.92,325.61c.34-1.22,1.14-2.15,2.01-3.01,1.64.09.42,1.3.18,1.84-.43.95-1.37,1.34-2.19,1.17Z"/>
    <path class="cls-3" d="M523.03,343.82c.09-1.1.22-2.21.86-3.15.69.44.96,1.03,1.05,1.57.19,1.19-.92,2.11-1.91,1.58Z"/>
    <path class="cls-7" d="M501.81,84.69c-.08,1.64-1.31.42-1.86.17-.82-.37-1.36-1.39-1.15-2.18,1.25.19,2.11,1.26,3.01,2.01Z"/>
    <path class="cls-3" d="M523.9,339.66c0-1.13.49-2.17,1.22-3.01.31.52.81,1.14.83,1.66.04,1.33-1.02,1.62-2.05,1.35Z"/>
    <path class="cls-7" d="M530.93,263.37c-.3-.88-1.5-2.11-2.01-3.01.82-.15,1.77.26,2.17,1.14.27.59,1.47,1.77-.16,1.87Z"/>
  </g>
</svg>