<?xml version="1.0" encoding="UTF-8"?>
<svg id="Capa_1" data-name="Capa 1" xmlns="http://www.w3.org/2000/svg" xmlns:xlink="http://www.w3.org/1999/xlink" viewBox="0 0 600 600">
  <defs>
    <style>
      .cls-1 {
        fill: none;
      }

      .cls-2 {
        fill: url(#linear-gradient);
      }

      .cls-3 {
        clip-path: url(#clippath);
      }
    </style>
    <clipPath id="clippath">
      <rect class="cls-1" x="2.32" y="33.29" width="595.36" height="533.43"/>
    </clipPath>
    <linearGradient id="linear-gradient" x1="52.08" y1="-636.99" x2="541.64" y2="-86.1" gradientTransform="translate(0 -58) scale(1 -1)" gradientUnits="userSpaceOnUse">
      <stop offset=".08" stop-color="#9945ff"/>
      <stop offset=".3" stop-color="#8752f3"/>
      <stop offset=".5" stop-color="#5497d5"/>
      <stop offset=".6" stop-color="#43b4ca"/>
      <stop offset=".72" stop-color="#28e0b9"/>
      <stop offset=".97" stop-color="#19fb9b"/>
    </linearGradient>
  </defs>
  <g class="cls-3">
    <path class="cls-2" d="M594.61,453.85l-98.28,105.59c-2.14,2.29-4.72,4.12-7.59,5.37-2.87,1.25-5.97,1.89-9.1,1.89H13.73c-2.22,0-4.4-.65-6.26-1.87-1.86-1.22-3.32-2.96-4.21-5-.89-2.04-1.16-4.3-.78-6.5.38-2.2,1.39-4.23,2.9-5.86l98.36-105.59c2.13-2.29,4.71-4.11,7.57-5.36,2.86-1.25,5.95-1.9,9.08-1.9h465.88c2.22,0,4.4.65,6.26,1.87,1.86,1.22,3.32,2.96,4.21,5,.89,2.04,1.16,4.3.78,6.49-.38,2.2-1.39,4.23-2.9,5.86ZM496.33,241.22c-2.14-2.29-4.72-4.12-7.59-5.37-2.87-1.25-5.97-1.89-9.1-1.89H13.73c-2.22,0-4.4.65-6.26,1.87-1.86,1.22-3.32,2.96-4.21,5-.89,2.04-1.16,4.3-.78,6.5.38,2.2,1.39,4.23,2.9,5.86l98.36,105.59c2.13,2.29,4.71,4.11,7.57,5.36,2.86,1.25,5.95,1.9,9.08,1.9h465.88c2.22,0,4.4-.65,6.26-1.87,1.86-1.22,3.32-2.96,4.21-5,.89-2.04,1.16-4.3.78-6.49-.38-2.2-1.39-4.23-2.9-5.86l-98.28-105.59ZM13.73,165.37h465.9c3.13,0,6.23-.64,9.1-1.89,2.87-1.25,5.46-3.08,7.59-5.37l98.28-105.59c1.52-1.63,2.52-3.66,2.9-5.86.38-2.19.11-4.45-.78-6.49-.89-2.04-2.35-3.78-4.21-5-1.86-1.22-4.03-1.87-6.26-1.87H120.39c-3.12,0-6.21.65-9.08,1.9-2.86,1.25-5.44,3.07-7.57,5.36L5.41,146.14c-1.52,1.63-2.52,3.66-2.9,5.85-.38,2.19-.11,4.45.77,6.49.88,2.04,2.34,3.78,4.2,5,1.86,1.22,4.03,1.88,6.25,1.88Z"/>
  </g>
</svg>