<?xml version="1.0" encoding="UTF-8"?>
<svg id="Capa_1" data-name="Capa 1" xmlns="http://www.w3.org/2000/svg" viewBox="0 0 600 600">
  <defs>
    <style>
      .cls-1 {
        fill: #ec796b;
      }

      .cls-1, .cls-2, .cls-3 {
        fill-rule: evenodd;
      }

      .cls-2 {
        fill: #fafafa;
      }

      .cls-3 {
        fill: #0c0c4f;
      }
    </style>
  </defs>
  <path class="cls-3" d="M0,306.13C0,471.81,134.31,606.13,300,606.13s300.01-134.31,300.01-300S465.68,6.13,300,6.13,0,140.44,0,306.13Z"/>
  <path class="cls-2" d="M167.67,235.45l7.41-22.88c1.51-4.65,5.18-8.27,9.85-9.7l22.99-7.07c3.18-.97,3.21-5.46.05-6.49l-22.89-7.41c-4.64-1.5-8.27-5.18-9.7-9.85l-7.06-22.99c-.97-3.17-5.46-3.21-6.49-.04l-7.41,22.88c-1.51,4.64-5.18,8.27-9.85,9.7l-22.99,7.06c-3.18.98-3.22,5.46-.05,6.49l22.89,7.41c4.64,1.51,8.27,5.19,9.7,9.86l7.06,22.98c.97,3.18,5.46,3.22,6.49.05Z"/>
  <path class="cls-1" d="M531.07,222.13c-9.48-10.6-24.27-16.57-38.65-19.01-14.5-2.35-29.7-2.13-44.01.41-28.96,4.9-55.26,16.89-78.21,31.68-11.91,7.26-22.08,15.66-32.6,24.21-5.07,4.33-9.7,8.93-14.51,13.47l-13.16,13.09c-14.3,14.95-28.39,28.56-42.03,39.84-13.69,11.23-26.49,19.76-39.11,25.72-12.61,5.99-26.1,9.51-43.68,10.07-17.43.61-38.05-2.53-60.1-7.72-22.17-5.17-45.46-12.54-71.48-18.88,9.08,25.19,22.75,47.45,40.3,67.79,17.76,19.99,39.93,38.21,68.42,50.2,28.08,12.25,63.36,16.65,96.35,10.01,33.08-6.37,62.11-21.67,85.57-39.38,23.52-17.88,42.56-38.25,58.6-59.43,4.43-5.85,6.77-9.13,9.98-13.7l8.86-13.12c6.16-8.12,11.76-17.36,17.85-25.4,11.95-16.84,23.73-33.67,37.41-49.17,6.89-7.86,14.15-15.38,22.73-22.61,4.28-3.53,8.9-6.98,14.02-10.09,5.19-3.35,10.68-5.98,17.44-8.01Z"/>
  <path class="cls-2" d="M531.07,222.13c-10.18-25.69-29.11-47.32-54.52-63.28-25.25-15.78-60.33-23.84-95.09-16.97-17.17,3.32-33.81,9.71-48.4,18.23-14.53,8.48-27.55,18.69-38.83,29.64-5.63,5.49-10.74,11.23-15.81,16.99l-13.15,16.77-20.32,27c-25.9,34.73-53.79,75.44-99.56,87.5-44.93,11.84-64.42,1.35-91.85-2.98,5.01,12.95,11.23,25.52,19.65,36.58,8.26,11.28,18.02,21.88,30.16,30.97,6.13,4.36,12.61,8.67,19.8,12.32,7.16,3.53,14.88,6.63,23.12,8.97,16.39,4.49,34.84,6.07,52.71,3.65,17.87-2.38,34.96-8.05,49.89-15.57,15.04-7.45,28.15-16.53,39.85-26.11,23.26-19.32,41.36-40.66,56.64-62.24,7.69-10.79,14.67-21.78,21.12-32.77l7.6-13.09c2.32-3.83,4.67-7.68,7.06-11.26,9.63-14.4,19.04-25.95,30.48-34.62,11.27-8.89,26.98-15.46,47.96-16.99,20.89-1.54,45.02,1.31,71.51,7.27Z"/>
  <path class="cls-1" d="M418.03,435.62c0,18.87,15.31,34.18,34.18,34.18s34.16-15.3,34.16-34.18-15.29-34.18-34.16-34.18-34.18,15.31-34.18,34.18Z"/>
</svg>