<?xml version="1.0" encoding="UTF-8"?>
<svg id="Capa_1" data-name="Capa 1" xmlns="http://www.w3.org/2000/svg" viewBox="0 0 600 600">
  <defs>
    <style>
      .cls-1 {
        fill: #0f0f0f;
      }
    </style>
  </defs>
  <g id="Layer_1" data-name="Layer 1">
    <g>
      <path class="cls-1" d="M300.07,42.89c34.23,0,67.35,6.74,98.69,19.93,16.63,7.01,32.58,15.95,47.42,26.39l-3.16,1.65-40.69,20.76c-31.07-17.32-66.39-26.39-102.27-26.39h-1.65c-27.63.27-54.57,5.77-80,16.36-25.43,10.72-48.25,25.98-67.77,45.5-39.86,40-61.86,93.06-61.86,149.42,0,9.21.55,18.42,1.79,27.63l.41,2.89,2.61-1.37,351.2-179.11,72.71-37.11,82.34-42.06v47.56l-84.81,43.3-41.65,21.17L103.23,368.38l-1.65.96h0l-18.97,9.62-19.24,9.76v-.14l-1.79.82L0,420.89v-47.56l20.89-10.58c17.46-8.93,27.9-27.35,26.39-47.01-.41-6.46-.69-12.92-.69-19.38,0-34.23,6.74-67.49,19.93-98.83,12.78-30.24,31.07-57.32,54.3-80.69,23.23-23.23,50.31-41.65,80.55-54.43,31.2-12.78,64.47-19.52,98.69-19.52"/>
      <path class="cls-1" d="M600,178.56v47.56l-20.89,10.58c-17.46,8.93-27.9,27.35-26.39,47.01.55,6.46.69,13.06.69,19.52,0,34.23-6.74,67.49-19.93,98.83-12.78,30.24-31.07,57.32-54.3,80.69-23.23,23.37-50.45,41.65-80.55,54.43-31.2,13.2-64.47,19.93-98.69,19.93s-67.35-6.74-98.69-19.93c-16.77-7.15-32.71-16.08-47.56-26.53l42.06-21.44,1.65-.82c31.07,17.32,66.53,26.53,102.54,26.53h1.51c27.63-.14,54.57-5.64,80-16.36,25.43-10.72,48.25-25.98,67.77-45.5,39.86-39.86,61.86-93.06,61.86-149.42,0-9.21-.55-18.56-1.79-27.77l-.41-2.89-2.61,1.37-351.48,178.83-72.71,37.11L0,532.1v-47.56l84.54-43.16,41.65-21.17,473.81-241.65"/>
    </g>
  </g>
</svg>