<?xml version="1.0" encoding="UTF-8"?>
<svg id="Capa_1" data-name="Capa 1" xmlns="http://www.w3.org/2000/svg" viewBox="0 0 600 600">
  <defs>
    <style>
      .cls-1 {
        fill: #298dff;
        fill-rule: evenodd;
      }
    </style>
  </defs>
  <path class="cls-1" d="M440.39,250.22c24.38,30.73,38.97,69.59,38.97,111.86s-15.02,82.32-40.05,113.22l-2.17,2.67-.57-3.39c-.49-2.87-1.06-5.78-1.72-8.7-12.54-55.28-53.37-102.67-120.59-141.06-45.39-25.86-71.38-56.96-78.2-92.33-4.41-22.87-1.13-45.83,5.2-65.51,6.33-19.65,15.74-36.14,23.74-46.06l26.16-32.09c4.58-5.64,13.18-5.64,17.76,0l131.5,161.38h-.02ZM481.75,218.15L306.48,3.08c-3.35-4.1-9.61-4.1-12.96,0L118.28,218.15l-.57.72c-32.24,40.17-51.55,91.22-51.55,146.8,0,129.42,104.7,234.33,233.84,234.33s233.84-104.92,233.84-234.33c0-55.57-19.31-106.62-51.55-146.77l-.57-.72.02-.02ZM160.22,249.53l15.67-19.26.47,3.56c.37,2.82.84,5.64,1.38,8.48,10.15,53.42,46.38,97.95,106.94,132.43,52.66,30.09,83.32,64.67,92.14,102.59,3.69,15.82,4.34,31.4,2.73,45.02l-.1.84-.76.37c-23.77,11.64-50.49,18.19-78.72,18.19-99.04,0-179.33-80.44-179.33-179.7,0-42.62,14.8-81.75,39.53-112.58l.05.05Z"/>
</svg>