<?xml version="1.0" encoding="UTF-8"?>
<svg id="Capa_1" data-name="Capa 1" xmlns="http://www.w3.org/2000/svg" viewBox="0 0 600 600">
  <defs>
    <style>
      .cls-1 {
        fill: #fff;
        fill-rule: evenodd;
      }

      .cls-2 {
        fill: #08c;
      }
    </style>
  </defs>
  <ellipse class="cls-2" cx="300" cy="300" rx="296.34" ry="300"/>
  <path class="cls-1" d="M216.7,200.29h167.91c5.94,0,11.88.88,18.08,3.81,7.44,3.51,11.38,9.04,14.14,13.13.21.32.42.65.6.98,3.25,5.85,4.92,12.17,4.92,18.97s-1.52,13.5-4.92,19.63c-.03.06-.07.12-.1.18l-106.08,184.47c-2.34,4.07-6.64,6.56-11.29,6.55s-8.94-2.54-11.25-6.63l-104.13-184.08s-.06-.1-.09-.15c-2.38-3.98-6.07-10.12-6.71-18.06-.59-7.3,1.03-14.61,4.65-20.94,3.62-6.34,9.07-11.41,15.63-14.51,7.03-3.33,14.16-3.35,18.65-3.35ZM286.99,226.64h-70.29c-4.62,0-6.39.29-7.63.87-1.71.81-3.15,2.14-4.12,3.83-.96,1.69-1.4,3.64-1.24,5.59.09,1.12.54,2.4,3.2,6.84.06.09.11.19.16.28l79.9,141.25v-158.67ZM313.02,226.64v159.37l81.75-142.17c.92-1.7,1.55-4.15,1.55-6.65,0-2.03-.42-3.8-1.35-5.61-.98-1.42-1.57-2.17-2.07-2.69-.43-.44-.75-.68-1.22-.9-1.93-.91-3.91-1.34-7.08-1.34h-71.59Z"/>
</svg>