<?xml version="1.0" encoding="UTF-8"?>
<svg id="Capa_1" data-name="Capa 1" xmlns="http://www.w3.org/2000/svg" xmlns:xlink="http://www.w3.org/1999/xlink" viewBox="0 0 600 600">
  <defs>
    <style>
      .cls-1 {
        fill: url(#linear-gradient-2);
      }

      .cls-2 {
        mask: url(#mask-1);
      }

      .cls-3 {
        mask: url(#mask);
      }

      .cls-4 {
        fill: none;
      }

      .cls-5 {
        fill: url(#linear-gradient-4);
      }

      .cls-6 {
        mask: url(#mask-2);
      }

      .cls-7 {
        fill: url(#linear-gradient-3);
      }

      .cls-8 {
        clip-path: url(#clippath-1);
      }

      .cls-9 {
        fill: url(#linear-gradient);
      }

      .cls-10 {
        clip-path: url(#clippath);
      }

      .cls-11 {
        mask: url(#mask-3);
      }
    </style>
    <linearGradient id="linear-gradient" x1="2580.51" y1="-1625.89" x2="2566.66" y2="-1623.08" gradientTransform="translate(2699.55 -1377.46) rotate(-180)" gradientUnits="userSpaceOnUse">
      <stop offset="0" stop-color="#000"/>
      <stop offset="1" stop-color="#fff"/>
    </linearGradient>
    <mask id="mask" x="95.22" y="227.92" width="37.93" height="37.92" maskUnits="userSpaceOnUse">
      <g id="mask1_11375_8680" data-name="mask1 11375 8680">
        <rect class="cls-9" x="120.28" y="227.92" width="12.88" height="37.92"/>
      </g>
    </mask>
    <clipPath id="clippath">
      <rect class="cls-4" x="139.89" y="225.14" width="17.23" height="50.73"/>
    </clipPath>
    <linearGradient id="linear-gradient-2" x1="2563.3" x2="2549.45" y2="-1623.08" xlink:href="#linear-gradient"/>
    <mask id="mask-1" x="108.13" y="227.92" width="42.23" height="37.92" maskUnits="userSpaceOnUse">
      <g id="mask1_11375_8680-2" data-name="mask1 11375 8680">
        <rect class="cls-1" x="137.48" y="227.92" width="12.88" height="37.92"/>
      </g>
    </mask>
    <linearGradient id="linear-gradient-3" y1="-1701.95" x2="2566.66" y2="-1699.15" xlink:href="#linear-gradient"/>
    <mask id="mask-2" x="95.22" y="303.98" width="37.93" height="37.92" maskUnits="userSpaceOnUse">
      <g id="mask1_11375_8680-3" data-name="mask1 11375 8680">
        <rect class="cls-7" x="120.28" y="303.98" width="12.88" height="37.92"/>
      </g>
    </mask>
    <clipPath id="clippath-1">
      <rect class="cls-4" x="139.89" y="301.2" width="17.23" height="50.73"/>
    </clipPath>
    <linearGradient id="linear-gradient-4" x1="2563.3" y1="-1701.95" x2="2549.45" y2="-1699.15" xlink:href="#linear-gradient"/>
    <mask id="mask-3" x="108.13" y="303.98" width="42.23" height="37.92" maskUnits="userSpaceOnUse">
      <g id="mask1_11375_8680-4" data-name="mask1 11375 8680">
        <rect class="cls-5" x="137.48" y="303.98" width="12.88" height="37.92"/>
      </g>
    </mask>
  </defs>
  <path d="M600,257.96v24.98h-10.61c-11.43,0-17.14,6.26-17.14,18.78v40.49h-28.25v-84.25h25.96l2.29,12.41c2.5-4.14,5.61-7.24,9.31-9.31,3.7-2.07,8.49-3.1,14.37-3.1h4.08Z"/>
  <path d="M443.78,300.41c0-8.82,1.8-16.49,5.39-23.02,3.7-6.53,8.82-11.54,15.35-15.02,6.64-3.59,14.32-5.39,23.02-5.39s16.76,1.69,23.51,5.06c6.86,3.37,12.19,8.16,16,14.37,3.81,6.1,5.71,13.17,5.71,21.23,0,3.48-.27,6.53-.82,9.14h-58.78v.33c1.42,10.45,6.86,15.67,16.33,15.67,8.06,0,12.9-3.1,14.53-9.31h27.76c-.76,5.44-2.88,10.45-6.37,15.02-3.38,4.46-8,8.05-13.88,10.78-5.77,2.61-12.46,3.92-20.08,3.92-9.9,0-18.45-1.74-25.63-5.22-7.18-3.48-12.68-8.44-16.49-14.86-3.7-6.42-5.55-13.99-5.55-22.69ZM504.85,289.47c-.76-4.03-2.56-7.08-5.39-9.14-2.72-2.18-6.2-3.27-10.45-3.27s-7.89,1.09-10.61,3.27c-2.61,2.07-4.24,5.12-4.9,9.14h31.35Z"/>
  <path d="M378.52,257.96l17.63,56,17.47-56h30.2l-36.57,95.02c-1.96,5.22-3.92,9.36-5.88,12.41-1.85,3.05-4.25,5.39-7.18,7.02-2.83,1.63-6.48,2.45-10.94,2.45h-25.8v-23.35h13.23c2.61,0,4.57-.38,5.88-1.14,1.31-.76,2.34-2.29,3.1-4.57l1.14-3.1-32.33-84.74h30.04Z"/>
  <path d="M351.63,319.02v23.18h-14.21c-5.55,0-9.58-1.14-12.08-3.43-2.5-2.39-3.76-5.61-3.76-9.63v-.65c-3.16,4.9-6.91,8.6-11.27,11.1-4.35,2.39-9.58,3.59-15.67,3.59-9.47,0-17.14-2.12-23.02-6.37-5.77-4.35-8.65-10.5-8.65-18.45,0-9.25,3.54-16.38,10.61-21.39,7.08-5.01,17.31-7.51,30.69-7.51h12.41v-3.27c0-2.94-1.2-5.28-3.59-7.02-2.29-1.85-5.33-2.78-9.15-2.78-3.48,0-6.37.76-8.65,2.29-2.18,1.42-3.38,3.37-3.59,5.88h-27.1c.76-8.82,4.73-15.62,11.92-20.41,7.18-4.79,16.76-7.18,28.74-7.18s22.2,2.61,29.06,7.84c6.86,5.22,10.29,12.9,10.29,23.02v26.12c0,1.96.38,3.32,1.14,4.08.87.65,2.23.98,4.08.98h1.8ZM316.69,306.94h-11.92c-4.14,0-7.4.87-9.8,2.61-2.39,1.63-3.59,3.86-3.59,6.69,0,2.29.82,4.14,2.45,5.55,1.74,1.31,4.03,1.96,6.86,1.96,4.79,0,8.6-1.47,11.43-4.41,2.94-3.05,4.46-7.08,4.57-12.08v-.33Z"/>
  <path d="M184.01,342.21v-114.29h30.04v88.82h41.8v25.47h-71.84Z"/>
  <g class="cls-3">
    <path d="M130.62,227.92h-32.87c-1.4,0-2.53,1.13-2.53,2.53v32.86c0,1.4,1.13,2.53,2.53,2.53h32.87c1.4,0,2.53-1.13,2.53-2.53v-32.86c0-1.4-1.13-2.53-2.53-2.53Z"/>
  </g>
  <path d="M73.26,265.93h-32.71c-1.39,0-2.52,1.12-2.52,2.5v32.48c0,1.38,1.13,2.5,2.52,2.5h32.71c1.39,0,2.52-1.12,2.52-2.5v-32.48c0-1.38-1.13-2.5-2.52-2.5Z"/>
  <path d="M35.39,227.92H2.53c-1.4,0-2.53,1.13-2.53,2.53v32.86c0,1.4,1.13,2.53,2.53,2.53h32.87c1.4,0,2.53-1.13,2.53-2.53v-32.86c0-1.4-1.13-2.53-2.53-2.53Z"/>
  <path d="M111.22,227.92h-32.87c-1.4,0-2.53,1.13-2.53,2.53v32.86c0,1.4,1.13,2.53,2.53,2.53h32.87c1.4,0,2.53-1.13,2.53-2.53v-32.86c0-1.4-1.13-2.53-2.53-2.53Z"/>
  <path d="M35.39,303.76H2.53c-1.4,0-2.53,1.13-2.53,2.53v32.87c0,1.4,1.13,2.53,2.53,2.53h32.87c1.4,0,2.53-1.13,2.53-2.53v-32.87c0-1.4-1.13-2.53-2.53-2.53Z"/>
  <path d="M111.22,303.76h-32.87c-1.4,0-2.53,1.13-2.53,2.53v32.87c0,1.4,1.13,2.53,2.53,2.53h32.87c1.4,0,2.53-1.13,2.53-2.53v-32.87c0-1.4-1.13-2.53-2.53-2.53Z"/>
  <g class="cls-10">
    <g class="cls-2">
      <path d="M143.53,227.92h-32.87c-1.4,0-2.53,1.13-2.53,2.53v32.86c0,1.4,1.13,2.53,2.53,2.53h32.87c1.4,0,2.53-1.13,2.53-2.53v-32.86c0-1.4-1.13-2.53-2.53-2.53Z"/>
    </g>
  </g>
  <g class="cls-6">
    <path d="M130.62,303.98h-32.87c-1.4,0-2.53,1.13-2.53,2.53v32.86c0,1.4,1.13,2.53,2.53,2.53h32.87c1.4,0,2.53-1.13,2.53-2.53v-32.86c0-1.4-1.13-2.53-2.53-2.53Z"/>
  </g>
  <g class="cls-8">
    <g class="cls-11">
      <path d="M143.53,303.98h-32.87c-1.4,0-2.53,1.13-2.53,2.53v32.86c0,1.4,1.13,2.53,2.53,2.53h32.87c1.4,0,2.53-1.13,2.53-2.53v-32.86c0-1.4-1.13-2.53-2.53-2.53Z"/>
    </g>
  </g>
</svg>