<?xml version="1.0" encoding="UTF-8"?>
<svg id="Capa_1" data-name="Capa 1" xmlns="http://www.w3.org/2000/svg" viewBox="0 0 600 600">
  <defs>
    <style>
      .cls-1 {
        fill: #3861f5;
      }
    </style>
  </defs>
  <path class="cls-1" d="M0,300c0-12.66,2.8-23.89,8.39-33.7,5.69-9.81,13.24-17.41,22.66-22.81,9.42-5.4,19.57-8.09,30.46-8.09,8.73,0,16.63,1.47,23.69,4.41,7.16,2.84,12.66,7.26,16.48,13.24h.44v-14.86h30.02v123.61h-30.02v-14.86h-.44c-3.83,5.98-9.32,10.45-16.48,13.39-7.06,2.85-14.96,4.27-23.69,4.27-10.89,0-21.04-2.7-30.46-8.09s-16.97-13-22.66-22.81c-5.59-9.81-8.39-21.04-8.39-33.7ZM32.37,300c0,6.57,1.52,12.61,4.56,18.1,3.14,5.4,7.36,9.66,12.66,12.8,5.4,3.14,11.28,4.71,17.66,4.71s12.51-1.47,17.81-4.42c5.4-2.94,9.56-7.11,12.51-12.51,3.04-5.49,4.56-11.72,4.56-18.69s-1.52-13.29-4.56-18.69c-2.94-5.4-7.11-9.57-12.51-12.51-5.3-2.94-11.23-4.41-17.81-4.41s-12.26,1.57-17.66,4.71c-5.3,3.14-9.52,7.46-12.66,12.95-3.04,5.4-4.56,11.38-4.56,17.95ZM196.66,266.3l25.61,62.84h1.18l36.49-90.94h34.43l-12.36,29.28-40.91,94.33h-36.49l-40.91-94.33-12.36-29.28h34.29l11.04,28.11ZM313.54,238.19h30.02v14.86h.59c3.73-5.89,9.07-10.3,16.04-13.24,7.06-2.94,14.62-4.41,22.66-4.41,11.38,0,21.44,2.5,30.17,7.5,8.73,4.91,15.5,11.82,20.31,20.75,4.9,8.93,7.36,19.23,7.36,30.9v67.25h-30.02v-60.78c0-7.36-1.37-13.78-4.12-19.28-2.65-5.49-6.47-9.76-11.48-12.8s-10.84-4.56-17.51-4.56-12.31,1.52-17.51,4.56c-5.1,3.04-9.12,7.46-12.07,13.24-2.94,5.79-4.41,12.66-4.41,20.6v59.01h-30.02v-123.61ZM569.98,267.33v-29.14h30.02v123.61h-30.02v-94.47ZM529.51,364.6c-10.79,0-20.45-2.45-28.99-7.36-8.53-5-15.26-11.97-20.16-20.9-4.81-9.03-7.21-19.38-7.21-31.05v-67.1h30.02v60.78c0,7.26,1.37,13.69,4.12,19.28,2.75,5.49,6.62,9.76,11.63,12.8,5,3.04,10.74,4.56,17.22,4.56s12.26-1.52,17.36-4.56c5.1-3.04,9.12-7.46,12.07-13.24,2.94-5.79,4.41-12.66,4.41-20.6h1.47v47.38h-2.06c-2.55,4.32-5.94,8-10.15,11.04-4.12,3.04-8.73,5.3-13.83,6.77-5.1,1.47-10.4,2.21-15.89,2.21Z"/>
</svg>