<?xml version="1.0" encoding="UTF-8"?>
<svg id="Capa_1" data-name="Capa 1" xmlns="http://www.w3.org/2000/svg" viewBox="0 0 600 600">
  <defs>
    <style>
      .cls-1 {
        fill: #d5b7ff;
      }
    </style>
  </defs>
  <path class="cls-1" d="M592.09,93.86c-3.75-44.53-39.81-79.47-84.44-81.86C412.32,6.92,243.56.87,92.17,10.49,48.72,13.24,13.59,47.04,8.98,90.33-7.92,249.26,2.29,404.28,13.01,502.14c4.7,42.84,39.2,76.36,82.18,79.6,63.69,4.81,123.86,7.14,179.13,7.81,11.02.13,20.03-8.78,20.03-19.8v-17.76c0-36.81-14.71-72.31-41.44-97.63-7.89-7.48-15.74-13-22.6-14.38-27.13-5.46-46.21,10.27-63.1,19.04-16.9,8.77-36.05,1.62-36.05,1.62-7.54-1.86-20.95-18.43-28.27-33.34-3.01-6.14-6.61-9.84-15.97-11.96-11.39-2.58-16.34-9.71-21.31-24.7-6.28-18.94,12.55-31.85,12.55-31.85,0,0-2.18,24.01,11.75,34.21,13.95,10.22,46.45-6.24,70.43-6.82,5.99-.14,12.05.79,17.78,2.26,16.64,4.27,31.42,13.86,42.66,26.85l7.84,9.05c3.67,4.24,8.11,7.73,13.02,10.45,18.62,10.34,33.72,29.72,43.9,45.37,2.6,4.01,8.81,2.16,8.81-2.62v-81.34c0-7.66-1.59-15.28-5.01-22.14-6.29-12.58-6.36-25.62-3.66-33.19,1.82-5.07,1.35-12.76.39-19.36-1.03-7.04-9.78-10.03-14.64-4.84-5.43,5.81-9.75,15.2-5.25,29.44,9,28.51,1.51,48.77,1.51,48.77-6.75-17.26-37.51-35.26-37.51-35.26-10.07-25.81,12.08-53.74,19.47-62.05,1.04-1.17.39-3.04-1.16-3.32-24.15-4.33-38.52,27.83-53.57,27.11-11-.52-23.83-21.89-30.57-34.74-1.44-2.73,1.44-5.73,4.23-4.39,7.85,3.75,19.13,7.19,26.34.87,8.56-7.48,30.82-8.11,42.91-7.86,3.01.07,4.24-3.79,1.79-5.55-18.44-13.24-46.96-6.11-46.96-6.11-39.01-2.25-41.26-45.77-41.26-45.77,0,0,18.76,6,30.01-7.5,6.96-8.36,19.68-7.52,28.36-5.67,4.7,1.01,8.7-3.5,7.16-8.06-2.51-7.5-7.02-13.93-11.23-18.76-4.55-5.21-1.89-13.3,4.85-14.88,14.55-3.4,27.88-2.15,27.88-2.15.06-.53.12-1.07.2-1.59,9.47-71.17,112.52-71.17,121.98,0,.07.53.13,1.06.2,1.59,0,0,13.25-1.24,27.74,2.11,6.76,1.56,9.5,9.73,4.94,14.96-4.19,4.81-8.66,11.21-11.17,18.67-1.54,4.58,2.46,9.1,7.19,8.09,8.68-1.85,21.36-2.67,28.31,5.68,11.26,13.5,30.01,7.5,30.01,7.5,0,0-2.25,43.51-41.26,45.77,0,0-28.52-7.13-46.96,6.11-2.45,1.76-1.21,5.6,1.79,5.55,12.1-.25,34.37.37,42.91,7.86,7.21,6.31,18.47,2.88,26.32-.87,2.79-1.34,5.68,1.66,4.24,4.41-6.74,12.85-19.57,34.21-30.56,34.73-15.05.72-29.42-31.43-53.57-27.11-1.54.28-2.2,2.15-1.16,3.32,7.38,8.31,29.54,36.24,19.47,62.05,0,0-30.76,18.01-37.51,35.26,0,0-7.5-20.25,1.51-48.77,4.49-14.23.2-23.61-5.24-29.42-4.87-5.21-13.64-2.25-14.65,4.8-.96,6.6-1.43,14.29.39,19.37,2.7,7.57,2.62,20.61-3.66,33.19-3.42,6.85-5.01,14.47-5.01,22.14v80.82c0,4.75,6.15,6.61,8.79,2.66,10.2-15.32,25.7-34.36,44.9-44.95,5-2.76,9.46-6.42,13.2-10.75l7.5-8.68c11.23-12.99,26.02-22.58,42.66-26.85,5.72-1.47,11.79-2.4,17.78-2.26,23.97.58,56.48,17.02,70.43,6.82,13.93-10.2,11.75-34.21,11.75-34.21,0,0,18.84,12.92,12.55,31.85-4.97,15-9.92,22.11-21.31,24.7-9.36,2.13-12.96,5.83-15.97,11.96-7.32,14.91-20.74,31.47-28.27,33.34,0,0-19.15,7.16-36.05-1.62-16.9-8.77-35.98-24.49-63.1-19.04-8.16,1.64-17.71,9.13-27.08,18.82-24.42,25.24-37.8,59.14-37.8,94.26v16.89c0,10.95,8.97,19.86,19.91,19.8,71.74-.38,133.3-3.36,180.96-6.77,43.18-3.09,77.94-36.59,82.67-79.62,9.88-90.02,18.51-233.86,3.7-409.48l.04-.02Z"/>
</svg>