<?xml version="1.0" encoding="UTF-8"?>
<svg id="Capa_1" data-name="Capa 1" xmlns="http://www.w3.org/2000/svg" viewBox="0 0 600 600">
  <defs>
    <style>
      .cls-1 {
        fill: #f0c43f;
      }
    </style>
  </defs>
  <path class="cls-1" d="M578.75,198.32v.06c0,1.23,0,2.44-.06,3.73-.06,2.1-.17,4.23-.36,6.37-.2,2.24-.45,4.49-.73,6.7-.86,6.59-2.26,13.07-4.15,19.4-.64,2.16-1.34,4.32-2.12,6.42-15.67-13.24-33.63-23.86-53.15-31.18.67-3.7,1-7.51,1-11.41,0-4.54-.47-8.92-1.34-13.21-.2-1.04-.45-2.1-.73-3.14-.53-2.07-1.14-4.09-1.87-6.06-.73-1.99-1.56-3.95-2.48-5.89-4.96-10.43-12.66-19.32-22.17-25.77-6-4.09-12.77-7.18-20.02-9.06-1.03-.28-2.09-.53-3.12-.73-4.18-.87-8.56-1.32-13.05-1.32-2.17,0-4.35.11-6.47.34-32.74,3.25-58.31,31.01-58.31,64.83,0,4.04.36,7.99,1.09,11.8-19.41,7.4-37.28,18.06-52.84,31.35-3.65-9.9-6.08-20.22-7.14-30.76,0-.31-.06-.62-.08-.95-.22-2.41-.39-4.82-.47-7.21v-.53c0-1.26-.06-2.49-.06-3.73v-.06c0-4.54.22-9.03.73-13.46.17-1.57.36-3.11.56-4.71,1.09-7.51,2.84-14.83,5.24-21.87.56-1.71,1.17-3.42,1.84-5.1,1.95-5.08,4.24-9.98,6.8-14.72.92-1.71,1.9-3.39,2.9-5.05,1.03-1.68,2.06-3.31,3.15-4.91,1.14-1.65,2.32-3.34,3.49-4.94,1.23-1.6,2.4-3.11,3.65-4.68,0,0,.06,0,.06-.06,1.81-2.22,3.74-4.37,5.69-6.45,1.98-2.08,4.02-4.1,6.14-6.03,2.09-1.96,4.24-3.81,6.5-5.61,1.12-.87,2.26-1.77,3.43-2.66,10.35-7.71,21.92-13.88,34.41-18.11,1.95-.65,3.88-1.26,5.86-1.85,1.92-.53,3.88-1.04,5.83-1.51h.14c5.02-1.15,10.18-1.99,15.37-2.52,1.03-.11,2.09-.2,3.15-.28,3.12-.22,6.33-.36,9.54-.36,8.53,0,16.9.87,24.96,2.52,2.01.42,3.99.9,5.97,1.4,1.98.5,3.9,1.04,5.88,1.68,2.9.9,5.77,1.94,8.59,3.06,1.23.48,2.43.98,3.63,1.52,1.28.53,2.56,1.12,3.79,1.71,13.02,6.2,24.79,14.61,34.83,24.7,2.09,2.1,4.15,4.32,6.11,6.59.64.76,1.31,1.54,1.98,2.33,1.09,1.32,2.12,2.66,3.12,4.01,3.79,5.02,7.22,10.32,10.23,15.93.95,1.77,1.9,3.53,2.73,5.33,0,.08.08.14.08.17.81,1.63,1.56,3.34,2.26,5.02.97,2.27,1.9,4.57,2.7,6.93.28.67.53,1.35.73,2.02,2.37,7.04,4.15,14.33,5.21,21.87.2,1.6.42,3.14.56,4.71.53,4.43.75,8.89.75,13.46l.06-.06Z"/>
  <path class="cls-1" d="M270.78,401.9c0,68.84-55.77,124.53-123.95,124.53s-124.15-55.69-124.15-124.53h59.43c0,35.81,29.03,65.08,64.72,65.08s64.25-29.28,64.25-65.08h59.71Z"/>
  <path class="cls-1" d="M145.34,73.46C65.34,73.46,0,138.85,0,219.61s65.34,145.53,145.34,145.53,145.04-65.08,145.04-145.53S225.35,73.46,145.34,73.46ZM145.34,305.3c-47.41,0-85.81-38.53-85.81-85.69s38.43-86.28,85.81-86.28,85.53,38.64,85.53,86.28-38.32,85.69-85.53,85.69Z"/>
  <path class="cls-1" d="M454.96,234.89c-80.01,0-145.34,65.39-145.34,146.15s65.34,145.53,145.34,145.53,145.04-65.08,145.04-145.53-65.03-146.15-145.04-146.15ZM454.96,466.73c-47.41,0-85.81-38.53-85.81-85.69s38.43-86.28,85.81-86.28,85.53,38.64,85.53,86.28-38.32,85.69-85.53,85.69Z"/>
</svg>