<?xml version="1.0" encoding="UTF-8"?>
<svg id="Capa_1" data-name="Capa 1" xmlns="http://www.w3.org/2000/svg" viewBox="0 0 600 600">
  <defs>
    <style>
      .cls-1 {
        fill: #ffbe00;
      }
    </style>
  </defs>
  <path class="cls-1" d="M65.02,73.1v266.63h0c-.71,23.31,3.53,45.56,11.65,66.04,37.08,92.88,154.68,158.56,246.5,194.23v-46.62c-115.13-45.2-170.92-103.83-193.53-146.2-20.13-37.43-17.66-66.04-17.66-66.04V99.94l211.54-61.09V0L84.09,68.16l-19.07,4.94Z"/>
  <path class="cls-1" d="M330.23,539.96c14.83-7.06,28.25-14.48,40.97-21.9l1.41-124.66V73.1l-42.38-13.07v479.93Z"/>
  <path class="cls-1" d="M411.81,485.58c16.24-8.12,42.38-32.84,42.38-32.84V91.11l-42.38-13.07s0,407.53,0,407.53Z"/>
  <path class="cls-1" d="M493.03,105.59l1.06,186.82v119.36l1.06-1.41c2.83-3.53,5.3-7.06,7.42-10.24,30.02-43.08,31.43-73.81,31.43-73.81v-32.14l1.06-176.22-42.02-12.36Z"/>
</svg>