<?xml version="1.0" encoding="UTF-8"?>
<svg id="Capa_1" data-name="Capa 1" xmlns="http://www.w3.org/2000/svg" viewBox="0 0 600 600">
  <defs>
    <style>
      .cls-1 {
        fill: #f2cd16;
      }

      .cls-2 {
        fill: #544003;
        fill-rule: evenodd;
      }
    </style>
  </defs>
  <path class="cls-1" d="M300.83,2.97h0c165.69,0,300,134.31,300,300h0c0,165.69-134.31,300-300,300h0C135.14,602.97.83,468.65.83,302.97h0C.83,137.28,135.14,2.97,300.83,2.97Z"/>
  <path class="cls-2" d="M250.99,440.97c-20.05,0-37.79-12.98-43.86-32.09l-31.17-98.24h-19.16c-20.05,0-37.79-12.98-43.86-32.09l-18.52-58.37h69.46l-36.64-55.2h347.15l-36.64,55.2h69.46l-18.52,58.37c-6.06,19.11-23.8,32.09-43.86,32.09h-19.16l-31.17,98.24c-6.06,19.11-23.8,32.09-43.86,32.09h-99.68ZM227.44,283.8c0,14.82,11.07,26.83,24.72,26.83s24.72-12.01,24.72-26.83-11.07-26.83-24.72-26.83-24.72,12.01-24.72,26.83h0ZM374.22,283.8c0,14.82-11.07,26.83-24.72,26.83s-24.72-12.01-24.72-26.83,11.07-26.83,24.72-26.83,24.72,12.01,24.72,26.83h0Z"/>
</svg>