<?xml version="1.0" encoding="UTF-8"?>
<svg id="Capa_1" data-name="Capa 1" xmlns="http://www.w3.org/2000/svg" xmlns:xlink="http://www.w3.org/1999/xlink" viewBox="0 0 600 600">
  <defs>
    <style>
      .cls-1 {
        fill: none;
      }

      .cls-2 {
        fill: #001405;
      }

      .cls-3 {
        clip-path: url(#clippath);
      }
    </style>
    <clipPath id="clippath">
      <rect class="cls-1" width="600" height="600"/>
    </clipPath>
  </defs>
  <g class="cls-3">
    <g>
      <path class="cls-2" d="M200,437.06v125.86c0,20.51,16.62,37.08,37.08,37.08h125.85c20.51,0,37.08-16.62,37.08-37.08v-62.93c0-27.65,11.18-52.65,29.29-70.72,18.11-18.12,43.11-29.29,70.71-29.29h62.92c20.51,0,37.08-16.62,37.08-37.08v-125.81c0-20.51-16.62-37.08-37.08-37.08h-125.8c-20.51,0-37.08,16.62-37.08,37.08v65.98c0,53.55-43.41,96.92-96.91,96.92h-65.97c-20.51,0-37.08,16.62-37.08,37.08h-.1Z"/>
      <path class="cls-2" d="M0,237.08v125.85c0,20.51,16.62,37.08,37.08,37.08h125.85c20.51,0,37.08-16.62,37.08-37.08v-62.92c0-27.64,11.18-52.64,29.29-70.71,18.11-18.11,43.11-29.29,70.71-29.29h62.92c20.51,0,37.08-16.62,37.08-37.08V37.08c0-20.51-16.62-37.08-37.08-37.08h-125.8c-20.51,0-37.08,16.62-37.08,37.08v65.97c0,53.54-43.41,96.91-96.91,96.91H37.08c-20.51,0-37.08,16.62-37.08,37.08v.05Z"/>
    </g>
  </g>
</svg>