<?xml version="1.0" encoding="UTF-8"?>
<svg id="Capa_1" data-name="Capa 1" xmlns="http://www.w3.org/2000/svg" viewBox="0 0 600 600">
  <defs>
    <style>
      .cls-1 {
        fill: #e7f3fc;
      }

      .cls-2 {
        fill: #215ac2;
      }
    </style>
  </defs>
  <path class="cls-2" d="M599.87,283.18C572.95,116.96,321.71-42.39,159.53,20.96-75.51,113.8-43.83,591.2,239.06,590.21c152.09.64,366.99-148.09,360.81-307.04ZM7.35,314.63c.08.89.12,1.78.1,2.69-.04-.89-.07-1.79-.1-2.69ZM11.53,241.59c-.13-.36-.01-.75.22-1.15-.07.38-.14.77-.22,1.15ZM117.67,45.27s0,0,0,0c0,0,0,0,0,0ZM284.94,583.51c.64.02,1.3.02,1.95.03-.76.1-1.45.12-1.95-.03ZM548.73,419.83c.06-.08.1-.09.14.02,0,0-.14-.02-.14-.02Z"/>
  <path class="cls-1" d="M448.82,273.2c-6.89-13.48-44.59-2.17-62.49-.79-.38.03-.75-.08-1.13-.05-58.71,4.29-127.6,6.76-188.47,5.86-2.3-.03-4.32-1.63-4.8-3.88-1.78-8.46.94-20.23,2.75-30.12,2.98-16.29,4.08-32.71,8.01-50.19.34-1.51,1.37-2.79,2.77-3.43,56.71-26.01,141.63-26.53,206.81-27.4.33,0,.65.08.98.09,44.07.76,42.92-23.53,10.04-24.97-55.77-2.45-138.54-6.53-201.78,5.04-.46.08-.9.23-1.32.44-5.01,2.44-4.42-7.78-12.01-10.41-10.04-3.48-23.18,4.45-27.55,14.21-.62,1.39-1.89,2.37-3.36,2.77-12.58,3.42-33.25,3.62-38.02,17.45-.17.49-.54.89-.7,1.39-4.19,12.95,1.39,35.56,18.81,30.59.35-.1.72-.14,1.07-.27,15.99-5.74,11.68,2.51,8.86,15.29-1.66,8.79-4.92,29.05-6.5,43.8-.73,6.86-2.12,13.48-2.85,16.68-.28,1.21-1.13,2.2-2.28,2.65-4.75,1.88-17.31,7.97-18.62,20.28-1.4,13.04,7.03,21.45,14.8,24.87,1.81.8,3.01,2.54,3.04,4.51.54,33.53,1.72,75.44,16.74,105.37,43.35,84.73,165.68,32.36,219.54-17.15.21-.19,3.87-3.89,5.06-5.32,10.86-13.06,33.82-29.94,29.72-45.97-.25-.98-.86-1.86-1.66-2.49-12.26-9.67-24.51,13.57-31.91,20.67-.26.25-1.03,1.31-1.29,1.55-22.6,20.29-48.21,37.49-76.18,49.93-93.99,38.74-125.08-27.12-123.94-110.21.03-2.35,1.71-4.34,4.01-4.81,44.57-9.09,274.62-11.35,254.46-44.83M194.7,229.78s0,0,0,0c0,0,0,0,0,0Z"/>
</svg>