<?xml version="1.0" encoding="UTF-8"?>
<svg id="Capa_1" data-name="Capa 1" xmlns="http://www.w3.org/2000/svg" viewBox="0 0 600 600">
  <defs>
    <style>
      .cls-1 {
        fill: #624de3;
        stroke: #624de3;
        stroke-width: 15.64px;
      }
    </style>
  </defs>
  <path class="cls-1" d="M540.78,173.94c53.86,105.66,34.54,235.38-49.22,320.48-51.19,51.87-119.18,80.4-191.48,80.4-59.98,0-118.94-20.48-166.12-57.69l-8.17-6.45-7.38,7.41-80.71,81.91-33.29-33.79,79.06-80.32,1.65-1.59L441,123.11l-11.38-8.21c-38-27.41-82.83-41.99-129.69-41.99-59.75,0-115.88,23.67-158.12,66.53-64.93,65.9-83.38,165.66-47.18,250.68l-35.33,35.86C5.44,320.32,24.75,190.6,108.44,105.58c51.19-51.87,119.17-80.4,191.48-80.4,59.98,0,118.94,20.48,166.12,57.69l8.16,6.45,7.38-7.41L562.29,0l33.29,33.78-80.71,81.91-10.83,11.08-39.65,40.16-22.85,23.19L168.89,466.85l-9.89,10.04,11.38,8.21c38,27.41,82.83,41.99,129.69,41.99,59.74,0,115.88-23.66,158.11-66.53,64.93-65.9,83.38-165.66,47.18-250.68l35.41-35.94Z"/>
</svg>