<?xml version="1.0" encoding="UTF-8"?>
<svg id="Capa_1" data-name="Capa 1" xmlns="http://www.w3.org/2000/svg" viewBox="0 0 600 600">
  <path d="M537.87,381.39h-8.8l-4.81-1.28v-16.1s7.71.96,7.71.96c3.8.47,7.08-1.3,8.85-4.66,2.87-5.44,4.95-11.04,6.89-16.99l-36.06-87.43,19.37-.11,27.04,68.63,23.98-68.64,17.96.21-40.52,108.77c-3.57,9.59-12.07,14.93-21.61,16.64Z"/>
  <path d="M33.01,242.76c-2.06,4.68-2.63,9.53-2.46,14.7l16.15.09.03,14.06-16.21.16v71.47s-18.62.04-18.62.04l-.04-71.55-11.76-.08c-.14-4.73-.14-9.22-.01-14.09l11.7-.14c.1-5.03.1-9.45.97-14.15,2.2-11.99,10.88-20.92,22.9-23.5,7.58-1.63,15.27-1.5,23.01.05,12.72,2.55,22.4,12.97,22.46,26.3l.35,74.89c.02,4.17,3.11,7.29,7,7.1s7.33-1.19,11.45-2.48l2.68,15.35c-9.19,2.57-17.28,5.36-26.49,3.03-7.19-1.82-13.18-8.14-13.2-16.09l-.16-75.79c-.02-9.62-4.18-17.36-14.7-17.78-6.38-.25-12.3,2.13-15.06,8.39Z"/>
  <path d="M309.94,335.36c-.58-2.69-.46-5.26-.54-7.91-11.64,18.11-35.76,22.93-53.9,10.76-24.56-16.46-25.98-53.74-5.77-73.39,8.34-8.1,19.09-11.59,31.21-10.03,10.03,1.29,19.34,7.76,25.75,17.15l.07-51.71h18.53s.01,102.56.01,102.56c0,3.25,1.55,5.38,5.02,5.62v14.82c-3.04.45-5.48.84-8.41.93-5.21.17-10.79-3.33-11.97-8.81ZM306.16,311.94c1.31-7.68.87-15.58.08-22.96-.68-6.33-7.03-11.1-11.88-14.42-10.14-6.93-22.93-5.29-31.25,3.82-9.47,10.36-10.89,26.65-3.1,38.48,5.67,8.61,15.21,13.39,25.51,11.99,8.36-1.14,19-7.26,20.64-16.91Z"/>
  <polygon points="425.48 342.94 405.72 343.15 377.39 303.05 362.89 316.49 362.81 343.19 344.29 343.2 344.28 220.27 362.82 220.2 362.91 297.83 403.71 255.78 423.51 255.88 389.56 292.46 425.48 342.94"/>
  <path d="M492,317.83l15.81,4.51c-7.23,15.1-23.14,22.17-39.1,22.6-26.93.72-47.78-21.21-46.34-47.84,1.28-23.72,19.84-42.3,43.97-42.65,7.69-.11,15.04.79,22.05,4.16,17.56,8.43,27.32,27.31,24.58,46.86l-70.83.02c.44,9.07,5.58,17.19,12.36,21.52,8.62,5.51,18.58,5.45,27.2,1.19,4.52-2.23,7.99-5.13,10.29-10.38ZM494.93,293.33c-.88-14.96-13.03-25.56-27.19-25.3s-25.65,11.2-26.08,25.32h53.27Z"/>
  <path d="M185.46,323.09c0,3.44,1.99,4.96,5,5.37l.08,14.64c-3.46.69-7.21,1.18-10.85.65-4.84-.7-9.15-4.32-9.58-9.16l-.74-8.3c-8.79,13.04-23.16,19.42-38.67,18.55-18.96-1.07-25.28-17.5-25.29-34.28l-.02-54.8,18.61.05v52.77c.45,9.04,3.89,19.29,14.25,20.31,12.72,1.26,24.12-7,28.39-18.55l.33-54.58,18.47.02.02,67.31Z"/>
  <rect x="204.38" y="255.1" width="18.61" height="88.12"/>
  <rect x="204.38" y="220.2" width="18.61" height="20.4"/>
</svg>