<?xml version="1.0" encoding="UTF-8"?>
<svg id="Capa_1" data-name="Capa 1" xmlns="http://www.w3.org/2000/svg" viewBox="0 0 600 600">
  <defs>
    <style>
      .cls-1 {
        fill: #121212;
      }

      .cls-2 {
        fill: #fefefe;
      }
    </style>
  </defs>
  <polygon class="cls-1" points="0 599.25 0 0 600 0 600 600 0 600 0 599.25"/>
  <g>
    <path class="cls-2" d="M450,291.62c0,5.51-2.72,8.75-5.23,10.13-3.32,1.83-8.81,2.82-11.68-.09l-41.59-42.04.04-94.55c0-4.34,2.9-8.02,7.39-8.02h43.62c4.66.01,7.45,3.38,7.45,7.99v126.58Z"/>
    <g>
      <path class="cls-2" d="M449.96,430.64c-1,18.75-10,10.64-49.46,12.29-16.91.71-2.76-23.11-13.57-36.44l-37.46-38.94,41.68-41.52,38.43,39.44c16.19,17.96,21.68,40.9,20.39,65.17Z"/>
      <path class="cls-2" d="M203.16,442.29c-16.17,1.14-31.72.64-47.06.24-6.56-.17-5.77-7.49-6.07-11.91-1.71-25.4,4.83-49.4,22.58-67.56l36.18-36.99,41.56,41.36-37.88,39.89c-5.82,6.13-3.58,15.01-4.03,23.32.28,3.61.25,11.26-5.29,11.65Z"/>
    </g>
    <g>
      <path class="cls-2" d="M208.63,259.25l-39.39,40.46c-3.24,3.33-7.36,4.53-12.04,2.99-3.41-1.12-7.16-4.83-7.16-10.27l-.04-127.41c0-4.61,2.81-7.98,7.46-7.98h43.61c4.51-.02,7.38,3.68,7.39,8l.18,94.19Z"/>
      <path class="cls-2" d="M308.54,313.73c-5.31,5.37-11.84,5.52-16.8.55l-26.94-27.01c-4.31-4.32-4.66-10.66-.18-15.12l28.42-28.29c4.07-4.05,10.53-3.05,14.35.75l27.04,26.93c4.11,4.1,4.93,10.09,1.23,14.76l-27.12,27.44Z"/>
    </g>
  </g>
</svg>