<?xml version="1.0" encoding="UTF-8"?>
<svg id="Capa_1" data-name="Capa 1" xmlns="http://www.w3.org/2000/svg" viewBox="0 0 600 600">
  <defs>
    <style>
      .cls-1 {
        fill: #ffba00;
      }

      .cls-2, .cls-3 {
        fill: #1d1f20;
      }

      .cls-3 {
        fill-rule: evenodd;
      }
    </style>
  </defs>
  <path class="cls-1" d="M232.8,16.79c-.14-3.52,3.59-5.72,6.62-3.92,2.76,1.64,5.42,3.25,8.19,4.8,15.26,8.35,29.63,18.23,42.91,29.48,20.64,18.02,37.99,39.52,51.26,63.55,13.97,24.4,24.66,50.55,31.79,77.77,4.9,18.43,6.87,37.52,5.86,56.57-.27,2.54.29,5.11,1.59,7.3,1.3,2.2,3.27,3.92,5.62,4.9,2.36.93,4.95,1.08,7.4.42,2.45-.66,4.63-2.09,6.21-4.08,15.89-17.01,35.16-55.43,41.62-68.8,1.21-2.5,4.25-3.37,6.45-1.67,10.32,7.95,37.67,32.44,60.91,83.5,7.92,16.44,12.65,34.23,16.14,52.11,3.42,16.12,3.96,32.45,3.56,48.92-1.31,54.28-23.29,106.64-61.05,147.59-33.35,36.17-77.04,60.77-125.39,69.21-41.55,7.91-84.46,4.13-124.01-10.9-13.31-5.52-26.16-12.12-38.41-19.73-18.39-10.15-34.25-24.41-48.85-39.56-23.6-26.32-41.16-56.36-51.51-90.75-4.54-17.1-7.38-34.61-8.46-52.27-1.39-28.78,2.29-59.17,11.91-85.5,14.67-40.14,39.49-78.89,73.45-104.68,31.19-23.53,57.22-51.04,70.33-87.94,5.19-15.62,7.58-32.04,7.05-48.5,0-9.3-.83-18.58-1.19-27.86Z"/>
  <path class="cls-3" d="M222.46,15.04c-.45-11.59,12.02-18.81,21.84-12.97.55.33,1.09.65,1.62.97,2.19,1.31,4.23,2.52,6.34,3.71,15.9,8.7,30.88,19,44.71,30.73l.06.05.05.05c21.59,18.85,39.74,41.34,53.63,66.46,14.45,25.25,25.5,52.3,32.88,80.46,5.18,19.52,7.28,39.74,6.2,59.91v.26s-.04.25-.04.25c-.04.41.05.82.26,1.17.19.32.46.57.78.72.34.11.7.12,1.04.03.38-.1.72-.32.98-.64l.25-.31.27-.29c7.11-7.6,15.44-20.61,23.05-34.01,7.49-13.19,13.84-25.97,17.03-32.58,3.71-7.69,13.92-11.24,21.67-5.27,11.49,8.85,40.05,34.68,64.13,87.56,8.44,17.56,13.38,36.3,16.95,54.59,3.66,17.27,4.18,34.54,3.77,51.38-1.38,57.08-24.48,111.96-63.97,154.78-34.9,37.85-80.71,63.69-131.51,72.57-43.53,8.27-88.48,4.31-129.91-11.44l-.14-.05-.14-.06c-13.79-5.72-27.1-12.55-39.8-20.42-19.65-10.89-36.33-25.99-51.2-41.42l-.13-.13-.12-.13c-24.61-27.45-43.02-58.9-53.87-94.95l-.05-.16-.04-.16c-4.73-17.81-7.69-36.05-8.82-54.45v-.07s0-.07,0-.07c-1.45-29.99,2.36-61.88,12.56-89.79l9.45,3.45-9.45-3.45c15.21-41.63,41.12-82.33,77.12-109.67h.01s.01-.02.01-.02c30.49-23,54.91-49.13,67.17-83.55,4.81-14.53,7.03-29.81,6.54-45.12v-.16s0-.16,0-.16c0-5.75-.31-11.18-.64-16.91-.2-3.41-.4-6.92-.54-10.67ZM243.1,24.66c.33,5.84.66,11.96.66,17.8.54,17.66-2.03,35.27-7.59,52.04l-.03.1-.04.1c-14.09,39.65-41.92,68.73-74.03,92.96-32.19,24.45-56.13,61.56-70.38,100.54-9.11,24.94-12.7,54.06-11.36,81.85,1.05,16.99,3.77,33.84,8.13,50.29,9.93,32.9,26.73,61.69,49.42,87.03,14.34,14.87,29.42,28.31,46.54,37.76l.23.12.22.14c11.8,7.32,24.16,13.68,36.98,19.01,37.94,14.39,79.09,18,118.93,10.41l.07-.02h.08c46.28-8.09,88.19-31.65,120.25-66.42,36.36-39.43,57.39-89.7,58.65-141.63.39-16.21-.15-31.72-3.36-46.79l-.02-.08-.02-.08c-3.43-17.57-7.98-34.49-15.4-49.89l-.05-.1-.04-.1c-19.03-41.81-40.74-64.97-52.62-75.46-3.59,7.21-8.69,17.1-14.46,27.26-7.6,13.39-16.83,28.07-25.61,37.56-2.9,3.5-6.82,6.02-11.22,7.19-4.54,1.22-9.36.94-13.73-.78l-.1-.04-.09-.04c-4.37-1.83-8.02-5.02-10.42-9.08-2.35-3.98-3.39-8.6-2.97-13.2.94-18.01-.94-36.05-5.57-53.48v-.02s0-.02,0-.02c-6.94-26.48-17.33-51.92-30.92-75.65l-.04-.07-.04-.07c-12.75-23.08-29.41-43.74-49.23-61.05-12.64-10.71-26.31-20.12-40.81-28.11Z"/>
  <path class="cls-2" d="M265.29,301.43c2.79,1.54,5.17,3.06,7.71,4.49,7.86,4.3,15.27,9.39,22.11,15.19,10.63,9.28,19.57,20.36,26.41,32.74,7.2,12.57,12.7,26.04,16.38,40.07,2.52,9.5,3.54,19.33,3.02,29.14-.14,1.31.15,2.63.82,3.77.67,1.13,1.69,2.02,2.9,2.52,1.22.48,2.55.56,3.82.22,1.26-.34,2.38-1.07,3.2-2.1,10-10.7,16.48-24.54,21.82-37.73,14.98,12.11,26.57,27.07,34.32,44.45,4.08,8.47,6.52,17.63,8.32,26.85,1.76,8.3,2.04,16.72,1.83,25.2-.68,27.96-12,54.94-31.46,76.04-17.18,18.64-39.69,31.3-64.6,35.66-21.4,4.07-43.51,2.13-63.89-5.62-6.86-2.84-13.48-6.24-19.79-10.16-9.47-5.23-17.65-12.58-25.16-20.38-12.16-13.56-21.2-29.04-26.54-46.75-2.34-8.81-3.8-17.83-4.36-26.93-.72-14.83,1.18-30.48,6.14-44.04,7.56-20.68,20.34-40.64,37.84-53.93,16.07-12.12,29.48-26.29,36.23-45.3,2.67-8.05,3.9-16.51,3.63-24.99,0-6.14-.7-12.26-.7-18.39Z"/>
</svg>