<?xml version="1.0" encoding="UTF-8"?>
<svg id="Capa_1" data-name="Capa 1" xmlns="http://www.w3.org/2000/svg" viewBox="0 0 600 600">
  <path d="M304.65,271.52c-17.81,0-26.55,9.62-30.57,13.98-6.57-8.43-14.42-13.93-28.28-13.93-10.32,0-23.15,6.03-26.56,14.01v-12.64h-25.56v95.54h26.19v-54.14c0-10.34,8.34-18.73,18.65-18.73s18.65,8.37,18.65,18.73v54.16h26.11l.03-54.18c0-10.34,8.34-18.73,18.65-18.73s18.65,8.37,18.65,18.73l-.03,54.16h26.19v-51.64c0-18.95-7.07-45.33-42.11-45.33Z"/>
  <path d="M373.84,264.74c9.61,0,17.4-7.79,17.4-17.4s-7.79-17.4-17.4-17.4-17.4,7.79-17.4,17.4,7.79,17.4,17.4,17.4Z"/>
  <path d="M386.95,272.95h-26.81v95.54h26.81v-95.54Z"/>
  <path d="M26.81,238.93H0v129.63h26.81v-129.63Z"/>
  <path d="M551.01,370.07c-13.96,0-25.75-4.18-35.06-13.62-9.3-9.42-14.01-21.36-14.01-35.45s4.72-26.04,14.01-35.49c9.31-9.46,21.11-13.98,35.06-13.98s25.75,4.5,35.03,13.98c9.27,9.46,13.96,21.4,13.96,35.49s-4.71,26.03-13.97,35.45c-9.28,9.44-21.06,13.62-35.01,13.62ZM551.01,295.96c-6.7,0-12.05,2.33-16.35,7.1-4.39,4.88-6.53,10.73-6.53,17.91s2.13,13.01,6.52,17.86c4.29,4.77,9.66,7.06,16.36,7.06s12.07-2.3,16.36-7.06c4.39-4.84,6.52-10.69,6.52-17.86s-2.14-13.04-6.52-17.91c-4.29-4.78-9.64-7.1-16.35-7.1Z"/>
  <path d="M154.81,272.95v8.17c-4.61-4.6-9.31-9.68-22.74-9.68-8.63,0-16.47,1.75-23.27,5.83-7.33,4.35-13.27,10.46-17.7,18.12-4.43,7.69-6.69,16.27-6.69,25.52s2.21,17.79,6.59,25.39c4.37,7.59,10.28,13.63,17.61,17.99,7.05,4.18,15.09,5.7,23.9,5.7,8.34,0,16.81-4.34,22.31-9.68v8.17h25.53v-95.52h-25.55,0ZM134.6,347.19c-13.83,0-25.03-11.78-25.03-26.31s11.22-26.31,25.03-26.31,25.04,11.78,25.04,26.31-11.22,26.31-25.04,26.31Z"/>
  <path d="M455.81,271.52c-12.41,0-23.89,6.75-29.72,16v-14.58h-25.82v95.54h26.45v-54.47c0-10.34,8.06-18.73,19.75-18.73s19.75,8.37,19.75,18.73v54.47h26.45v-57.12c0-14.54-6.22-39.86-36.87-39.86h0Z"/>
  <path d="M90.89,366.94c-13.43-9.26-22.5-26.48-22.5-46.21s9.07-36.95,22.5-46.21v-1.56h-37.15c-8.69,13.47-13.89,29.94-13.89,47.77s5.18,34.29,13.89,47.77h37.15v-1.56Z"/>
</svg>