<?xml version="1.0" encoding="UTF-8"?>
<svg id="Capa_1" data-name="Capa 1" xmlns="http://www.w3.org/2000/svg" viewBox="0 0 600 600">
  <defs>
    <style>
      .cls-1 {
        fill: #4172e4;
      }

      .cls-2 {
        fill: #0b0a0c;
      }

      .cls-3 {
        fill: #3f74ef;
      }

      .cls-4 {
        fill: #0f1221;
      }

      .cls-5 {
        fill: #3b5c9a;
      }

      .cls-6 {
        fill: #0e0e0f;
      }

      .cls-7 {
        fill: #3f71f5;
      }

      .cls-8 {
        fill: #3c6ded;
      }

      .cls-9 {
        fill: #12101b;
      }

      .cls-10 {
        fill: #11140c;
      }

      .cls-11 {
        fill: #3c73f4;
      }

      .cls-12 {
        fill: #406ff0;
      }

      .cls-13 {
        fill: #4470e7;
      }

      .cls-14 {
        fill: #101210;
      }

      .cls-15 {
        fill: #4663ab;
      }

      .cls-16 {
        fill: #09080a;
      }

      .cls-17 {
        fill: #416fed;
      }

      .cls-18 {
        fill: #111524;
      }

      .cls-19 {
        fill: #4471f2;
      }

      .cls-20 {
        fill: #0b1528;
      }

      .cls-21 {
        fill: #101307;
      }

      .cls-22 {
        fill: #081616;
      }

      .cls-23 {
        fill: #13130c;
      }

      .cls-24 {
        fill: #13120b;
      }

      .cls-25 {
        fill: #0d0d0b;
      }

      .cls-26 {
        fill: #0e1410;
      }

      .cls-27 {
        fill: #3c72fc;
      }

      .cls-28 {
        fill: #10111d;
      }

      .cls-29 {
        fill: #071a3b;
      }

      .cls-30 {
        fill: #0b1e45;
      }

      .cls-31 {
        fill: #4e7be0;
      }

      .cls-32 {
        fill: #f6f6f6;
      }

      .cls-33 {
        fill: #161617;
      }

      .cls-34 {
        fill: #0e111f;
      }

      .cls-35 {
        fill: #0b1508;
      }

      .cls-36 {
        fill: #4d69d8;
      }

      .cls-37 {
        fill: #0d184e;
      }

      .cls-38 {
        fill: #0a1944;
      }

      .cls-39 {
        fill: #0a153c;
      }

      .cls-40 {
        fill: #3a73f1;
      }

      .cls-41 {
        fill: #0b1318;
      }

      .cls-42 {
        fill: #3c72fa;
      }

      .cls-43 {
        fill: #111117;
      }

      .cls-44 {
        fill: #0a1623;
      }

      .cls-45 {
        fill: #1e1e1e;
      }

      .cls-46 {
        fill: #4063bf;
      }

      .cls-47 {
        fill: #0b1534;
      }

      .cls-48 {
        fill: #4062b7;
      }

      .cls-49 {
        fill: #476fd5;
      }

      .cls-50 {
        fill: #0e1317;
      }

      .cls-51 {
        fill: #0f131a;
      }

      .cls-52 {
        fill: #0a123b;
      }

      .cls-53 {
        fill: #10140e;
      }

      .cls-54 {
        fill: #426dfe;
      }

      .cls-55 {
        fill: #11130c;
      }

      .cls-56 {
        fill: #021444;
      }

      .cls-57 {
        fill: #171a1b;
      }

      .cls-58 {
        fill: #0f1321;
      }

      .cls-59 {
        fill: #466ae1;
      }

      .cls-60 {
        fill: #0d1512;
      }

      .cls-61 {
        fill: #0f111d;
      }

      .cls-62 {
        fill: #07090b;
      }

      .cls-63 {
        fill: #4370f1;
      }

      .cls-64 {
        fill: #3f71fe;
      }

      .cls-65 {
        fill: #0c1d45;
      }

      .cls-66 {
        fill: #3974f7;
      }

      .cls-67 {
        fill: #0f111e;
      }

      .cls-68 {
        fill: #07173e;
      }

      .cls-69 {
        fill: #3b73f9;
      }

      .cls-70 {
        fill: #406ff1;
      }

      .cls-71 {
        fill: #081337;
      }

      .cls-72 {
        fill: #0e0f20;
      }

      .cls-73 {
        fill: #3e6ef0;
      }

      .cls-74 {
        fill: #3e6efb;
      }

      .cls-75 {
        fill: #02162b;
      }

      .cls-76 {
        fill: #4569e0;
      }

      .cls-77 {
        fill: #f8fbfa;
      }

      .cls-78 {
        fill: #140f2c;
      }

      .cls-79 {
        fill: #101214;
      }

      .cls-80 {
        fill: #3e72f3;
      }

      .cls-81 {
        fill: #10140c;
      }

      .cls-82 {
        fill: #131115;
      }

      .cls-83 {
        fill: #11140a;
      }

      .cls-84 {
        fill: #222;
      }

      .cls-85 {
        fill: #f0f1f1;
      }

      .cls-86 {
        fill: #1a1a1b;
      }

      .cls-87 {
        fill: #111b31;
      }

      .cls-88 {
        fill: #4d6fda;
      }

      .cls-89 {
        fill: #3d71fc;
      }

      .cls-90 {
        fill: #f5f8f7;
      }

      .cls-91 {
        fill: #3a74fb;
      }

      .cls-92 {
        fill: #10140f;
      }

      .cls-93 {
        fill: #3c74f3;
      }

      .cls-94 {
        fill: #0f1411;
      }

      .cls-95 {
        fill: #3b73f5;
      }

      .cls-96 {
        fill: #161627;
      }

      .cls-97 {
        fill: #121120;
      }

      .cls-98 {
        fill: #3a75f7;
      }

      .cls-99 {
        fill: #0e150d;
      }

      .cls-100 {
        fill: #476edb;
      }

      .cls-101 {
        fill: #3b72fd;
      }

      .cls-102 {
        fill: #4172eb;
      }

      .cls-103 {
        fill: #11120e;
      }

      .cls-104 {
        fill: #16181a;
      }

      .cls-105 {
        fill: #0e0d0f;
      }

      .cls-106 {
        fill: #101219;
      }

      .cls-107 {
        fill: #3853a3;
      }

      .cls-108 {
        fill: #0a0d0e;
      }

      .cls-109 {
        fill: #4b6eda;
      }

      .cls-110 {
        fill: #182f6a;
      }

      .cls-111 {
        fill: #110d0d;
      }

      .cls-112 {
        fill: #181a1a;
      }

      .cls-113 {
        fill: #091439;
      }

      .cls-114 {
        fill: #4170f2;
      }

      .cls-115 {
        fill: #0f1507;
      }

      .cls-116 {
        fill: #3a71fc;
      }

      .cls-117 {
        fill: #4070e4;
      }

      .cls-118 {
        fill: #0e1622;
      }

      .cls-119 {
        fill: #081124;
      }

      .cls-120 {
        fill: #15111d;
      }

      .cls-121 {
        fill: #0b1319;
      }

      .cls-122 {
        fill: #4672f5;
      }

      .cls-123 {
        fill: #121514;
      }

      .cls-124 {
        fill: #3e6de6;
      }

      .cls-125 {
        fill: #3f71f8;
      }

      .cls-126 {
        fill: #10121c;
      }

      .cls-127 {
        fill: #3e72eb;
      }

      .cls-128 {
        fill: #4670ea;
      }

      .cls-129 {
        fill: #4070f0;
      }

      .cls-130 {
        fill: #5068c8;
      }

      .cls-131 {
        fill: #fefefe;
      }

      .cls-132 {
        fill: #03162e;
      }

      .cls-133 {
        fill: #141629;
      }

      .cls-134 {
        fill: #fafafa;
      }

      .cls-135 {
        fill: #071226;
      }

      .cls-136 {
        fill: #101329;
      }

      .cls-137 {
        fill: #f8f8f8;
      }

      .cls-138 {
        fill: #140e1f;
      }

      .cls-139 {
        fill: #0f121b;
      }

      .cls-140 {
        fill: #3b73f3;
      }

      .cls-141 {
        fill: #3d72f7;
      }

      .cls-142 {
        fill: #f7f7f7;
      }

      .cls-143 {
        fill: #f5f7f8;
      }

      .cls-144 {
        fill: #f7f8f7;
      }

      .cls-145 {
        fill: #3a75f5;
      }

      .cls-146 {
        fill: #3b73f1;
      }

      .cls-147 {
        fill: #08163b;
      }

      .cls-148 {
        fill: #3a76ec;
      }

      .cls-149 {
        fill: #416ff3;
      }

      .cls-150 {
        fill: #436fd9;
      }

      .cls-151 {
        fill: #0b140c;
      }

      .cls-152 {
        fill: #181a1e;
      }

      .cls-153 {
        fill: #10142e;
      }

      .cls-154 {
        fill: #3e6ee4;
      }
    </style>
  </defs>
  <polygon class="cls-79" points="0 599.25 0 0 600 0 600 600 0 600 0 599.25"/>
  <g>
    <path class="cls-67" d="M275.86,489.41c1.13,4.16,5.18,2.75,9.38,2.74l170.27-.19c.84,1.52.48,2.34.48,3.04l-.26,1.5h-142.71l-1.03-1.5-48.22-.41c1.76-3.97,5.99-2.4,6.1-5.59,2-.04,4,.1,5.98.4Z"/>
    <path class="cls-50" d="M312,498c-.22-1.45.04-1.5,1.03-1.5h141.95l1.03,1.5c1.01,0,2.35-.34,2.77.85.25.72.23,1.51.23,2.15l-172.28-.31c8.13-6.22,17.35-.97,25.28-2.69Z"/>
    <path class="cls-4" d="M492.01,320.83l1.58,1.38c-2,5.67-1.85,10.64.44,14.92-3.55,15.37-5.21,30.82-4.98,46.35l-2.96,5.31c4.54-.49,4.1,9.35-.25,9.99-1.36,2.03-1.84,4.75-1.45,8.15l-1.62.85c-.94.4-2.87.91-2.87,3.09l.08,31.64c-.53,3.27-1.53,4.27-3,3-2.22-6.96-2.22-14.46,0-22.5-2.93-7.49-1.26-17.95,1.01-25.9-.33-4.69.39-8.55,2.17-11.6-1.25-.55-1.23-1.05.06-1.5l1.23-19.33,1.53-1.67,3-19.5c-2.54-3.96-2.09-13.04,1.28-16.29-1.16-1.45-1.06-4.88.22-6.21.43-1.31.93-1.29,1.5,0,.25-4.01,1.65-3.91,3.01-.17Z"/>
    <path class="cls-106" d="M495,312c1.48,20.83,2.93,5.59,3.17,23.57v22.66s-2.55,2.03-2.55,2.03c4.37.1,5.46,9.91,2.24,11.97-2.99,1.49-3.93,4.76-2.84,9.79l-2.88,1.84c-1.79,5.94-3.81,7.58-6.04,4.93.23-9-1.52-18.75.86-27.71,2.01-7.56,2.38-14.63,5.02-22.17-5.21-5.73-2.5-12.21.04-18.08-2.46.04-2.23-7.74-.01-8.83.48-3.98,1.86-3.81,3,0Z"/>
    <rect class="cls-60" x="312" y="495" width="144" height="3"/>
    <path class="cls-75" d="M500.54,197.68c-31.91,1.74-67.55,1.45-100.04.32-1.03-.74-1.25-1.87-1.5-3,.43-2.32,5.13-2.3,6,0l74.98.23c4.35.01,8.08,1.33,10.45-3.76,4.49,7.56,10.61,1.05,10.11,6.2Z"/>
    <path class="cls-94" d="M375.54,233.59c.66,2.24,1.39,4.45,2.2,6.65,2.25-.62,1.8,1.47,0,2.54-.08,2.91-1.24,2.95-2.31.18l-1.93,1.55c1.02,1.84.34,2.65-1.5,1.5-.2,4.25-1.69,4.19-3.33.35-1.8.19-3.61.34-5.36-.19-.94-3.71,4.06-21.48,4.33-21.8,2.48-2.93,11.51-3.77,13.11.35,2.1,5.42-4.13,3.41-5.21,8.88Z"/>
    <path class="cls-139" d="M272.91,446.95c1.59.24,2.24,1.55,1.96,3.93-1.42-7.3,2.69-7.89,3.81-.63,2.58-.71,2.77,1.12.57,5.48.97.5,1.74,1.02,1.82,1.63.17,1.38-5.43,13.51-6.54,15.07-.21.29-.85.27-1.61.16l-2.27,5.6c.93,4.19-.23,6.66-3.48,7.39-1.95.21-3.38-2.19-3.06-4.28.16-1.07,1.37-1.57,3.09-3.08.14-3.73-4.39-4.62-2.95-8.9,1.93,1.05,2.18,3.74,3.67,2.61s1.93-2.66,2.28-3.86c3.48-.06,2.78-3.94,1.86-6.96-.47-1.53-1.41-3.01-4.25-3.15,1.22-2.13,2.21-2.98,1.73-3.83-.6-1.06-1.69-1.69-2.25-2.86-1.08-2.23.66-3.67,2.28-4.04,1.03-.24,2.2-.35,3.35-.29Z"/>
    <path class="cls-126" d="M328.43,341.98c.43,5.91-1,11.84-4.29,17.79-.35,2.33-1.67,4.62-3.14,6.23-1.56,1.25-2.56.25-3-3-1.8-2.72-3.07-5.78-2.96-9-1.95-1.11-2.2-3.07.28-3.43,3.07-1.68,4.36-5.65,5.49-8.85-3.88-1.09-3.55-4.12.27-5.3,1.84.12,4.15-.82,6.07.17,1.77.92,1.27,3.64,1.28,5.39Z"/>
    <path class="cls-53" d="M347.79,288l-.15,1.77c-.17,7.25-2.11,9.78-5.81,7.59-6.75-.25-6.93-13.37-4.65-17.53,1.51-1.87,7.78-1.23,9.69.22,2.52,1.92.51,5.95.92,7.95Z"/>
    <path class="cls-43" d="M501,373.5l-.24,30.07c-.02,2.33-1.48,3.3-2.74,3.89-1.09.51-3.34,1.02-3.31-.98l.29-22.48-.13-8.66,2.96-1.78c.31-4.28,1.84-3.95,3.17-.06Z"/>
    <path class="cls-58" d="M377.74,242.78c1.1-.66,1.3.38.61,3.12.59.74,1.08,1.5,1.2,2.31.13.92-6.8,14.49-8.16,16.66-.31.49-1.23.6-2.32.61l-4.1,8.01-2.01-.48c-2.88-4.57-4.76-9.71-1.68-15.43,2.05.82,1.49,2.44,1.72,3.43,1.12.7,2.2.2,3.24-1.51.21-2.47,2.18-4.77,2.91-7.22,1.38-2.32,2.12-.85,2.3,1.34.02.28-2.44-4.78.55-4.6.25-1.34,1.25-2.34,3-3-1.35-2.01-1.21-3.02.43-3.05l2.31-.18Z"/>
    <path class="cls-26" d="M498.17,335.57l2.59.51c3.02,7.08,2.61,16.49.1,23.76-.58,4.43-3.41,4.33-5.23.42-.15-.52-2.97-26.54,2.55-24.69Z"/>
    <path class="cls-14" d="M279.24,440.78c2.32.89,1.93,5.27-.27,6.5,3.14.55,2.83,2.52-.3,2.97-.23-.12-1.62-.92-2.4-1.61-.37-.33,2.46-1.12-.01-1.65-.72,3.01.59,4.64-1.61,5.63-.68-2.19-1.91-4.09-1.74-5.67.7-6.45-6.44-13.59-2.09-14.77,1.74-.47,4.7-.68,6.75.37,2.65,1.36,1.77,5.81,1.67,8.23Z"/>
    <path class="cls-10" d="M492.14,383.86l-.23,23.84c-2.35.66-4.24.42-5.91.3-2.63-.36-2.15-7.69-.15-9.22l.25-9.99c3.18-.31,2.35-5.11,6.04-4.93Z"/>
    <path class="cls-82" d="M347.79,288c.71,3.44-.37,7.35,3.17,8.89,2.23,2.14-.47,9.11-4.07,7.7.62,2.89-.07,3.61-2.15,1.43.31,4.41-4.57,4.19-5.58.02.06-3.12,3.32-5.33,2.67-8.68,4.37-.71,2.85-11.58,5.96-9.36Z"/>
    <path class="cls-61" d="M502.5,240c2.86,6.82.41,14.55,1.56,22.6.25,1.74-2.25,1.54-3.06,1.4l-1.42-.66c.51-4.76-.02-8.54-1.58-11.34-.93-2.57-1.04-5.57-.34-9-2.33-1.07-2.29-2.32.21-3l1.75-1.12c.37,2.09,1.33,2.46,2.88,1.12Z"/>
    <path class="cls-92" d="M497.86,372.23c1.26.25,1.2.7-.03,1.33-.2,3.89,2.25,9.8-2.83,10.44l-2.86-.14c.06-5.85-1.34-11.57.71-18.37,3.69,2.48,1.48,6.96,5,6.74Z"/>
    <path class="cls-97" d="M477,447c2.92.08,2.44,7.67,0,9,2.48,2.41,2.6,12.47,0,15l-2.8.2c-.18-2.05-.2-4.14-.2-6.2l-1.53-.68c.15-5.42.66-10.69,1.53-15.82-2.4.07-2.26-5.25,0-6,1.33-1.59,2.33-.09,3,4.5Z"/>
    <path class="cls-55" d="M303.2,384.46c3.88-.3,3.96,2.82,2.98,5.74,3.56-.51,1.83,4.19-.4,5.58-1.44.22-3.28.76-4.54-.05-.28-.18-5.29-8.76-3.61-10.64,1.35-1.52,3.85-.62,5.57-.63Z"/>
    <path class="cls-121" d="M480,456c0,8.09.84,16.01-.72,25.02-4.17-3.04-2.28-7.02-2.28-10.02v-15c.59-3.95,1.83-3.83,3,0Z"/>
    <path class="cls-34" d="M344.74,306.01c.58,4.71.17,13.8-5.56,13.42-.59-.37-1.01-1.22-1.68-1.43-.74-1.97-.57-5.12,1.54-6l.12-5.97,5.58-.02Z"/>
    <path class="cls-9" d="M500.85,359.83c.26-7.92.26-15.85-.1-23.76,5.79-4.4,2.46,19.53,3.05,23.58-.62.7-2.37.13-2.95.18Z"/>
    <path class="cls-18" d="M359.72,276.2c4.21,3.22-.34,15.46-5.61,13.42-2.27.66-2.26-.37-.41-1.92l1.4-10.93c1.69-.43,3.14-.48,4.63-.57Z"/>
    <path class="cls-51" d="M387.13,192.46c3.32-.09,3.53,2.55,2.86,5.25.17,2.9-.5,5.64-2.31,9.36l-3.71-10.49c-.56-1.6-.45-3.71.81-4.43.54-.31,1.72.4,2.35.31Z"/>
    <path class="cls-28" d="M500.85,359.83c-.15,4.58.18,9.11.15,13.67l-3.17.06c.02-.41-.11-.95.03-1.33,1.53-4.29-1.08-7.96-2.24-11.97l5.23-.42Z"/>
    <path class="cls-139" d="M264.64,431.39c2.15-3.18,4.9,13.23,5.41,11.97-.43,1.05-4.79,1.46-5.38.08-1.53-3.58-.77-8.08-.03-12.05Z"/>
    <path class="cls-51" d="M395.7,204.53c.25,3.33-.79,7.06-3.12,11.21-1.57,2.86-2.35,3.4-4.09.34.86-3.46.35-7.31,2.33-11.13l4.88-.41Z"/>
    <path class="cls-22" d="M501,264c-.74-.13-1.96.28-2.79.19l-.21-6.19c-2.16-.01-1.62-4.75,0-6,1.44-.34.95-2.2,2.72-3.14l.28,15.14Z"/>
    <path class="cls-83" d="M389.99,197.71c-2.57-.31-3.01-3.03-2.86-5.25,2.45-.34,4.35-.7,5.41.46.62.68.8,2.52-.02,3.55-.51.65-1.44.91-2.53,1.24Z"/>
    <path class="cls-81" d="M321.08,336.42c-.15,1.7.31,3.65-.27,5.3-1.83-.01-3.7-.2-5.54-.06-2.54.42-2.51-4.81-.07-5.48,1.96-.06,3.92.1,5.88.23Z"/>
    <path class="cls-4" d="M495.14,300.06c-.02,3.97-.42,7.98-.14,11.94h-3l.04-10.58c0-1.84,2.17-1.65,3.1-1.37Z"/>
    <path class="cls-78" d="M310.5,387c.14,2.89-2.02,5.68-4.32,3.2-2.49-.83-2.78-3.39-2.98-5.74,1.48,0,2.9-.58,4.82-.28,1.15.18,2.42,1.04,2.48,2.81Z"/>
    <path class="cls-120" d="M480,456h-3c0-3.05,1.34-6.16,0-9v-1.5l3-3v13.5Z"/>
    <path class="cls-4" d="M495.2,298.7c-.27-3.56-.2-7.13-.2-10.7,1.27-.33,2.59-.05,2.82.95.25,1.06,1.52,11.75-2.63,9.75Z"/>
    <path class="cls-151" d="M363.31,246.17c.76,2.98-1.07,6.47-.3,10.36-4.46-.08-2.95-9.78-2.97-9.7.29-1.14,2.1-1.01,3.27-.66Z"/>
    <path class="cls-6" d="M286.5,234c1.3,1.85-1.07,5.14-2.8,5.84-2.55,1.02-5.54-2.23-6.24-4.22,2.38-.94,3.72,1.34,5.37,2.95.96-2.76,1.46-5.02,3.68-4.57Z"/>
    <path class="cls-99" d="M315.33,350.57c.21,1.1-.39,2.3-.28,3.43-2.17-.3-3.59-1.85-3.19-3.7.49-2.28-1.06-4.57,1.98-5.95,1.93,2.21,1.13,4.32,1.49,6.23Z"/>
    <path class="cls-106" d="M485.85,398.78l.15,9.22-3.22-.23.3-7.24c.06-1.56,1.63-2.55,2.77-1.76Z"/>
    <path class="cls-23" d="M459,501c3.08,0,6.13-1.08,9.86,1.36-3.04,2.61-9.87,3.57-9.86-1.36Z"/>
    <path class="cls-136" d="M317.78,371.78c-1.22,2.22-2.35,4.2-3.33,7.73-.87-.57-1.57-1.23-2.46-1.51.06-1.77-.07-4.02,1.58-5.31,1.08-.84,2.8-.83,4.2-.91Z"/>
    <path class="cls-105" d="M331.5,138c-1.32-2.2-1.23-5.67,1.5-6,.28-.41,1.02-.58,1.07-1.12.06-.63-.12-1.35-1.01-2.42-.67-2.67,1.19-2.87,2.64-.59,1.29,3.73-1.37,8.18-4.19,10.13Z"/>
    <path class="cls-111" d="M294.59,414.46c.12,2.02-1.74,4.03-2.37,5.65-3.17-1.09-2.06-4.58-.8-8.7,1.23.65,1.9,2.14,3.17,3.05Z"/>
    <path class="cls-24" d="M372,246c2.13.85,2.06,2.04,0,3-.22,1.99.7,4.18-.69,6.03-1.23-1.43-1.2-2.58-2.16-2.77.52-1.78-.83-4.07-.48-5.91l3.33-.35Z"/>
    <path class="cls-118" d="M498,273c-.04,1.49.3,3.04-.17,4.99-.24,1.02-1.51,1.35-2.83,1.01,0-1.48-.33-3.02.19-4.9.28-1.03,1.48-1.44,2.81-1.1Z"/>
    <path class="cls-2" d="M286.5,229.63c-.9,2.62-1.66.03-1.98-.69-.74-1.63-.46-3.32.51-4.17,1.79-1.28,2.48-.22,2.53,1.16.07,1.57-.58,2.59-1.06,3.71Z"/>
    <path class="cls-108" d="M225,361.5c1.11,2.41,1.11,4.41,0,6-.75,2.21-2.76-8.81-2.28-8.96.84-.26,2.91-.31,3.66.58.44.53-1.59,1.69-1.38,2.37Z"/>
    <path class="cls-41" d="M468.05,488.93c-.89,1.3-.21,4.22-3.87,3.23-1.73-.47-2.71-.73-2.18-3.16l6.05-.07Z"/>
    <path class="cls-139" d="M282.06,440.99c-.52.88.41,2.67.08,3.78-.38,1.3-1.25,3.34-3.18,2.51l.27-6.5,2.82.21Z"/>
    <path class="cls-35" d="M405,195h-6c-.66-3,1.03-3.18,3.77-3.1,1.96.06,2.7.87,2.23,3.1Z"/>
    <path class="cls-115" d="M270.18,468.08c-3.45-1.25-4.29-5.88-1.64-6.06,2.61.11,1.03,4.51,1.64,6.06Z"/>
    <path class="cls-108" d="M321,157.5c1.11,2.41,1.11,4.41,0,6-.76,2.2-2.75-8.79-2.28-8.97.75-.27,3.1-.14,3.62.54.45.59-1.52,1.73-1.34,2.42Z"/>
    <path class="cls-138" d="M315.2,336.19l.07,5.48c-1.02.08-3.04.97-3.22-.44-.2-1.53-.15-2.89,0-4.43.13-1.38,2.11-.58,3.15-.61Z"/>
    <path class="cls-119" d="M378.24,234.28l-.5,5.95c-1.51.65-2.46-.49-2.67-1.38-.42-1.79.21-3.97.47-5.26l2.7.69Z"/>
    <path class="cls-72" d="M339.04,312c-.04,2.09-.27,4.22-1.54,6-1.74-.56-1.46-2.21-1.61-3.74-.21-2.15,1.18-2.66,3.15-2.26Z"/>
    <path class="cls-112" d="M297.12,212.72c-2.34,2.35-5.16,2.38-3.85.12,1.14-3.91,4.12-3.8,3.85-.12Z"/>
    <path class="cls-16" d="M309.23,180.11c.18,4.03-3.63,4.03-3.46,0,.1-2.26,3.36-2.26,3.46,0Z"/>
    <path class="cls-152" d="M234.95,341.65c-1.89-1.77-.86-4.41-.72-6.93.86-.38,1.6,1.01,2.09,1.29,1.21.71-.56,1.55-1.37,5.64Z"/>
    <path class="cls-103" d="M363,261l3.24-1.51-.52,6.06c-2.2-.96-3.16-2.65-2.73-4.55Z"/>
    <path class="cls-104" d="M114.74,214.57c-1.24-1.5-1.17-4.39-.09-6.06,1.37,1.25,2.08,1.78,2.35,2.29.53,1-.04,1.72-2.26,3.77Z"/>
    <path class="cls-86" d="M333,132c-1.21,1.76-1.56,3.9-1.5,6-2.6-.28-1.24-3.4-1.51-6.73.88-1.42,1.89.53,3.01.73Z"/>
    <path class="cls-62" d="M213.23,384.11c.18,4.03-3.63,4.03-3.46,0,.1-2.26,3.36-2.26,3.46,0Z"/>
    <path class="cls-96" d="M501.63,287.97c-1.07-2.14-1.06-4.53-.06-7.58,1.57,1.61,1.39,3.65.06,7.58Z"/>
    <path class="cls-136" d="M321,366c-.23,1.5-1.71,2.48-3,3v-6c.78,1.17,2.05,1.99,3,3Z"/>
    <path class="cls-57" d="M321,163.5v-6c1.4,1.36,1.64,3.35,1.62,6.31-.43,1.59-1.62,1.27-1.62-.31Z"/>
    <path class="cls-21" d="M353.7,287.7l.41,1.92c.09.42.11.95.04,1.38-.75-.23-1.83,1.55-2.46,1.32-.94-.35-1.03-2.56-.59-3.06.5-.58,1.63-1.05,2.61-1.55Z"/>
    <path class="cls-57" d="M225,367.5v-6c1.4,1.37,1.64,3.34,1.62,6.31-.43,1.59-1.62,1.27-1.62-.31Z"/>
    <path class="cls-25" d="M375.43,242.95l-.43,3.05c-1.33.69-1.79.12-1.5-1.5-.55-1.06-1.29-1.74-1.51-2.37-.33-.94.32-2.88,1.52-1.46l1.92,2.28Z"/>
    <path class="cls-79" d="M375,246c-.09.63.08,1.41-.25,2.11-.47.97-1.74,1.06-2.75.89.11-.99-.06-2,0-3,.02-.84.66-1.49,1.5-1.5.45.55.95,1.05,1.5,1.5Z"/>
    <g>
      <g>
        <path class="cls-131" d="M318,146.87c-2.54,1.54-2.82,3.45-3.15,6.29-4.17,11.2-10.72,21.61-15.11,32.65-2.92,3.6-5.07,7.6-5.54,12.58-2.81,2.91-3.37,4.78-1.7,5.61-2.65,6.65-7.43,12.51-9.8,19.49,1.31,4.29-.14,10.47-5.24,12.13-.95.87-1.67,2.19-2.78,2.89-1.66,3.11-3.78,5.1-6.36,5.97.84,2.39.91,4.95.22,7.69-.43.28-.85,1.08-1.23,1.42q-2.58-3.7,0,0c-3.59,12.72-10.79,24.38-16.59,36.18l-4.92,5.67c-2.92.03-3.45,1.04-1.57,3.01-1.27,2.88-1.73,5.34-1.39,7.36-4.81,9.79-8.36,20.29-13.22,30.19-1.76,1.04-2.65,2.53-2.9,4.63-.85,3.8-3.24,6.77-4.74,10.28-1.96,1.8-2.7,3.75-3.25,6.24-3.13,9.31-7.49,18.6-12.56,27.66-1.94,3.47-5.27,5.6-4.92,9.8l-2.8.94c0,3.01-1.13,4.65-3.43,4.93-.43,1.31-.93,1.29-1.5,0-.32-3.42-.82-3.42-1.5,0-63.42.15-95.14.22-95.14.22-.28-1.04-.03-2.12.76-3.22.45-3.38,2.64-9.89,1.61-13.5l1.31-9,19.46-159.28c2.73-4.04,3.39-8.96,1.99-14.75,1.37-7.07,2.2-14.06,2.51-20.96-1.09-2.46-1.07-5.46.05-9,1.6-3.3.62-8.6.6-12-1.08-1.54-1.17-4.15,1.06-4.5.08-.42-.14-1.16.09-1.5-.94-5.11-.47-9.11,1.41-12,.08-.45.2-1.06.1-1.5.22-6.71,1.13-13.21,2.74-19.5.16-1.34.02-5.52,1.96-5.52l200.84-.02c-5.03,12.52-10.26,22.27-15.36,32.42Z"/>
        <g>
          <path class="cls-33" d="M285.02,224.77c.47,1.69.96,3.31,1.48,4.87,1.6,1.58.99,2.63,0,4.37-1.74,5.7-4.75,6.24-9.05,1.62.22-4.58,3.83-7.97,5.24-12.13.82.34,1.61.75,2.33,1.28Z"/>
          <g>
            <path class="cls-134" d="M120,215.72c1-8.2.34-16.73,2.82-25.67.85-3.08.36-7.31.17-10.05.43-1.31.93-1.29,1.5,0-.01,2,.14,15.5,3.89,11.99,1.72-1.61-1.47-3.9-.91-6.7,1.78-8.92,5.63,15.99,4.07,14.39-1.33-1.14-1.97-2.34-1.63-3.24.7-1.86-2.55-.97-2.16.19,1.61,4.81,2.88,8.93.44,13.56-3.4-5.19-2.76-9.33-3.82-16.45-2.29,5.99-1.91,11.14,1.97,16.51.2,2.45-4.41,5.18-6.34,5.47Z"/>
            <path class="cls-45" d="M192,400.5c.43-1.31.93-1.29,1.5,0h1.5c1.23-4.11,2.98-4.17,4.47-.13l-3.7,6.19c-1.37-1.2-.67-4.64-2.36-4.63l-92.66.61c-2.47.02-3.79.82-4.84-1.38-.95-2,1.57-2.65,1.71-3.66-.11.7-.49,1.59.28,3h94.1Z"/>
            <path class="cls-90" d="M250.71,289.77l-7.89,16.04c-.72-.67-1.77-1.24-2.2-2.43-.26-.72,1.82-2.14,1.42-2.8-1.17-1.94-2.38-3.39-1.99-5.73s2.54-1.48,4.89-2.04c2.11-.5,3.32-3.81,5.77-3.04Z"/>
            <path class="cls-144" d="M299.74,185.81l-7.24,18.19c-.7.08-2.68.26-2.84-.7-.12-.7,1.88-2.3,1.82-3.2-.2-2.96-3.7-4.69-1.19-8.51,1.87,1.81,1.06,4.05,3,6.5,2.46,2.66-4.5-18.9.78-12.92.64.73.96,1.31.31,3.31,1.39,2.48,3.01,2.42,2.72-.74-.3-1.41-.31-2.47.57-3.2.63-.52,1.41.48,2.07,1.28Z"/>
            <path class="cls-77" d="M201.23,394.62c.16,1.87-.91,4.31-1.76,5.75-1.49-.02-2.98.13-4.47.13.67-3.35.79-6.78,1.07-10.93,2.8,1.17,3.42,3.54,5.16,5.06Z"/>
            <path class="cls-123" d="M127.72,141c-.74,4,1.02,8.37-1.41,12-1.34-3.46-2.87-7.42-1.35-11.64.31-.86,2.46-.28,2.76-.36Z"/>
            <path class="cls-85" d="M270.24,249c-1.15-.75-1.79-2.25-1.92-4.52.16-3.94,3.21-3.98,6.36-5.97-1.16,3.63-2.23,7.36-4.44,10.5Z"/>
            <path class="cls-32" d="M318,146.87c-.92,1.84-2.49,4.51-3.15,6.29-.02-2.22-.77-4.25-1.39-7.02,2.13-1.01,3.33.08,4.54.73Z"/>
            <path class="cls-90" d="M221.97,350.92c-.89,2.09-1.77,4.68-3.25,6.24-.03-2.45-1.27-4.42-1.74-7.6,2.38,0,3.54,1.17,4.99,1.36Z"/>
            <path class="cls-123" d="M130.56,120c-.6,4.89-1.07,14.57-2.74,19.5-1.52-6.3,1.1-12.22,1.34-19.46-2.52-.09-1.68,2.42-1.45,5.29-2.04,1.15-3.3-1.54-3.3-3.1s.88-2.87,2.45-3.63c1.03-.49,2.69.87,3.7,1.4Z"/>
            <path class="cls-143" d="M270.24,249c-.67.95-.55,2.44-1.7,3.17-1.89-2.61-.33-5.2-.22-7.69,1.55.97,2.01,2.78,1.92,4.52Z"/>
            <path class="cls-123" d="M126.21,154.5c-.29,1.47.56,3.69-1.06,4.5-.64-.61-1.98-1.41-2.17-2.17-.17-.71-.16-2.84.62-3.6.51-.5,1.75,1.55,2.61,1.27Z"/>
            <path class="cls-90" d="M229.61,336c-.69,1.41-2.59,3.24-2.9,4.63-.79-1.55-2.08-2.55-3.37-4.28,2.78-.77,4.46-.19,6.27-.35Z"/>
            <path class="cls-84" d="M99.23,384c-1.09-3.81.95-5.98,1.31-9-.4,2.97,1.13,6.82-1.31,9Z"/>
            <path class="cls-84" d="M124.5,180h-1.5c-.26-3.7.04-5.89,1.55-9l-.05,9Z"/>
            <path class="cls-137" d="M282.87,217.48c-3.54-2.1-2.85-6.96-1.65-10.56,1.08,3.47,3.03,5.71,1.65,10.56Z"/>
            <path class="cls-137" d="M230.29,320.8c-.56.31-1.24-1.38-.82-2.02,2.8-4.35,1.82-4.32,3.11-3.03,1.12,1.11,2.34,2.52,1.4,3.03l-3.69,2.02Z"/>
            <path class="cls-142" d="M278.2,217.42c-3.51-2.22-.51-5.2-.05-9.01,1.42,2.16,1.33,4.77.05,9.01Z"/>
            <path class="cls-143" d="M267.31,253.59c-3.61-1.97-4.16-4.57-2.5-6.14,1.17,2.75,2.36,4.17,2.5,6.14Z"/>
            <path class="cls-77" d="M193.5,400.5h-1.5c.35-2.49-.87-5.17.76-7.59,1.66,2.92.84,5.39.74,7.59Z"/>
          </g>
        </g>
      </g>
      <g>
        <path class="cls-132" d="M474.2,471.2c.61,6.86-.76,13.34-6.15,17.73-1.46,2.41-4.82,2.45-6.05.07l-186.14.41c-2,3.48-4.45,3.36-5.98-.4-.41-.55-.95-.99-1.39-1.5-.86-4.93,2.64-5.43,10.5-1.5,62.53-.49,125.36-1.05,188.47-1.7l2.03-4.3c-1.36-3.23-.87-9.89,1.5-12,.44-3.25,1.44-4.25,3-3,2.24,1.24,2.24,4.75.2,6.2Z"/>
        <path class="cls-36" d="M501,199.5c2.65,2.24,2.4,10.99,0,13.5,0,.89.3,2.17,0,3l1.4,1.22c-1.69,3.21-2.63,7.22-2.84,12.05l-1.56.23c-2.71-.08-1.85-4.92-.59-6.91l-1.02-8.67c-1.43-2.53-.89-5.83,1.61-9.92-2.57.04-4.2-.8-4.91-2.53-2.88,3.97-10.61,3.86-13.09-.47-.15.84-.3,1.5-.46,1.5-23.9.59-49.63.79-73.52.31-.35,0-.69-.8-1.02-1.81-1.85,2-3.38,3.13-4.5,0v-1.5c32.33-1.25,68.02-1.62,100.5,0Z"/>
        <path class="cls-71" d="M498.21,264.19l-.21,8.81c-.82,2.01-1.82,4.01-3,6v9c2.42,2.73,2.32,7.75.2,10.7.03.45-.05.91-.06,1.36-1.67,1.9-2.22,5.58-1.66,11.03l-1.48.92v8.83s-3,.17-3,.17c-1.35-3.57-1.03-9.86,0-13.5l1.36-18.52,1.64-.98c-.88-.2-1.56-.41-1.57-.63-.17-5.42.75-17.74,2.6-22.52.16-.42.94-.61,1.89-.73.17-3.41,1.19-5.45,3.07-6.11,2.35.19,2.28,5.18.21,6.19Z"/>
        <path class="cls-107" d="M500.54,197.68c1.51.18,1.73.92.46,1.82h-100.5v-1.5l100.04-.32Z"/>
        <path class="cls-47" d="M291,432c1.1,2.07-.65,7.76-3.19,7.5,3.14,2.26,2.53,3.16-1.34,3.33.62,3.78-3.17,14.34-7.22,12.91l-.57-5.48c-.1-.92.26-2.02.3-2.97.89-1.94,1.92-4.04,3.09-6.29,1.61-2.76,2.82-5.13,3.5-8.36,2.49,4.82,2.05-.88,2.68-2.13,1.89-3.77,3.71-2.43,2.76,1.5Z"/>
        <path class="cls-20" d="M348,309c1.05.1,1.05,1.1,0,3,.59.62,1.03,1.21.93,1.68-.42,1.96-5.04,13.19-7.17,12.9-.09,6.26-2.1,9.52-6.03,9.78l3.44-16.92c1.99-3.42,2.93-7.22,2.83-11.4l2.73-2.02c.72,0,1.62-.98,2.15-1.43,4.23-2.02,3,1.39,1.11,4.41Z"/>
        <path class="cls-150" d="M318.25,381.23c2.92.69,2.92,1.87,0,2.56,1.83.3,1.95,2.96-.26,3.14,2.2,3.29.12,6.35-6.24,9.19.58,3.83-.15,3.87-2.61.95-.2,1.42-.75,1.56-1.63.43-1.6-4.06,1.57-7.89,4.65-10.51.06-.47.06-1.01.04-1.49.82-4.33,1.98-6.5,5.82-7.5,2.4-.84,2.09,2.06.25,3.23Z"/>
        <path class="cls-68" d="M324.14,359.77c.79.19,1.46.44,1.71.91,2.2,4.15-1.68,9.42-4.85,11.32-.05,3.81-1.05,5.81-3,6-1.29,2.57-3.71,5.61-5.82,7.5-.15-2.5-.26-5-.18-7.5,1.5-2.9,3.43-4.97,5.78-6.22l.22-2.78c.5-2.33,1.5-3.33,3-3,.29-1.88-.39-3.75-1.58-5.63,2.16-.95,3.46-.25,4.72-.6Z"/>
        <path class="cls-135" d="M297.13,418.57c2.14,2.74.63,8.1-3.12,8.81-.7,2.03-1.7,3.57-3,4.62l-2.76-1.5,3.98-10.39c-1.56-1.93-.2-6,2.37-5.65.9-.42,2.33-.96,2.89-2.01,2.36.84,1.58,4.57-.35,6.11Z"/>
        <path class="cls-52" d="M383.53,231.2c1.26-.35,1.41.63.44,2.93,1.4,2.52,2.22,4.41-.66,4.54-.6,4.4-2.26,6.81-4.95,7.22l-.61-3.12v-2.54c-2.17-.72-1.86-5.38.5-5.95,2.21-.27,3.3-2.4,5.29-3.09Z"/>
        <path class="cls-38" d="M502.5,240c.33,1.34-.06,3.65-2.17,2.98-.97-.31-1.46-2.39-2.46-2.98-2.5-1.78-3.16-9.61.13-10.5,2.17-4.28,1.36-8.98,3-13.5.67.07,1.65-.21,2.25.02,1.05.4.8,1.61.78,3.24.16,3.31-.84,2.93-2.6-.18-.39,7.66-1.68,14.36,1.07,20.93Z"/>
        <path class="cls-44" d="M330.22,348c.86.27,1.54.57,1.62.98.34,1.92-3.42,7.63-4.71,9.43-.02,2.51-1.46,3.92-2.99,1.36-.75-12.02,4.33-8.97,4.29-17.79l1.57.02c1.86.57,1.94,2.58.22,6Z"/>
        <path class="cls-130" d="M273.27,474.15c.33,2.78,1.2,5.14,2.61,7.1,2.03,0,2.58,1.02,3.12,3.17,1.31.45,1.29.98,0,1.58-3.5,0-8.06-1.79-10.5,1.5-.5-.59-.88-1.29-1.34-1.92.03-4.97,4.34-8.92,5.75-12.99,1.38.15,1.48.68.36,1.56Z"/>
        <path class="cls-133" d="M306.04,398.94c3.21,1.53,0,8.2-3.26,9.06,2.99,2.54.26,7.92-3.02,9.42-.25,2.66-1.12,3.6-2.64,1.15.53-1.99,1.08-4.27.35-6.11,6.13-9.68-.54-11.92,8.56-13.52Z"/>
        <path class="cls-30" d="M501,213v-13.5c0-.64-.2-1.25-.46-1.82,5.7-1.93,3.14,14.98,3.31,14.35-.24.9-1.41,1.35-2.84.98Z"/>
        <path class="cls-65" d="M400.5,201c.77.56,1.37,1.11,1.31,1.58-.25,2.29-5.82,15.57-9.24,13.16-.64-4.13,1.34-7.61,3.12-11.21,1.04-2.1,2.16-3.82,4.8-3.53Z"/>
        <path class="cls-147" d="M392.57,215.73c2.56.86,1.18,9.2-2.94,9.27-.23,6.77-2.12,9.82-5.67,9.13l-.44-2.93c-.68-2.36,2.11-3.59,2.58-5.48l2.38-9.65c1.34-.29,2.72-.6,4.09-.34Z"/>
        <path class="cls-113" d="M335.74,336.36c.83.5,1.46.95,1.4,1.24-.54,2.34-4.41,11.85-6.91,10.4-.04-1.91-.37-4.01-.22-6,.23-3.26,2.61-4.86,5.74-5.64Z"/>
        <path class="cls-56" d="M353.83,297.04c2.75,1.26.98,9.35-2.76,8.87-.74,1.98-1.76,3.01-3.07,3.09-.21-1.39.85-4.17-1.11-4.41,2.32-1.95,3.87-4.66,4.07-7.7l2.87.15Z"/>
        <path class="cls-153" d="M363,276c1.57-.28,1.57.72,0,3,3.24,2.53-.04,6.84-3,9l-2.79,9.81-3.38-.77c-.39-2.01-.02-4.04.31-6.04-1.3-.09-1.24-.57-.04-1.38,5.57-2.17,6.88-7.86,5.61-13.42l3.28-.2Z"/>
        <path class="cls-39" d="M312.15,386.99c-.52,3.97-3.79,6.68-4.65,10.51l-1.72-1.72.4-5.58c1.71-.65,2.97-2,4.32-3.2h1.65Z"/>
        <path class="cls-87" d="M366,276c-.41,3.7-1.41,4.7-3,3v-3l-.04-3,6.11-7.53c2.07,1.99-.36,9.19-3.07,10.53Z"/>
        <path class="cls-15" d="M279,486v-1.58c-.16-3.55,7.46-3.32,10.74-2.14,55.13-.16,112.28-.25,166.53.47,1.03-2.82,2.26-2.7,2.73.26,3.22.53,6.22-.47,9-3,.43-1.31.93-1.29,1.5,0,.38,1.38.19,5.84-2,5.84l-188.5.16Z"/>
        <path class="cls-49" d="M471,468c.6,3.35-2.38,8.81-1.5,12h-1.5c-2.27-.31-1.29-7.31,0-9-2.24-.92-2.38-7.9,0-9,.65-2.59,1.15-4.04,3-1.5,2.94.97,1.33,4.94,0,7.5Z"/>
        <path class="cls-37" d="M474,465l-3,3c-.43-2.44.27-5.03,0-7.5-1.33-.5-1.32-1,0-1.5.72-3.62,1.1-7.39,1.13-11.33l1.87.83v16.5Z"/>
        <path class="cls-76" d="M487.28,327.21c-.61,5.47-1.42,10.8-1.28,16.29l-3,19.5c-.31,7-.9,14.34-2.76,21-5.03-5.4-4.83-18.19-.24-24l-3-1.67c1.24-6.79,2.25-13.58,3.04-20.37l2.96-1.96c-2.49-1.35-2.11-6.58.5-7.89-.66-3.02.38-3.47,2.14-.93.5-1.3,1.05-1.27,1.64.04Z"/>
        <path class="cls-63" d="M480,360c.15,8-.31,16.01.24,24,.03.49-.04,1.01-.06,1.5-1.26,2.6-2.47,2.6-3.64-.02-2.45,3.36-3.74,2.37-2.17-1.51-4.35-4.21-4.48-14.94-3.22-20.91,1.24-5.89,6.39-8.46,8.85-3.05Z"/>
        <path class="cls-88" d="M480.18,385.5c-.64,12.55-3.18,24.92-3.18,37.5-.02,4.43-1.02,7.43-3,9-3.45-.01-2.59-4.19-.35-5.72-1.87-4.76-2.77-9.68-2.69-14.74-1.03-6.24.05-10.35,3.26-12.32.7-2.98,1.63-6.05,2.78-9.22-4.41-.3-4.37-2.94-.46-4.52,1.06-.96,2.53-.75,3.64.02Z"/>
        <path class="cls-29" d="M477,445.5c0,.44-.18,1.11,0,1.5l-3-4.5c-1.99-.29-1.99-1.79,0-4.5-2.29-.98-3.17-5.66,0-6l3-9v22.5Z"/>
        <path class="cls-76" d="M489,300c.98,1.76.98,4.26,0,7.5v13.5h-1.5c-.55-4.82-1.05-9.82-1.5-15-1.48-.18-1.01-1.78-.44-3.11-2.01-.35-1.73-2.8.44-2.89.48-3.98,1.86-3.81,3,0Z"/>
        <path class="cls-110" d="M483,363c.29-6.48.52-13.54,3-19.5.18,6.61.71,13.94-3,19.5Z"/>
        <path class="cls-31" d="M487.5,321c.23,2.01,0,4.21-.22,6.21l-1.64-.04c-2.22-3.33-3.11-14.49-2.66-19.2l3.02-1.98c3.16,4.24.91,9.93,1.5,15Z"/>
        <path class="cls-122" d="M480,201v3l-.46,1.51c-23.5.03-47,.01-70.51-.05l-1.03-1.45c-1.47,0-4.1,2.37-4.59-.09-2.53-1.58-.98-2.27,1.59-2.91h75Z"/>
        <path class="cls-1" d="M390,229.5c-.4,3.29,1.08,6.24,2.36,10.06-2.66.95-4.78-.24-7.58-.29-1.24,3.38-.94,6.5-1.23,9.54-.52,2.11-1.57,4.74-3.89,4.68-.78,4.66-6.39,23.25-8.77,25.96-2.51,2.86-3.7,1.32-4.9-1.95-.62-.44-.59-.94,0-1.5,1.1-2.99,1.4-7.89,3.07-10.53,3.9-6.18,6.45-12.91,9.28-19.58,1.66-3.91,3.32-8.07,5.62-11.77l5.67-9.13c2.65.55,2.1,2.75.36,4.5Z"/>
        <path class="cls-48" d="M492,288c-.78,6.4-.68,13.53-3,19.5v-7.5c-2.33-1.52-2.19-4.35,0-6l-.17-6.21c1.02-.18,2.13.32,3.17.21Z"/>
        <path class="cls-38" d="M498,252v6c-1.21,1.7-2.34,4.25-3.07,6.11.38-7.03,1.04-14.3,2.73-21.11.4,2.98.34,5.99.34,9Z"/>
        <path class="cls-13" d="M300,420l-.27,6.04c-.16,4.73-.87,15.92-4.94,18.9-1.03.75-2.54.11-3.67-.69l-2.82-.17-1.83-1.24c.64-.96.61-2.38,1.34-3.33,2.69-3.41,4.76-7.45,6.2-12.13-.07-3.15,2.33-5.82,3.12-8.81l2.64-1.15c3.08-.07,3.13,1.33.23,2.58Z"/>
        <path class="cls-46" d="M287.81,439.5c1.73-2.25,2.54-4.81,3.19-7.5.39-1.63,1.48-4.06,3-4.62.06,2.79-4.13,13.68-3.62,13.44-.66.3-1.66-1.54-2.58-1.32Z"/>
        <path class="cls-117" d="M342.2,330.07l-.06,5.46c.92,2.11.05,4.18-2.6,6.19-.98,4.94-3.16,8.53-6.55,10.78,1.32.39,1.29.89,0,1.5-.56,1.66-1.61,3.17-3.17,4.53-.52.27-1.02.56-1.5.88-1.39,1.2-2.06.6-1.2-1-.24-3.72,2.78-6.75,3.1-10.41,2.35-3.16,4.69-7.59,5.51-11.65,2.14-2.97,4.51-6.53,6.03-9.78l.44,3.49Z"/>
        <path class="cls-49" d="M474,442.5v6c-2.95-1.15-.05,11.65-3,10.5-2.9-.11-1.27-3.82,0-6-4.38-.02-4.18-8.3,0-9-2.09-.28-2.3-2.5,0-3,.85-3.39,1.85-4.39,3-3-.14,1.49,0,3.01,0,4.5Z"/>
        <path class="cls-17" d="M321.24,375.09c.1,1.35.07,3.22-.43,4.78-.26.82-1.17,1.97-2.55,1.36l-.25-3.23,3-6c2.03-.17,1.59,1.73.24,3.09Z"/>
        <path class="cls-102" d="M321.05,390l-3.06-3.07.26-3.14c1.99-.7,2.73,1.31,2.81,2.5.1,1.51.02,2.59-.01,3.72Z"/>
        <path class="cls-12" d="M328.33,359.41c-.52.41-1.97,3.36-.78,3.99.82.44,2.01,1.23,2.43,2.78-2.67.17-2.62,2.85-3.43,5.9-1.06-.89-.08-2.81-2.21-3.21-.77,2.9-.62,6.07-3.11,6.22l-.24-3.09c1.88-3.76,3.39-8.19,3.14-12.23,1.03-.28,2.01-.94,2.99-1.36.89-.38,1.6.01,1.2,1Z"/>
        <path class="cls-89" d="M474.37,383.96c.53.73,1.33,1.19,2.17,1.51l.46,4.52c-.83,1.94-1.75,5.01-2.78,9.22l-.57,27.06c-1.58-.15-2.2-1.92-1.87-5.33,1.34,5.27.54,8.8-2.38,10.59-.16,1.35-.64,1.36-1.39.15-1.63,2.6-2.11,6.22-1.43,10.85,1.84,3.93,3.32,11.14-1.37,13.26,2.31,3.45,1.66,11.71.46,15.81,3.46,4.4.79,13.78-6.67,11.38-.91-.13-1.82-.22-2.73-.26-.04-.89-.53-1.76-.51-2.64.09-6.05-.37-12.98,3.24-18.1,1.71-2.23,1.71-4.23,0-6-7.76.32,1.35-12.23,0-21-2.12-.97-2.2-2.17,0-3,1.87-6.25,2.4-13.97,1.6-23.18l1.6-.99c2.39-2.23,3.38-4.66,2.95-7.29.94-5.68,2.29-11.07,4.05-16.18,1.02.04,1.69,2.56,2.47,2.36,1.17-.31,1.91-2.06,2.72-2.75Z"/>
        <path class="cls-149" d="M468,471v9c-.17,1.9-1.35,3.35-2.88,3.96-2.31.91-4.64.92-6.12-.96,2.73-.45,5.36-1.85,6.15-3.97,1.03-2.76,1.11-5.13.52-7.41-.09-2.86.99-3.15,2.33-.62Z"/>
        <path class="cls-91" d="M468,456c2.55,0,1.98,4.49,0,6v9c-.76.27-1.54.48-2.33.62-1.35-5.2-.42-10.53-.46-15.81.49-3.98,1.88-3.67,2.79.19Z"/>
        <path class="cls-154" d="M471,459c0,.5-.05,1,0,1.5l-3,1.5v-6c-2.75-2.59-.5-5.29,3-3v6Z"/>
        <path class="cls-154" d="M473.65,426.28c.87,1.57-.21,4.03.35,5.72-.31,1.69.17,4.22,0,6l-3,3c-1.93-1.56-2.17-6.74-1.6-9.45.65-3.42,2.14-7.01,2-11.7,1.74,2.28,1.15,4.46,2.25,6.44Z"/>
        <path class="cls-63" d="M477,390c.17,1.64.9,10.95-2.78,9.22.06-2.71-1.17-5.68.28-8.84.38-.84,2.13-.34,2.5-.38Z"/>
        <g>
          <path class="cls-64" d="M493.09,201.47c1.09,1.45,2.73,2.29,4.91,2.53-.54,6.21.79,12.48-.59,18.59-1-1.22-1.8-3.41-2.41-6.59q-3.49-1.92,0,0c1.52,8.9,2.79,27.66-.81,36.05-.1.24-1,.15-2.12-.05-1.49,2.94-2.06,6.45-1.72,10.54-1.81,5.21-4.41,7.36-7.12,1.72q-1.98-3.22,0,0l2,.21c.34,7.88,1.54,15.65,3.6,23.32,2.53,0,2.05,4.96.17,6.21-.83,1.7-1.83,3.7-3,6,.05.93-.66,1.98-.44,2.89-.38,8.84-7.45,4.49-2.25-.04-.73-3.95-1.84-5.9-3.31-5.85,1.25,4.46,2.24,8.79,2.97,12.97l-2.97,2.03c.68,5.16,1.23,10.44,1.66,15.85-.48,4.09-.03,6.81,1.34,8.15.46,14.37-3.22,12.1-3,24-1.63.03-3.22.06-5.77.74-.37,7.97-.48,15.65.15,23.22,2.45,5.19-2.87,7.26-5.18.39-1.89,4.98-3,10.35-3.31,16.12-1.14.71-2.32.57-3.53-.21l-3.33.51c.84,4.02-.16,6.43-3.02,7.22l1.5.44-.04,23.89c.04.57.55,1.46,1.54,2.66,3.18.25,4.02,2.64,2.52,7.18-1.95,4.87-2.79,9.47-2.52,13.82,2.42.75,2.21,4.5,0,6,1.62,2.02,1.67,4.77.13,8.27.59,5.3-.54,8.58-3.38,9.83l-.27,1.7c-56.58,1.13-113.05.98-169.41-.47-6.24,2.9-11.53-.69-9.94-7.11-1.22-3.99.82-6.81,4.26-9.5,2.5-1.96,1.09-6.31,3.23-8.29,2.25-.88,2.81-2.11,1.67-3.69,1.11-2.93,3.5-5.4,3.01-8.67-.2-2.77,2.57-2.7,2.82.17,5.85-1.66,5.56,4.36,3,8.61,2.42.88,3.43.23,3.03-1.97l3.34-1.18c1.18-4.2,3.46-11.38,7.91-12.03-2.22-2.82-1.02-4.71,3.6-5.67-1.04-.85-2.14-.95-3.31-.31-2.33,5.2-12.87,1.21-8.96-5.66-3.95.19-2.79-5.09.27-6.04.02-2.9,1.81-3.68,4.35-4.22-1.41-3-1.73-5.46,1.3-7.43,2.58-3.23,4.06-7.14,3.49-11.29.83-.39,1.68-.85,2.61-.95,2.52-1.53,4.8-3.29,6.84-5.28l2.51,2.12c1.7-3.87,5.68-3.93,11.93-.2l.04-6.28c-10.6,3.7-12.42-11.21-3.05-11.27.86-2,1.74-4.17,2.65-6.5-2.84,1.67-3.73.82-2.69-2.54-5.66,2.26-6.42-5.85-1.65-6.77-.4-1.36.14-1.6,1.5-.88.95-2.66,2.01-2.16,3.19,1.52l2.98-.06c-2.28-1.09-2.24-4.82-.3-6.51l-.95-1.96c5.34-5.03,7.81-10.36,7.39-16-3.96.73-2.47-3.9.06-5.46.18-3.06,1.2-4.11,3.09-3.14,1.72-3.31,3.82-2.42,4.69,1.13l2.32-6.7c-3.04-2.21-4.12-3.52-1.71-6.91-1.12-2.35,2.7-12.94,5.9-9.02,2.13-.41,1.88,1.81,1.49,3.69-.11.51-.3-8.76,2.01-9.11l-3.19-2.01,3.19-9.99c2.06-3.23,4.24-5.31,6.54-6.24,1.73-2.51,3.53-2.04,5.41,1.4,3.42-5.42,5.92-11.17,7.5-17.27-2.17-7.42-.8-13.11,4.1-17.08-4.57-2.57-.94-13.33,4.3-12.2-.7-3.07-1.12-5.73,2.14-7.11.53-2.48,1.54-4.02,3.04-4.61-.59-2.86.57-2.98,1.74-.19,2.29.6,2.66-.26,1.11-2.58-5.88,1,3.06-15.41,5.24-18.6.18-.26,1.12,0,2.28.4,1.47-1.12,3.51-2.1,4.59.09,2.76.33,3.38.84,1.84,1.51h68.92c-2.52-.07-2.11-.57,1.24-1.51-3.98-.48-3.81-1.86,0-3,4.37,0,8.74-.1,13.09.47Z"/>
          <g>
            <path class="cls-109" d="M305.64,408.36c-1.12,1.25-2.08,1.13-2.86-.36,1.41-2.94,3.39-5.84,3.26-9.06.55-.1,1.34-.9,1.46-1.44.52-.2,1.13-.2,1.63-.43,6.07.77,1.91,13.85-3.49,11.29Z"/>
            <path class="cls-59" d="M288.3,444.07c4.24,2.05,1.23,9.2-3.01,8.67,2.08,1.77,1.38,4.67-1.67,3.69,2.61,5.51-3.9,13.44-7.49,17.79-.14,4.38-2.3,4.34-2.87-.07l-.36-1.56c1.98-5.72,6.93-11.1,6.33-16.85,3.85-3.32,4.46-8.77,7.22-12.91,1.83-2.03,2.76-1.35,1.83,1.24Z"/>
            <path class="cls-8" d="M497.41,222.59c.86,2.12.28,4.7.59,6.91-1.31,2.89.98,7.43-.13,10.5-.33.93.02,2.05-.21,3-.05,7.18-.97,14.22-2.73,21.11l-2.93,23.89c-1.1,2.8-2.46,2.68-3.17-.21-3.69-7.11-4.07-18.61,1.43-25.05-.29-4.25.31-7.82,1.81-10.73,2.91-4.95,2.49-9.59,2.2-15.35-.34-6.97,2.09-13.91.73-20.65,2.24,1.39,1.53,4.42,2.41,6.59Z"/>
            <path class="cls-129" d="M405,201c-.71.76-.79,2.25-1.59,2.91-1.4,1.16-1.91,2.53-1.91,3.77,0,2.53.51,8.92,4.36,2.84-1.91,2.39,1.15,3.47-.57,4.58-2.51,1.61-4.92-3.08-5.23-5.23-2.5,2.16.24,3.69.03,5.48-1.9.49-3.5,1.06-4.52,2.4-.75.98-.27,2.86.32,4.35.72,1.33.35,2.19-1.11,2.58l-1.74.19c-1.04,2.56-2.88,3.09-3.41.11l2.94-9.27c4.73-3.44,4.42-10.21,7.93-14.73,1.47.16,3.02,0,4.5,0Z"/>
            <path class="cls-124" d="M498,204c-2.1,1.02-2.37,3.03-3.59,6.15-1.56-2.79-3.33-6.17-1.31-8.68,1.13.15,2.4-.76,4.06-.44,1.12.22.96,1.78.85,2.97Z"/>
            <path class="cls-128" d="M360,300c-.96,2.61-2.13,4.42-3.5,5.42-4.01,1.17-2.91,7.07-5.9,9.02.58,3.86.87,13.57-5.3,12.48-.97,1.1-2.03,2.13-3.09,3.14-1.24.39-1.39-.78-.44-3.49,2.13-4.57,3.08-10.35,6.24-14.58l3.07-6.09,2.76-8.87c2.71-2.53,3.81-6.15,6.17-9.04-.04,4.01-.53,8.02,0,12Z"/>
            <path class="cls-5" d="M348,312c-.07-.99.15-2.02,0-3l3.07-3.09c-1.03,3.31-1.36,3.81-3.07,6.09Z"/>
            <path class="cls-101" d="M332.66,368.72c-.64,2.36-1.52,4.52-2.65,6.5-1.39,1.78-2.99,4.34-3.06,7.44-.04,1.92,2.48,1.35,3.79,1.41,1.54.07,1.79-2.09,4.23-3.56,1.76,6.17,1.43,11.86.14,18.56-4.33-4.25-8.6-6.84-14.03-6.11-2.85-.79-2.88-2.08-.05-2.96l-2.8-6.21c.07-.85.07-1.72,0-2.56.84-2.23,1.83-4.27,2.98-6.14,1.93-8.16,4.84-11.13,8.74-8.91.26.96,3.17.53,2.69,2.54Z"/>
            <path class="cls-17" d="M321.05,390c-.03.98.14,1.98.05,2.96-7.98,1.54.6,2.1-9.35,3.15,1.12-5.24,6.28-3.39,6.24-9.19,1.15-1.95,2.17-.92,3.06,3.07Z"/>
            <path class="cls-19" d="M276.13,474.22c2.26-.06,2.45,3,3.74,4.78s3.56,1.17,4.66-.37c.72-1,1.18-2.6,2.01-4.18.76.88.61,5.66,3.09,5.66l166.12-.02c2.93-.12,3.15,1.19.51,2.64-1.35,1.77-3.34,1.82-6.32,1.82l-170.95-.14c-3.23,0-5.02.42-7.5-3.96-1-1.77.26-3.3,1.77-6.3.88,1.21,2.03.09,2.87.07Z"/>
            <path class="cls-70" d="M305.64,408.36c.08,4.38,2.76,8.13,3.73,13.79-2.97,2.15-3.97.27-1.82-3.18-2.85-1.3-4.83,1.34-7.55,1.03.04-.82-.04-1.78-.23-2.58-.88-3.68,1.54-6.35,3.02-9.42.94.19,1.9.33,2.86.36Z"/>
            <path class="cls-100" d="M366,277.5c4.02,1.3,4.2,2.72.54,4.26-.75,3.22-3.49,5.25-6.54,6.24,1.85-2.26,1.94-6.36,3-9l3-3c.05.49-.08,1.01,0,1.5Z"/>
            <path class="cls-141" d="M483.31,302.85c.68.64-1.08,2.61.43,3.12,1.67.56-.35-1.68,1.82-3.08.2.84-.06,2.44.44,3.11l-.36,21.18c-.79.09-1.51.44-2.14.93l-2.04-.69-1.46-15.42v-15c1.62.18,2.72,2.13,3.31,5.85Z"/>
            <path class="cls-140" d="M483.5,328.11c.22,2.43-.58,5.36-.5,7.89-.63.02-1.64.28-2.18-.07-.68-.44-.94-1.55-.93-2.82l.11-21.11c2.58-.76.33,9.35,3.5,16.11Z"/>
            <path class="cls-141" d="M489,294c.05,1.98,0,4.01,0,6h-3c-.09-1.54-.28-3.1.19-4.98.26-1.06,1.5-1.36,2.81-1.02Z"/>
            <path class="cls-116" d="M283.62,456.43c.99-.92,1.21-2.48,1.67-3.69.98-.71,2.56.28,2.57,1.7l.12,13.57c.02,2.58-1.6,3.14-3.43,3.12-8.1-.1,7.92-11.05-.93-14.69Z"/>
            <path class="cls-80" d="M383.56,248.81c-.12,1.31.87,2.96-.02,5.13-.5,1.22-1.69-.07-4.36-.16,5.98,9.46,3.32,19.24-3.57,27.35-1.63,1.91.75,6.96-3.96,7.31-2.65-1.7-2.36-5.61-5.11-6.69-.1-1.43-.32-2.85-.54-4.26.92.22,1.52.97,2.59,1.49-.13-4.2,11.15-32.05,14.97-30.18Z"/>
            <path class="cls-27" d="M462.35,400.27c4.37.24,3.92,6.83-.15,7.56-.22,4.33-1.73,3.97-3.19.17-.48,3.98-1.86,3.81-3,0l.11-47.47c1.65-1.16,6.31-.96,6.64,1.14,1.14,7.07.67,13.52.38,20.4-6.02,4.23-6.08,14.37-.79,18.19Z"/>
            <path class="cls-42" d="M308.69,431.69c1.17-3.86,2.51-3.62,3.31.31.14,2.35-2.92,3.78-3.6,5.67l-1.51,1.38c-2.6-.89-4.73,2.66-6.39,10.64-1.04,2.26.62,7.23-4.26,6.41-2.64-.44-6.27.1-5.02-4.58.43-1.61,2.51-3.03,1.84-4.27-.53-.99-1.83-1.6-1.93-3.02,10.01-8.8-.77-6.18,8.61-18.2,1.17,3.98,4.83,6.6,8.96,5.66Z"/>
            <path class="cls-3" d="M480,204c0,.7.3,1.53-.4,3.01h-70.11c-1.82,0-1.79-2.27-1.5-3.01h72Z"/>
            <path class="cls-141" d="M492.07,252c.06,22.49-3.97,9.35-3.24,35.79-5.57.95-5.62-20.46-5.6-23.53,1.47.12,3.68.4,4.89-.52,3.48-2.66-2.01-12.25,3.95-11.74Z"/>
            <path class="cls-7" d="M350.59,314.44c-1.02,3.36,4.33,3.2,5.51,5.09l-5.96,17.21c-5.74-2.72-1.18-11.85-4.86-9.82,3.38-3.85.86-9.57,5.3-12.48Z"/>
            <path class="cls-7" d="M335.7,353.49c-1.19,2.55-2.23,1.77-2.7-.99-1.02-2.31,1.96-4.28,2.22-6.58.6-5.26,2.78-8.08,6.93-10.39.99-.55,1.95-.96,4.03-2.39-3.71,18.46.33,7.8-10.47,20.35Z"/>
            <path class="cls-11" d="M469.19,384.36c1.99,3.08,1.45,5.64-.43,9.01-2.16,3.87.1,8.66-.79,13.11-.5,2.51-4.18,1.26-5.78,1.35l.15-7.56c4.93-3.21,1.12-14.88,3.34-16.2.76-.45,2.4.24,3.5.28Z"/>
            <path class="cls-69" d="M486.75,214.53c-8.83,1.2.07,22.81-5.64,26.77-2.69-10.32.04-19.24-.92-28.41,3.55.61,4.9-.68,6.57,1.64Z"/>
            <path class="cls-125" d="M308.4,437.67c-.63,5.06-3.87,9.18-7.91,12.03-1.15-4.59-.74-14.44,4.48-14.3,1.09.03,2.3,1.57,3.43,2.27Z"/>
            <path class="cls-54" d="M459,408c.86.18,1.54.39,1.6.7,1,6.2.43,17.84-1.6,23.3,0,.98-.15,2.04,0,3-.63.02-1.64.28-2.18-.06-.7-.45-.91-1.54-.91-2.83l.09-24.11h3Z"/>
            <path class="cls-145" d="M483.23,264.26c-.87-.07-3.3.18-3.14-1.7.33-4.01-1.9-7.83,1.81-11.67,1.72,4.91,1.35,9.23,1.33,13.37Z"/>
            <path class="cls-146" d="M483.31,302.85c-1.73-1.62-1.81-4.09-3.31-5.85,0-3.01-1.48-6.67,1.86-10.08,2.61,5.85.21,10.91,1.45,15.93Z"/>
            <path class="cls-114" d="M394.78,224.69c.27-.9.63-1.77,1.11-2.58,2.78-.87,3.38,1.37,3.21,3.67-.13,1.91.44,4.61-2.48,4.96-.63-2.54-.6-4.55-1.84-6.05Z"/>
            <path class="cls-73" d="M360,300c.49,3.72-.28,7.3-2.37,10.64-1.17-2.3-.6-3.83-1.13-5.21l.73-7c1.31.53,1.84,1.39,2.78,1.58Z"/>
            <path class="cls-40" d="M335.7,353.49c.08,2.15.57,4.36.3,6.51-2.18,4.59-6.92-3.78-3-6,.03-.44.18-1.1,0-1.5.95.19,1.85.53,2.7.99Z"/>
            <path class="cls-149" d="M459,462v-6c2.25-.09,2.7.26,3.21,2.18.87,3.29-2.19,2.82-3.21,3.82Z"/>
            <path class="cls-93" d="M382.37,287.88c-1.91.48-2.54-5.84.17-5.97,1.91-.09,2.93,5.18-.17,5.97Z"/>
            <path class="cls-12" d="M332.66,368.72c-.25,1.02.31,2.42.55,3.96.36,2.33-2.36,1.48-3.19,2.54-.11-1.15-.15-2.32-.07-3.88.05-1.12.68-3.33,2.72-2.62Z"/>
            <path class="cls-98" d="M358.36,335.88c-1.9.48-2.55-5.84.18-5.97,1.89-.09,2.93,5.18-.18,5.97Z"/>
            <path class="cls-148" d="M495,216c-1.23-.5-4.47.97-5.54-.47-1.91-2.57,1.32-2.61,3.23-2.65,2.72-.06,1.87.93,2.31,3.12Z"/>
            <path class="cls-12" d="M333,354c-.08,1.15-.07,2.27-.08,3.75-.02,1.58,1.06,2.85,3.08,2.25-.27,2.05,1.51,5.21-2.17,6.7-1.46-3.7-.42-7.52-4-8.17.03-1.19-.01-2.36.47-3.52.39-.94,1.59-1.29,2.7-1.01Z"/>
            <path class="cls-66" d="M312,432l-3.31-.31c.5-1.94-.77-4.18,1.74-6.48,2.62,2.02,1.44,4.72,1.57,6.78Z"/>
            <path class="cls-114" d="M393.04,224.89c.12,2.09-.93,4.1-3.04,4.61.18-1.48-.24-3.04-.36-4.5,1.14,0,2.28.01,3.41-.11Z"/>
          </g>
        </g>
        <path class="cls-127" d="M468.01,431.7c.97,1.33,1.49,3.06,1.57,5.18-.33,3.54.15,5.91,1.42,7.13v9l-3,3-2.79-.19-.16-22.34c-.01-1.66,2.16-1.69,2.96-1.78Z"/>
        <path class="cls-74" d="M471,441c-.38.8,0,2.1,0,3-.92.28-2.95.32-2.95-1.45l-.04-10.85,1.39-.15c.25,2.51,3.14,6.26,1.6,9.45Z"/>
        <path class="cls-95" d="M462.19,407.83c-.1,4.88,1.19,28.79-3.19,24.17v-24l3.19-.17Z"/>
      </g>
    </g>
  </g>
</svg>