<?xml version="1.0" encoding="UTF-8"?>
<svg id="Capa_1" data-name="Capa 1" xmlns="http://www.w3.org/2000/svg" viewBox="0 0 600 600">
  <defs>
    <style>
      .cls-1 {
        fill: #31cb9e;
      }
    </style>
  </defs>
  <path class="cls-1" d="M269.11,299.88l223.6,128.5c1.79,1.01,3.81,1.54,5.86,1.54,2.05,0,4.07-.55,5.86-1.57,1.78-1.02,3.27-2.49,4.31-4.27,1.04-1.77,1.61-3.79,1.65-5.85l.04-236.63c-.02-2.06-.58-4.08-1.62-5.86-1.04-1.78-2.53-3.25-4.32-4.28-1.79-1.03-3.81-1.57-5.87-1.57-2.06,0-4.08.54-5.87,1.56l-223.64,128.42Z"/>
  <path class="cls-1" d="M479.72,116.08L331.29,2.38c-1.58-1.19-3.44-1.97-5.4-2.26-1.96-.29-3.96-.08-5.82.6-1.86.68-3.52,1.82-4.83,3.31-1.31,1.49-2.22,3.28-2.66,5.22l-54.27,253.13,220.21-126.7c1.7-.95,3.14-2.32,4.18-3.98,1.04-1.66,1.65-3.55,1.77-5.5.12-1.95-.25-3.9-1.08-5.67-.83-1.77-2.09-3.3-3.66-4.46Z"/>
  <path class="cls-1" d="M331.19,597.56l148.81-113.82c1.54-1.18,2.76-2.72,3.57-4.48.8-1.77,1.16-3.7,1.05-5.64-.12-1.94-.71-3.81-1.72-5.47-1.01-1.65-2.42-3.03-4.09-4.01l-220.51-126.6,54.36,253.15c.4,1.94,1.28,3.75,2.57,5.25,1.29,1.5,2.94,2.65,4.79,3.34,1.85.69,3.85.89,5.81.59,1.95-.3,3.8-1.09,5.37-2.3Z"/>
  <path class="cls-1" d="M211.79,299.87L270.36,27.14c.51-2.36.28-4.82-.66-7.05-.94-2.23-2.54-4.11-4.59-5.39-2.05-1.28-4.44-1.9-6.84-1.76-2.41.13-4.72,1.01-6.61,2.5l-149.84,114.68c-3.8,2.91-6.87,6.66-8.99,10.95-2.11,4.29-3.21,9.02-3.2,13.81l-.05,290.45c0,4.79,1.09,9.51,3.2,13.81,2.11,4.3,5.19,8.04,8.98,10.95l149.8,114.55c1.91,1.43,4.2,2.26,6.59,2.36,2.38.1,4.74-.52,6.76-1.78,2.02-1.26,3.62-3.11,4.57-5.3.96-2.19,1.23-4.62.78-6.96l-58.48-273.09Z"/>
</svg>