<?xml version="1.0" encoding="UTF-8"?>
<svg id="Capa_1" data-name="Capa 1" xmlns="http://www.w3.org/2000/svg" viewBox="0 0 600 600">
  <path d="M513.26,387.73v12.64h86.74v-57h-12.64v44.36h-74.1ZM513.26,199.63v12.64h74.1v44.36h12.64v-57h-86.74ZM468.53,297.4v-29.37h19.83c9.67,0,13.14,3.22,13.14,12.02v5.2c0,9.05-3.35,12.14-13.14,12.14h-19.83ZM500,302.6c9.05-2.35,15.36-10.78,15.36-20.82,0-6.32-2.48-12.02-7.19-16.61-5.95-5.7-13.88-8.55-24.16-8.55h-27.88v86.74h12.39v-34.57h18.59c9.54,0,13.38,3.96,13.38,13.88v20.69h12.64v-18.71c0-13.63-3.22-18.83-13.14-20.32v-1.74ZM395.67,305.45h38.17v-11.4h-38.17v-26.02h41.88v-11.4h-54.52v86.74h56.38v-11.4h-43.74v-26.52ZM354.15,310.04v5.95c0,12.52-4.59,16.61-16.11,16.61h-2.73c-11.53,0-17.1-3.72-17.1-20.94v-23.3c0-17.35,5.82-20.94,17.35-20.94h2.48c11.28,0,14.87,4.21,14.99,15.86h13.63c-1.24-17.1-12.64-27.88-29.74-27.88-8.3,0-15.24,2.6-20.45,7.56-7.81,7.31-12.14,19.7-12.14,37.05s3.72,29.12,11.4,36.8c5.2,5.08,12.39,7.81,19.46,7.81,7.43,0,14.25-2.98,17.72-9.42h1.73v8.18h11.4v-44.73h-33.58v11.4h21.69ZM244.86,268.03h13.51c12.76,0,19.7,3.22,19.7,20.57v22.8c0,17.35-6.94,20.57-19.7,20.57h-13.51v-63.94ZM259.48,343.37c23.67,0,32.47-17.97,32.47-43.37s-9.42-43.37-32.71-43.37h-26.77v86.74h27.02ZM172.62,305.45h38.17v-11.4h-38.17v-26.02h41.88v-11.4h-54.52v86.74h56.38v-11.4h-43.74v-26.52ZM99.51,256.63h-12.64v86.74h57v-11.4h-44.36v-75.34ZM0,343.37v57h86.74v-12.64H12.64v-44.36H0ZM0,199.63v57h12.64v-44.36h74.1v-12.64H0Z"/>
</svg>