<?xml version="1.0" encoding="UTF-8"?>
<svg id="Capa_1" data-name="Capa 1" xmlns="http://www.w3.org/2000/svg" xmlns:xlink="http://www.w3.org/1999/xlink" viewBox="0 0 600 600">
  <defs>
    <style>
      .cls-1 {
        fill: url(#linear-gradient-2);
      }

      .cls-2 {
        fill: url(#linear-gradient);
      }
    </style>
    <linearGradient id="linear-gradient" x1="434.14" y1="-1108.47" x2="-1968.69" y2="-1107.13" gradientTransform="translate(487.48 572.14) scale(.25)" gradientUnits="userSpaceOnUse">
      <stop offset="0" stop-color="#00fe9f"/>
      <stop offset="1" stop-color="#00f1f8"/>
    </linearGradient>
    <linearGradient id="linear-gradient-2" x1="157.04" y1="-1384.34" x2="-1669.52" y2="-1352.47" gradientTransform="translate(487.48 572.14) scale(.25)" gradientUnits="userSpaceOnUse">
      <stop offset="0" stop-color="#00fda7"/>
      <stop offset="1" stop-color="#00f2f2"/>
    </linearGradient>
  </defs>
  <path class="cls-2" d="M37.58,75.91c4.12,3.33,9.52,3.62,14.73,6.77l67.98,243.92,125.09,91.81,52.48-28.82c.91-.16,1.28-.44,1.02-.98-.16-.34-.26-.7-.59-.89.8-3.05,2.16-2.78,3.46.02-.34.17-.46.53-.6.85-.24.55.13.9,1.09.92l52.43,28.86,125.02-91.72,68.09-244c5.16-3.21,10.63-3.31,14.7-6.74h3.17l34.33,205.89-299.94,242.28L0,281.76,34.41,75.91h3.17Z"/>
  <path class="cls-1" d="M301.76,387.75c-1.61-.09-2.55-.06-3.46-.02l-89.67-60.68,17.25-102.69-106.11-62.53-52.18-73.73,185.94,58.49-20.23,149.01,66.75,25.73,66.73-25.76-20.15-149,185.9-58.48-52.52,73.98-105.86,62.33,17.33,102.74-89.71,60.62Z"/>
</svg>