<?xml version="1.0" encoding="UTF-8"?>
<svg id="Capa_1" data-name="Capa 1" xmlns="http://www.w3.org/2000/svg" viewBox="0 0 600 600">
  <defs>
    <style>
      .cls-1 {
        fill: #00d900;
      }

      .cls-2 {
        fill: #000100;
      }
    </style>
  </defs>
  <path class="cls-1" d="M448.87,574.64c-50.79,33.31-218.77,30.81-295.01,1.44-5.17-1.99-7.99-8.13-12.92-10.52-32.22-15.64-59.86-37.11-78.32-67.32-26.21-42.89-39.14-87.4-43.31-138.16-8.96-108.86-2.96-248.9,98.62-315.26,9.24-6.03,16.47-14.34,28.03-19.28,83.15-35.56,226.89-35.57,310.04,0,11.56,4.94,18.8,13.24,28.03,19.28,101.48,66.3,107.69,206.47,98.61,315.26-4.23,50.73-16.97,95.34-43.34,138.09-15.78,25.59-39.92,43.34-65.57,60.16l-24.86,16.31Z"/>
  <path class="cls-2" d="M278.89,261.91l-1.57-91.05-41.83-1.92c2.81-14.12,6.8-26.81,12.87-40.7,26.85-.1,52.07-1.63,78.15.94l-.34,132c-14.98,2.94-28.74,2.27-47.28.73Z"/>
  <g>
    <path d="M390.67,379.96c-1.9,52.38-39.98,89.75-88.3,90.56-49.84.84-88.29-37.39-91.08-88.71-2.95-54.37,35.25-97.99,87.69-98.88,52.35-.89,93.77,39.79,91.69,97.03Z"/>
    <path class="cls-1" d="M334.24,414.22c-17.48,21.04-48.94,20.54-65.83,1.02-19.37-22.39-21.71-47.44-5.24-72.54,8-12.18,22.15-18.57,36.04-18.98,15.61-.46,30.94,5.76,39.57,18.98,15.77,24.15,14.79,48.26-4.54,71.52Z"/>
  </g>
</svg>