<?xml version="1.0" encoding="UTF-8"?>
<svg id="Capa_1" data-name="Capa 1" xmlns="http://www.w3.org/2000/svg" viewBox="0 0 600 600">
  <path d="M230.98,31.15c-60.31,9.64-114.09,38.55-158.24,85.18C24.87,166.7,0,228.87,0,298.82s24.56,135.23,72.75,185.6c37.62,39.79,79.9,65.28,131.81,79.27,34.2,9.33,97.93,9.02,132.75-.31,79.9-21.45,146.74-77.1,180-150.16l10.57-23.32,23.01-1.87c12.44-.93,28.29-3.42,35.13-5.91l12.44-4.04v-59.07l-17.1,1.24c-40.1,2.8-38.86,3.11-39.79-8.7-.62-5.6,0-11.5,1.55-13.06,1.24-1.24,12.75-4.66,25.49-7.15,12.44-2.8,24.56-6.53,27.05-8.39,3.11-2.49,4.35-11.19,4.35-29.22,0-31.09-2.49-34.2-22.38-29.84-7.15,1.55-20.21,3.73-28.29,4.66-16.79,1.87-14.61,4.35-28.29-32.64-6.84-18.65-24.56-48.19-42.28-69.95-32.02-39.48-92.95-77.1-144.56-89.84-25.18-5.91-79.59-8.7-103.21-4.97ZM326.42,104.83c28.91,8.39,59.38,26.42,83.32,49.12,22.07,20.83,46.32,55.03,42.9,60.62-.93,1.24-10.57.62-21.14-2.18-21.45-5.28-92.33-7.15-111.92-2.8-18.65,4.04-21.14,8.39-21.14,37.62,0,32.95,1.87,35.13,27.05,29.53,9.95-2.18,34.2-3.73,53.78-3.73,29.22.31,41.04,1.87,63.73,8.7,15.23,4.35,28.91,9.95,30.16,11.81,1.87,3.11.31,15.85-2.49,21.45-.62.93-11.5-.62-23.63-4.04-50.05-12.75-114.09-13.68-138.65-2.18-8.08,4.04-8.39,5.28-9.33,31.09-1.24,35.75.31,37.31,31.09,31.4,44.15-8.7,123.73.31,123.73,13.99,0,9.64-24.25,42.9-46.63,63.73-38.86,36.99-97.31,58.13-149.22,54.09-27.98-2.18-66.53-13.99-89.22-27.05-35.13-20.21-70.26-60.93-87.05-101.04-16.48-38.86-17.72-99.48-3.11-140.83,24.25-69.33,90.16-124.35,162.28-135.54,17.41-2.49,68.39.93,85.49,6.22Z"/>
</svg>