<?xml version="1.0" encoding="UTF-8"?>
<svg id="Capa_1" data-name="Capa 1" xmlns="http://www.w3.org/2000/svg" viewBox="0 0 600 600">
  <defs>
    <style>
      .cls-1 {
        fill: #f7f6f5;
      }

      .cls-2 {
        fill: #fec73d;
      }

      .cls-3 {
        fill: #fece3f;
      }

      .cls-4 {
        fill: #0b0a0f;
      }

      .cls-5 {
        fill: #fefdfb;
      }

      .cls-6 {
        fill: #03020c;
      }
    </style>
  </defs>
  <path class="cls-2" d="M337.22,600h-12.82c-7.38-4.93-21.68-6.2-42.91-3.8,5.76-.42,4.39.85-4.1,3.8h-21.37c-59.27-13.92-110.86-35.05-155.27-74.97C29.06,460.56-8.18,374.58-.72,275.92,8.78,150.19,97.64,41.18,222.14,9.88c76.9-19.34,158.4-10.48,226.39,28.39,100.02,57.18,159.08,162.41,152.66,276.35-8.6,152.54-118.03,260.6-263.96,285.38Z"/>
  <path class="cls-3" d="M324.4,600h-47.01c-.05-1.79-.79-4.64.18-6.17,1.28-2.01,4.34-2.55,8.04-2.55h30.56c3.7,0,6.76.54,8.04,2.55.97,1.53.24,4.38.18,6.17Z"/>
  <path class="cls-4" d="M128.56,351.65c21.78-32.83,23.16-20.28,53.14-50.54,14.92,34.45,16.48,68.16-1.71,98.19,35.1,24.09,104.45,51.79,133.33,12.82,9.86-13.3,21.62-48.18,4.25-58.08-21.99-12.53-46.5,3.9-70.84,4.03,3.65-25.72,20.92-46.44,45.93-56.27-45.22-34.13-82.81-72.12-103.8-124.09-4.72-11.68-10.19-37.62,3.77-44.51,26.28-12.98,57.07-17.91,85.1-26.01,48.63-14.07,94.99-1.48,133.82,27.22,29.83,22.05,45.13,53.71,70.18,79.31,28.59,29.21,63.95,56.4,58.89,102.13-12.44-9.48-21.83-17.95-36.71-15.86,1.36,114.1-93.62,208.49-208.78,206.58-67.39-1.12-110.7-41.51-159.3-81.56-23-18.96-69.27-19.97-76.59-66.25,32.24,3.29,32.66-13.28,69.31-7.1Z"/>
  <path class="cls-5" d="M193.21,440.53l71.07,15.34c39.35,8.49,75.88-22.33,82.78-63.37,7.73-46.01-12.46-90.28-49.8-117.84-33.35-24.62-62.2-54.46-79.42-92.63,19.4-7.07,37.53-5.02,55.49,1.49,69.86,25.32,129.9,78.31,158.47,146.28,21.4,50.89,2.97,103.02-43.32,129.56-61.63,35.33-139.61,32.25-195.27-18.82Z"/>
  <path class="cls-1" d="M398.81,187.36c-22.11,19.04-85.04-10.63-71.83-29.36,2.67-3.79,8.35-3.24,14.35-4.57,21.17,5.32,39.89,13.49,57.48,33.94Z"/>
  <path class="cls-6" d="M281.75,436.3c-5.84,3.62-13.3,3.47-21.73.32,5.77-3.96,13.01-4,21.73-.32Z"/>
</svg>