<?xml version="1.0" encoding="UTF-8"?>
<svg id="Capa_1" data-name="Capa 1" xmlns="http://www.w3.org/2000/svg" viewBox="0 0 600 600">
  <defs>
    <style>
      .cls-1 {
        fill: #f75425;
      }
    </style>
  </defs>
  <path class="cls-1" d="M332.29,32.32c13.77-7.1,41.87-16.94,63.36-22.4C416.58,4.46,438.62.08,444.13.08c4.96-.55,14.32,1.64,20.38,4.92,6.06,2.73,11.02,9.84,11.02,14.75.55,5.46-2.75,12.57-6.61,15.85-3.86,3.28-18.18,8.74-31.96,12.57-13.77,3.83-34.71,12.02-46.83,18.03-12.12,6.01-32.51,19.67-45.18,29.51-18.73,14.75-29.75,31.69-84.3,144.26l-56.2,42.08c-31.4,22.95-62.26,48.09-68.87,55.74-6.61,7.65-16.53,24.04-21.49,36.07-5.51,14.21-8.26,33.33-6.61,55.19,1.1,25.14,5.51,39.34,18.18,59.56,9.37,14.75,24.79,30.6,35.81,36.61,10.47,5.46,28.1,11.48,38.57,13.12,11.02,2.18,30.85.55,46.28-3.83s37.46-16.39,49.58-27.32c12.67-10.38,28.1-30.05,34.71-43.72,7.16-13.12,15.43-39.89,18.73-59.56,3.86-19.67,11.57-46.45,18.18-60.11,6.61-14.21,30.85-42.62,57.3-68.31,28.65-27.32,51.24-55.19,61.16-73.77,11.02-21.86,16.53-42.08,18.73-72.13,3.31-34.97,6.06-43.72,14.88-48.09,8.81-4.37,12.67-3.28,19.28,7.1,4.41,6.56,9.92,24.59,11.57,39.34,2.2,15.3.55,42.08-3.31,60.11-3.86,18.03-13.22,45.35-20.94,60.11-7.71,15.3-31.4,44.26-53.44,65.57-21.49,21.31-41.87,42.08-45.73,46.45-3.31,4.37-9.92,27.87-14.87,51.91-4.41,24.04-14.88,56.83-22.04,72.68-7.71,15.3-24.79,39.89-38.02,54.64-15.43,16.39-36.36,31.15-58.95,41.53-19.28,8.74-47.38,16.94-62.81,18.58-17.08,1.64-39.12-1.09-57.85-6.56-16.53-4.37-42.42-18.03-57.85-29.51-19.83-14.75-33.06-31.15-46.83-57.92-18.18-34.97-19.28-40.98-19.28-87.43.55-38.8,3.31-55.74,12.67-77.05,6.61-15.3,22.59-37.7,35.26-50.27,13.22-12.02,41.32-35.52,63.36-51.91,21.49-15.85,45.73-37.7,53.99-48.09,7.71-10.38,19.83-34.97,27.55-54.64,8.81-23.5,22.04-44.81,39.67-63.39,14.32-15.3,37.46-33.33,51.24-40.44Z"/>
</svg>