<?xml version="1.0" encoding="UTF-8"?>
<svg id="Capa_1" data-name="Capa 1" xmlns="http://www.w3.org/2000/svg" xmlns:xlink="http://www.w3.org/1999/xlink" viewBox="0 0 600 600">
  <defs>
    <style>
      .cls-1 {
        fill: url(#linear-gradient-2);
      }

      .cls-2 {
        fill: #fff;
      }

      .cls-3 {
        fill: url(#linear-gradient-3);
      }

      .cls-4 {
        fill: #070707;
        isolation: isolate;
        opacity: .4;
      }

      .cls-5 {
        fill: url(#linear-gradient);
      }
    </style>
    <linearGradient id="linear-gradient" x1="247.35" y1="-212.2" x2="539.44" y2="-212.2" gradientTransform="translate(0 -58) scale(1 -1)" gradientUnits="userSpaceOnUse">
      <stop offset="0" stop-color="#469bf5"/>
      <stop offset=".09" stop-color="#3b81f4"/>
      <stop offset=".21" stop-color="#3068f3"/>
      <stop offset=".34" stop-color="#2754f2"/>
      <stop offset=".49" stop-color="#2147f1"/>
      <stop offset=".67" stop-color="#1d3ef1"/>
      <stop offset="1" stop-color="#1c3cf1"/>
    </linearGradient>
    <linearGradient id="linear-gradient-2" x1="62.62" y1="-506.53" x2="350.23" y2="-506.53" gradientTransform="translate(0 -58) scale(1 -1)" gradientUnits="userSpaceOnUse">
      <stop offset=".08" stop-color="#469bf5"/>
      <stop offset=".24" stop-color="#4292f5"/>
      <stop offset=".51" stop-color="#3779f4"/>
      <stop offset=".85" stop-color="#2550f2"/>
      <stop offset="1" stop-color="#1c3cf1"/>
    </linearGradient>
    <linearGradient id="linear-gradient-3" x1="0" y1="-358" x2="600" y2="-358" gradientTransform="translate(0 -58) scale(1 -1)" gradientUnits="userSpaceOnUse">
      <stop offset=".08" stop-color="#469bf5"/>
      <stop offset=".7" stop-color="#2857f2"/>
      <stop offset="1" stop-color="#1c3cf1"/>
    </linearGradient>
  </defs>
  <ellipse class="cls-2" cx="299.98" cy="300" rx="299.98" ry="296.43"/>
  <g>
    <g>
      <path class="cls-5" d="M259.06,204.97s12.59,6.98,31.65,17.54l248.72-103.17c-8.98-11.87-18.82-23.04-29.43-33.46-1.76.99-3.21,1.55-3.21,1.55l-259.44,109.1c2.92,2.97,6.76,5.83,11.71,8.44Z"/>
      <path class="cls-1" d="M98.49,512.58l251.74-104.96-46.82-26.46-192.16,81.63-48.64,20.56c8.95,11.57,18.69,22.43,29.21,32.56l6.66-3.34Z"/>
      <path class="cls-3" d="M565.85,161.1l-45.83,17.75c-36.69,13.42-181.02,70.34-181.02,70.34,23.58,13.01,49.09,27.04,71.54,39.29,57.39,31.35,21.06,100.17,13.47,113.22-.1.18-.21.35-.3.53-.62,1.05-1.01,1.65-1.01,1.65,0,0,5.38-51.44-30.85-70.45-36.53-18.97-120.3-63.59-155.5-82.39-16.59-8.85-28.62-24.89-30.89-43.56-1.69-13.97,1.81-30.01,18.55-44.08,9.03-8.34,18.66-13.15,20.09-13.84.13-.06.22-.11.35-.16l186.97-76.71s1.18-.46,2.91-1.36l38.92-16.15C424.33,20.48,364.57,0,299.98,0,134.03,0-3.02,139.68.05,305.62c.94,51.23,14.78,99.29,38.33,141.17l72.4-31.56,144.14-60.48c-24.83-13.63-47.81-26.32-58.71-32.13-5.45-2.91-12.24-7.48-17.69-10.37-29.19-15.44-48.34-59.01-4.01-110.72,0,0-4.6,49.07,22.83,65.74,26.2,15.93,128.1,68.12,157.95,84.13,6.77,3.64,13.09,8.13,18.33,13.79,13.2,14.27,18.41,32.26,13.23,51.36-.22.91-.53,1.76-.8,2.64-.18.56-.35,1.13-.56,1.69-.3.86-.61,1.73-.96,2.56-.11.27-.19.53-.3.8-10.32,24.96-37.81,32.47-37.81,32.47l-3.32,1.12-175.16,71.87-38.64,16.95c48.88,33.91,108.29,53.7,172.36,53.35,166.1-.89,302.31-141.43,298.24-307.48-1.2-47.34-13.39-91.94-34.07-131.42Z"/>
    </g>
    <polygon class="cls-4" points="255.08 354.52 303.56 380.91 279.32 391.22 228.54 365.65 255.08 354.52"/>
    <path class="cls-4" d="M346.32,456.49s40.28-28.51,3.83-49.1l-22.88,9.54s38.17,10.23,19.05,39.56Z"/>
    <polygon class="cls-4" points="339.16 248.99 290.67 222.6 315.43 212.26 366.63 238.32 339.16 248.99"/>
    <path class="cls-4" d="M251.26,146.84s-40.68,28.81-3.87,49.61l23.12-9.64s-38.57-10.34-19.25-39.98Z"/>
  </g>
</svg>