<?xml version="1.0" encoding="UTF-8"?>
<svg id="Capa_1" data-name="Capa 1" xmlns="http://www.w3.org/2000/svg" viewBox="0 0 600 600">
  <defs>
    <style>
      .cls-1 {
        fill: none;
      }

      .cls-1, .cls-2 {
        stroke: #2cf8a7;
        stroke-miterlimit: 10;
        stroke-width: 3px;
      }

      .cls-2 {
        fill: #09121a;
      }
    </style>
  </defs>
  <circle class="cls-2" cx="299.46" cy="299.57" r="297.96"/>
  <path class="cls-1" d="M324.07,138.09l24.74,36.11-29.82,5.33s-.94-28.74,5.08-41.45Z"/>
  <path class="cls-1" d="M320.13,191.6c1.26,0,28.68-4.68,28.68-4.68l20.06,34.11s-2.01,32.1-8.03,38.12c-6.02,6.02-23.25,17.39-40.72,2.68l-11.45-30.09,11.45-40.13Z"/>
  <path class="cls-1" d="M383.59,247.1l-30.09,44.81,20.06,32.77h20.06s23.41-34.11,22.74-38.79-6.02-23.41-6.02-23.41l-26.75-15.38Z"/>
  <polygon class="cls-1" points="395.87 209.29 395.87 235.53 416.89 247.1 416.89 223.6 395.87 209.29"/>
  <path class="cls-1" d="M270.62,141.81l-23.18,41.58,33.31,2.46s-2.41-32.29-10.12-44.04Z"/>
  <path class="cls-1" d="M284.57,200.27c-1.25.17-38.12-3-38.12-3l-8.75,32.86s5.51,26.21,12.3,31.34c6.79,5.13,27.02,16.39,42.28-.6l6.51-28.46-14.22-32.14Z"/>
  <path class="cls-1" d="M228.36,257.04l31.56,41.27-29.35,31.03s-39.64-35.84-39.29-40.55c.35-4.72-.03-22.67-.03-22.67l37.11-9.07Z"/>
  <polygon class="cls-1" points="206.53 210.97 214.77 249.84 197.42 257.04 191.26 247.1 206.53 210.97"/>
  <path class="cls-1" d="M294.84,277.66s37.06,11.93,39.63,14.31c2.57,2.39,53.54,74.73,53.54,74.73l-19.14,19.88-57.16,15.9-81.1-15.9-10.89-30.21,45.23-41.34,29.89-37.37Z"/>
  <g>
    <path class="cls-1" d="M395.87,82.82s47.21,16.93,57.18,77.01c0,0-43.62,0-57.18-77.01Z"/>
    <path class="cls-1" d="M455.55,87.81c1.13-2.31,33.65,36.76,13.09,102.81,0,0-36.76-54.21-13.09-102.81Z"/>
    <path class="cls-1" d="M406.38,148.87s55.91.62,69.05,66.05c0,0-57.15-13.71-69.05-66.05Z"/>
    <path class="cls-1" d="M487.95,151.99s-24.56,41.91,2.85,75.36c0,0,20.83-48.57-2.85-75.36Z"/>
    <path class="cls-1" d="M530.32,176.91s6.24,65.49-41.11,93.53c0,0-11.23-61.13,41.11-93.53Z"/>
    <path class="cls-1" d="M454.3,206.82s-16.62,61,30.12,87.17c0,0,13.5-67.23-30.12-87.17Z"/>
    <path class="cls-1" d="M482.02,331.1s-8.78-54.27,48.92-93.12c0,0,9.74,45.24-48.92,93.12Z"/>
    <path class="cls-1" d="M474.24,355.12s9.97-49.85,71.66-59.82c0,0,.62,51.09-71.66,59.82Z"/>
    <path class="cls-1" d="M478.6,291.56s-24.92,19.32-11.84,72.9c0,0,24.3-28.66,11.84-72.9Z"/>
    <path class="cls-1" d="M417.59,416.88s73.47-12.53,97.77-61.76c0,0-54.77-5.54-97.77,61.76Z"/>
    <path class="cls-1" d="M387.76,436.77s5.47-80.4,60.93-96.6c0,0,7.61,62.96-60.93,96.6Z"/>
    <path class="cls-1" d="M391.99,435.5s79.76,19.94,125.87-21.81c0,0-62.93-28.66-125.87,21.81Z"/>
    <path class="cls-1" d="M336.91,457.22s53.04-38.09,94.69-7.02c2.13,1.59,2.36,4.65.15,6.14-6.78,4.61-29.9,11.99-94.85.88Z"/>
  </g>
  <g>
    <path class="cls-1" d="M210.95,82.82s-47.21,16.93-57.18,77.01c0,0,43.62,0,57.18-77.01Z"/>
    <path class="cls-1" d="M151.27,87.81c-1.13-2.31-33.65,36.76-13.09,102.81,0,0,36.76-54.21,13.09-102.81Z"/>
    <path class="cls-1" d="M200.44,148.87s-55.91.62-69.05,66.05c0,0,57.15-13.71,69.05-66.05Z"/>
    <path class="cls-1" d="M118.87,151.99s24.56,41.91-2.85,75.36c0,0-20.83-48.57,2.85-75.36Z"/>
    <path class="cls-1" d="M76.5,176.91s-6.24,65.49,41.11,93.53c0,0,11.23-61.13-41.11-93.53Z"/>
    <path class="cls-1" d="M152.52,206.82s16.62,61-30.12,87.17c0,0-13.5-67.23,30.12-87.17Z"/>
    <path class="cls-1" d="M124.8,331.1s8.78-54.27-48.92-93.12c0,0-9.74,45.24,48.92,93.12Z"/>
    <path class="cls-1" d="M132.58,355.12s-9.97-49.85-71.66-59.82c0,0-.62,51.09,71.66,59.82Z"/>
    <path class="cls-1" d="M128.22,291.56s24.92,19.32,11.84,72.9c0,0-24.3-28.66-11.84-72.9Z"/>
    <path class="cls-1" d="M189.22,416.88s-73.47-12.53-97.77-61.76c0,0,54.77-5.54,97.77,61.76Z"/>
    <path class="cls-1" d="M219.05,436.77s-5.47-80.4-60.93-96.6c0,0-7.61,62.96,60.93,96.6Z"/>
    <path class="cls-1" d="M214.83,435.5s-79.76,19.94-125.87-21.81c0,0,62.93-28.66,125.87,21.81Z"/>
    <path class="cls-1" d="M263.35,456.39c-23.34-11.67-35.92-30.98-88.13-6.2-2.41,1.14-2.36,4.65-.15,6.14,6.78,4.61,23.33,11.16,88.29.05Z"/>
  </g>
  <path class="cls-1" d="M302.26,464.16s49.85-71.03,87.86-64.18c0,0-3.74,39.88-59.82,57.95,0,0,81.63,2.49,83.5,24.92,1.87,22.43-89.68,2.78-111.54-18.69"/>
  <path class="cls-1" d="M302.26,464.16s-48.92-66.39-86.52-64.61c-2.12.1-3.63,2.11-3.13,4.17,2.5,10.34,13.47,39.5,59.12,54.21,0,0-81.63,2.49-83.5,24.92s94.98-.35,114.03-18.69"/>
  <path class="cls-1" d="M302.26,464.16l-49.85,39.88s16.82,22.43,18.69,19.32c1.87-3.12,31.91-46.07,31.91-46.07l31.65,45.45,17.45-18.07-49.85-40.5Z"/>
  <path class="cls-1" d="M343.05,513.07l-40.27-39.18s-41.98,37.93-43.85,39.8"/>
</svg>