<?xml version="1.0" encoding="UTF-8"?>
<svg id="Capa_1" data-name="Capa 1" xmlns="http://www.w3.org/2000/svg" xmlns:xlink="http://www.w3.org/1999/xlink" viewBox="0 0 600 600">
  <defs>
    <style>
      .cls-1 {
        fill: url(#Degradado_sin_nombre_4-2);
      }

      .cls-2 {
        fill: url(#Degradado_sin_nombre_4);
      }

      .cls-3 {
        fill: #af145b;
      }
    </style>
    <linearGradient id="Degradado_sin_nombre_4" data-name="Degradado sin nombre 4" x1="168.1" y1="-218.22" x2="431.9" y2="-218.22" gradientTransform="translate(0 -58) scale(1 -1)" gradientUnits="userSpaceOnUse">
      <stop offset="0" stop-color="#cb0766"/>
      <stop offset="1" stop-color="#e04391"/>
    </linearGradient>
    <linearGradient id="Degradado_sin_nombre_4-2" data-name="Degradado sin nombre 4" x1="171.98" y1="-478.43" x2="405.02" y2="-478.43" xlink:href="#Degradado_sin_nombre_4"/>
  </defs>
  <path class="cls-3" d="M260.57,385.66c-3.58,0-6.45,0-10.04-3.58l-53.05-53.05c-1.43-1.43-2.15-2.15-2.15-3.58-.72-.72-1.43-3.58-.72-6.45,0-1.43.72-2.15,1.43-2.87l2.15-2.15c1.43-1.43,2.15-2.87,2.87-3.58,12.9-12.19,25.09-24.37,37.99-35.84,28.67-27.96,57.35-55.91,86.02-83.87,0-1.43,2.15-10.04,8.6-12.19,2.15-.72,5.02-.72,6.45-.72,3.58,0,6.45,0,10.04,3.58l55.91,53.05c2.15,2.87,4.3,6.45,3.58,10.04-.72,3.58-4.3,5.73-5.73,6.45-6.45,3.58-26.52,23.66-64.52,63.8-22.94,22.22-45.16,44.44-68.1,65.95-.72.72-1.43,2.87-3.58,4.3-2.15.72-4.3.72-7.17.72Z"/>
  <path class="cls-2" d="M405.38,128.32l-108.96-105.38C279.93,10.04,259.86,0,236.92,0s-45.88,10.04-62.37,26.52c-6.45,3.58-6.45,6.45-6.45,10.04s0,6.45,3.58,10.04l148.39,141.94c3.58,3.58,6.45,3.58,6.45,6.45,32.97,36.56,36.56,88.89,6.45,125.45l72.4-69.53c16.49-12.9,26.52-36.56,26.52-59.5s-10.04-46.59-26.52-63.08Z"/>
  <path class="cls-1" d="M277.06,366.31c-32.97-36.56-36.56-88.89-3.58-125.45l-72.4,69.53c-16.49,16.49-26.52,39.43-26.52,62.37s10.04,45.88,26.52,62.37l158.42,161.29c3.58,3.58,6.45,3.58,10.04,3.58s6.45,0,10.04-3.58c16.49-16.49,26.52-39.43,26.52-62.37s-10.04-45.88-26.52-62.37l-98.92-98.92c-.72-3.58-3.58-3.58-3.58-6.45Z"/>
</svg>