<?xml version="1.0" encoding="UTF-8"?>
<svg id="Capa_1" data-name="Capa 1" xmlns="http://www.w3.org/2000/svg" viewBox="0 0 600 600">
  <defs>
    <style>
      .cls-1 {
        fill: #fff;
      }

      .cls-2, .cls-3 {
        fill: #00e28d;
      }

      .cls-3 {
        fill-rule: evenodd;
      }
    </style>
  </defs>
  <path class="cls-2" d="M59.88,469.52l208.95,122.33c18.5,10.83,41.39,10.87,59.92.12l211.15-122.49c18.35-10.65,29.65-30.26,29.65-51.47v-237.94c0-21.36-11.45-41.08-30-51.68L328.4,7.83c-18.36-10.48-40.9-10.44-59.21.12L60.24,128.35c-18.44,10.62-29.8,30.28-29.8,51.56v238.25c0,21.13,11.21,40.68,29.44,51.35Z"/>
  <path class="cls-1" d="M489.82,300.33c0,104.95-85.08,190.02-190.02,190.02s-190.02-85.08-190.02-190.02,85.08-190.02,190.02-190.02,190.02,85.08,190.02,190.02Z"/>
  <path class="cls-3" d="M268.99,259.45c18.49,10.81,41.36,10.86,59.89.12l210.89-122.25,23.88,41.19-211.34,122.5c-18.36,10.64-29.66,30.26-29.66,51.48v238.23h-47.6v-238.45c0-21.14-11.21-40.69-29.46-51.36L36.28,178.46l24.04-41.09,208.68,122.08Z"/>
</svg>