<?xml version="1.0" encoding="UTF-8"?>
<svg id="Capa_1" data-name="Capa 1" xmlns="http://www.w3.org/2000/svg" viewBox="0 0 600 600">
  <defs>
    <style>
      .cls-1 {
        fill: #4a21ef;
      }
    </style>
  </defs>
  <path class="cls-1" d="M263.13,0c-18.22,0-35.69,7.25-48.57,20.17L12.23,223c-7.66,7.68-11.5,17.75-11.5,27.82s3.83,20.14,11.5,27.82l132.6,132.92v-235.32c0-17.56,14.09-31.8,31.61-31.8h278.74L599.26,0h-336.13Z"/>
  <path class="cls-1" d="M144.83,455.55h278.63c17.52,0,31.72-14.24,31.72-31.8v-235.32l132.6,132.92c7.66,7.68,11.5,17.75,11.5,27.82s-3.83,20.14-11.5,27.82l-202.33,202.83c-12.88,12.91-30.35,20.17-48.57,20.17H.74s144.09-144.45,144.09-144.45Z"/>
</svg>