<?xml version="1.0" encoding="UTF-8"?>
<svg id="Capa_1" data-name="Capa 1" xmlns="http://www.w3.org/2000/svg" viewBox="0 0 600 600">
  <path d="M576.1,18.47c0-10.17-8.2-18.44-18.34-18.44-2.34,0-4.59.46-6.64,1.26v-.06l-1.17.49-159.87,67.38h-180.18L49.62,1.57l-.68-.29c-2.08-.8-4.33-1.29-6.69-1.29-10.14,0-18.34,8.25-18.34,18.44,0,.74.06,1.49.14,2.23h-.03l.2,1.17,37.37,226.51-36,122.96-.4,1.37c-.37,1.49-.6,3.01-.6,4.61,0,6.99,3.87,13.06,9.57,16.18l.77.4,116.83,59.53c47.42,28.61,66.68,62.09,103.1,104.01l30.56,35.31,1.4,1.6c3.33,3.47,7.98,5.67,13.16,5.67s10.25-2.37,13.61-6.13l.68-.77,30.9-35.68c36.43-41.92,55.68-75.4,103.1-104.01l116.92-59.59.66-.34c5.7-3.15,9.57-9.22,9.57-16.24,0-1.72-.26-3.38-.68-4.95l-.12-.4-.06-.2-.2-.69-35.94-122.73,37.45-226.94.11-.69h-.09c.09-.74.14-1.46.14-2.23l.06.06ZM521.5,65l-20.88,126.88-68.21-89.17,89.12-37.71h-.03ZM216.58,116.09h166.87l83.37,109.56H133.24l83.37-109.56h-.03ZM300.03,406.05l-.09-.06v.14l-.43.37-154.77-133.38h310.56l-154.77,133.38-.43-.37v-.14l-.09.06ZM167.65,102.74l-68.21,89.17-20.88-126.88,89.12,37.71h-.03ZM78.24,358.69l19.11-59.1,104.1,93.04,28.74,25.69-151.95-59.59v-.03ZM300.03,525.95l-58.7-70.7,58.62,8.45h.17l58.62-8.45-58.7,70.7ZM369.84,418.28l28.74-25.69,104.1-93.04,19.11,59.1-151.95,59.59v.03Z"/>
</svg>