<?xml version="1.0" encoding="UTF-8"?>
<svg id="Capa_1" data-name="Capa 1" xmlns="http://www.w3.org/2000/svg" viewBox="0 0 600 600">
  <defs>
    <style>
      .cls-1 {
        fill: #6284f5;
      }

      .cls-2 {
        fill: #4a60aa;
      }

      .cls-3 {
        fill: #9eabde;
      }

      .cls-4 {
        fill: #6a749a;
      }
    </style>
  </defs>
  <path class="cls-3" d="M146.66,39.34C13.64,116.14-36.47,281.39,27.74,417.9c42.36,75.46,158.34,112.93,226.73,16.43,12.53-17.68,19.62-35.62,23.27-53.75,16.48-81.76-36.86-167.3,24.86-250.07,19.64-28.27,83.57-79.75,182.18-59.46C414.79,10.78,319.57-13.23,229.13,7.08c-28.27,6.35-56.07,17.02-82.48,32.27Z"/>
  <path class="cls-4" d="M484.77,71.05c-98.61-20.29-162.54,31.19-182.18,59.46-61.72,82.76-8.38,168.31-24.86,250.07,12.26-64.37-38.31-102.68-98.08-177.78-42.89-53.89-57.36-158.51,49.48-195.73,90.44-20.3,185.66,3.71,255.64,63.98Z"/>
  <path class="cls-1" d="M573.38,184.51c62.96,137.08,11.36,301.87-122.34,377.46-26.55,15.01-54.44,25.43-82.77,31.52,107.17-36.25,93.65-140.99,51.25-195.27-59.08-75.63-109.31-114.4-96.46-178.66,3.82-18.09,11.07-35.96,23.75-53.53,69.26-95.88,184.9-57.36,226.57,18.48Z"/>
  <path class="cls-2" d="M113.22,527.2c98.43,21.18,162.82-29.71,182.71-57.81,62.47-82.2,9.9-168.22,27.12-249.83-12.85,64.26,37.38,103.03,96.46,178.66,42.4,54.28,55.93,159.02-51.25,195.27-90.62,19.48-185.62-5.39-255.05-66.29Z"/>
</svg>