<?xml version="1.0" encoding="UTF-8"?>
<svg id="Capa_1" data-name="Capa 1" xmlns="http://www.w3.org/2000/svg" viewBox="0 0 600 600">
  <defs>
    <style>
      .cls-1 {
        fill: #0e0e0d;
      }

      .cls-2 {
        fill: #000001;
      }

      .cls-3 {
        fill: #f7efe0;
      }

      .cls-4 {
        fill: #fdfaeb;
      }

      .cls-5 {
        fill: #fcf7e9;
      }

      .cls-6 {
        fill: #6f6c66;
      }

      .cls-7 {
        fill: #010101;
      }

      .cls-8 {
        fill: #938f87;
      }

      .cls-9 {
        fill: #f3ecdd;
      }

      .cls-10 {
        fill: #010102;
      }

      .cls-11 {
        fill: #fef9e9;
      }

      .cls-12 {
        fill: #fdf9ea;
      }

      .cls-13 {
        fill: #e6e1d4;
      }

      .cls-14 {
        fill: #fcf8ea;
      }

      .cls-15 {
        fill: #aca79d;
      }

      .cls-16 {
        fill: #fbf3e4;
      }

      .cls-17 {
        fill: #fefaec;
      }

      .cls-18 {
        fill: #0c0c0c;
      }

      .cls-19 {
        fill: #020202;
      }

      .cls-20 {
        fill: #030304;
      }

      .cls-21 {
        fill: #060607;
      }

      .cls-22 {
        fill: #000101;
      }

      .cls-23 {
        fill: #1c1c1c;
      }

      .cls-24 {
        fill: #68655f;
      }

      .cls-25 {
        fill: #c4beb2;
      }

      .cls-26 {
        fill: #fefeee;
      }

      .cls-27 {
        fill: #0d0c0c;
      }

      .cls-28 {
        fill: #fefdef;
      }

      .cls-29 {
        fill: #0d0d0d;
      }

      .cls-30 {
        fill: #87847c;
      }

      .cls-31 {
        fill: #fefcef;
      }

      .cls-32 {
        fill: #0f0f0f;
      }

      .cls-33 {
        fill: #f0e9da;
      }

      .cls-34 {
        fill: #fdfaec;
      }

      .cls-35 {
        fill: #fefbec;
      }

      .cls-36 {
        fill: #efe8da;
      }

      .cls-37 {
        fill: #302f2d;
      }

      .cls-38 {
        fill: #fefdee;
      }

      .cls-39 {
        fill: #fdf8ea;
      }

      .cls-40 {
        fill: #7b7871;
      }

      .cls-41 {
        fill: #f1eadb;
      }

      .cls-42 {
        fill: #e9e6d9;
      }

      .cls-43 {
        fill: #ece8db;
      }

      .cls-44 {
        fill: #fefbee;
      }

      .cls-45 {
        fill: #e7e0d2;
      }

      .cls-46 {
        fill: #fefef1;
      }

      .cls-47 {
        fill: #e6e2d4;
      }

      .cls-48 {
        fill: #fefef4;
      }

      .cls-49 {
        fill: #101010;
      }

      .cls-50 {
        fill: #87837c;
      }
    </style>
  </defs>
  <path class="cls-49" d="M600,1.5v1.5c-1.33,195.04-1.33,398.82,0,594v1.5c-196.61,1.32-403.02,1.32-600,0v-1.5C1.33,401.96,1.33,198.18,0,3v-1.5C196.61.18,403.02.18,600,1.5Z"/>
  <g>
    <rect class="cls-23" width="600" height="1.5"/>
    <rect class="cls-23" y="598.5" width="600" height="1.5"/>
    <path class="cls-23" d="M0,597V3c.81-.16,1.1.31,1.5,1.96v590.09c-.41,1.65-.69,2.11-1.5,1.96Z"/>
    <path class="cls-23" d="M600,597c-.81.16-1.1-.31-1.5-1.96V4.96c.41-1.65.69-2.11,1.5-1.96v594Z"/>
    <path class="cls-20" d="M256.28,465.31c-1.33-.44-1.32-.99-.06-1.67-.57-88.74-.48-177.29.28-265.65-1.31-.43-1.29-.93,0-1.5.96.05,2.99,1.24,2.99,3.34l.04,264.93c0,1.89-1.31,1.96-2.09,1.8-.52-.1-.73-.61-1.15-1.25Z"/>
    <path class="cls-19" d="M280.5,171c.49,71.19.99,142.69,1.5,214.5.5,36.29,1,72.79,1.5,109.5,1.1.44,1.08.94,0,1.5-1.13.11-2.5-.2-2.74-1.02.48,1.61-1.01-67.42-1.03-73.43l-.87-249.29c-35.4-1.62-70.7,1.93-104.86-1.76h106.5Z"/>
    <path class="cls-21" d="M394.5,220.5c2.94-1.22,9.26-1.67,10.5,1.5,1.31.43,1.29.93,0,1.5-8.21-.92-16.38-2.51-25.49-1.2l-.12,210.68c0,2.32-5.41,2.13-5.9,2.12v-1.6c.34-1.33.85-1.29,1.5,0,.16-1.12.66-1.62,1.5-1.5,1.23-69.88,1.28-141.06,0-210-1.02-.32-.96-.83,0-1.5,5.22-1.3,12.64-1.23,18,0Z"/>
    <path class="cls-27" d="M114,196.5c1.31.43,1.29.93,0,1.5-.81,1.38-1.5,2.92-1.5,4.5,1.31.43,1.29.93,0,1.5-1.32,5.97-1.3,12.13-3,18,2.23.77,2.34,5.18,0,6l-1.5,7.5c2.3-.06,2.51,2.67.04,3-1.61,1.8.4,5.23-3.27,6.17l6.39-46.6c.25-1.82,2.01-1.51,2.85-1.58Z"/>
    <path class="cls-2" d="M244.5,145.5c-.98.12-2.01,0-3,0v-1.5c4.09,1.63,9.43-1.94,13.58.85-3.89,1.51-7.37.25-10.58.65Z"/>
    <path d="M357,145.5c-1,0-2.01.13-3,0-3.25-.42-6.51,1-10.63-.82,4.31-.8,10.19-2.11,13.63.82Z"/>
    <path class="cls-7" d="M168,136.5c0,1.19-.12,2.7-1.5,3-.84-3.32-.43-7.9,1.52-10.5l-.02,7.5Z"/>
    <path class="cls-7" d="M367.39,143.95c-.96-.07-1.94.18-2.89.05-2.24-.31-4.56.86-7.63-.77,3.25-1.11,8.04-1.83,10.53.72Z"/>
    <path d="M487.5,205.5h-1.5v-3c.22-1.53-.87-3.52,1.07-4.65.97,3.19.2,5.39.43,7.65Z"/>
    <g>
      <path class="cls-45" d="M483,199.5c.74,3.91,1.24,4.91,1.5,3h1.5c1.24.36,1.05,2.19,0,3,1.72.79,2.38,4.14,0,4.5-.6,1.27-1.6,3.58,0,3,2.49-1.1,2.49.78,1.41,3.03l.17,4.47c-1.11,4.74-1.93,11.58.29,3,1.34,1.77,1.22,3.87,1.17,6-.72,1.75-1.54,4.83.29,3,1.31,2.98,2.39,6.74.38,9.96-3.33-1.21-4.96-2.09-6.86-2.46-18.56-6-37.5-11-56.84-14.99-1.52-.3-2.52-.91-3-1.84-2.04-1.93-4.93-1.16-7.5-1.16-1.31-.43-1.29-.93,0-1.5.79-.39-.71-.89-4.5-1.5-21.45-.98-32.18-1.46-32.18-1.46l-2.32,1.46c-.43,1.31-.93,1.29-1.5,0-.51,71.52-1.01,143.02-1.5,214.5,1.31.46,1.29.99,0,1.6-8.2,9.9-17.58,18.92-26.85,27.86-1.84.6-2.65-.76-2.41-4.09-.41-86.72-.15-173.18.76-259.37,44.43-1.3,93.03-1.31,138,0Z"/>
      <path class="cls-20" d="M314.99,496.69v-1.69c.01-107.01.51-214.01,1.51-321,.3-1.84,1.39-2.67,3-1.5v320.68c0,3.48-3.45,2.53-4.51,3.52Z"/>
      <path d="M342,198c1.31,86.87,1.32,179.57,0,267,1.34.59-1.85,2.06-1.83,1.1,1.76-90.36-1.89-180.45,1.83-269.6,1.31.43,1.29.93,0,1.5Z"/>
      <path class="cls-46" d="M345,199.5l-.02,259.3c.25,2.25.75,3.29,1.67,4.16-.89.86-1.87,2.04-3.15,2.04-1.31-86.87-1.32-179.57,0-267,.44-.99.94-.97,1.5,0,1.31.43,1.29.93,0,1.5Z"/>
      <path class="cls-30" d="M343.5,465h-1.5V198c.44-.99.94-.97,1.5,0v267Z"/>
      <path class="cls-7" d="M216,219h6c1.31,69.61,1.31,144.35,0,214.5.2.65-.1,1.9-1.5,1.14v-212.49s-22.43-.25-22.43-.25c-1.04-.01-1.74-.72-1.56-1.39,2.28-.68,4.78-1.18,7.5-1.5,2.53-1.82,10.42-2.86,12,0Z"/>
      <path d="M484.5,196.5c-45.91,1.31-96.05,1.31-142.5,0,46.22-3.72,93.3-.06,140.78-1.84,1.09-.04,1.94,1.65,1.72,1.84Z"/>
      <path d="M256.5,196.5c-45.91,1.31-96.05,1.31-142.5,0,38.48-2.96,106.93-1.89,142.5,0Z"/>
      <path class="cls-6" d="M484.5,196.5v1.5c-.43,1.31-.93,1.29-1.5,0-44.43,1.3-93.03,1.31-138,0h-3v-1.5h142.5Z"/>
      <path class="cls-1" d="M482.84,239.99c-1.35,2.15-3.55,1.23-5.89.17-17.16-7.78-35.25-10.02-52.45-15.16.42-.66.93-.62,1.5,0,4.24-2.64,49.8,11.61,56.84,14.99Z"/>
      <path class="cls-22" d="M487.41,216.03c-.04-1.19-.79-2.11-1.41-3.03-1.17-.88-.79-1.86,0-3v-4.5c.43-1.31.93-1.29,1.5,0,2.17,2.85,2.92,8.15-.09,10.53Z"/>
      <path d="M186,222c3.25.42,6.51-1,10.63.82-4.31.8-10.19,2.11-13.63-.82,1,.06,2.01-.13,3,0Z"/>
      <path class="cls-22" d="M423,223.16c1.22.16,2.38.74,3,1.84-.32.2-1.11.05-1.5,0-3-.38-6.15.91-9.11-.76,2.93-1.59,5.42-.41,7.61-1.08Z"/>
      <path class="cls-14" d="M484.5,202.5c-.2,1.7.8,3.75-.79,6.08-1.56-2.93-.34-6.08-.71-9.08-1.31-.5-1.31-1,0-1.5h1.5c0,1.49.18,3.02,0,4.5Z"/>
      <path d="M415.5,222c-2.45,2.46-7.07,1.89-10.5,1.5v-1.5c.49-1.23.99-1.23,1.5,0,2.61-1.08,6.65-1.28,9,0Z"/>
      <path class="cls-12" d="M487.86,223.5l-.96,4.7c-1.55-2.19-1.84-6.45.67-7.7.03.88-.03,2.22.29,3Z"/>
      <path class="cls-17" d="M489.32,232.5c-.38,1.06.31,2.32-1.14,4.5-1.11-2.1-1.64-6.21.86-7.5-.02.84-.05,2.25.29,3Z"/>
      <path class="cls-16" d="M375,433.5c-.4.2-1.05-.12-1.5,0v-212.73c0-1.33.95-1.94,1.5-1.77,1.31,69.63,1.31,144.16,0,214.5Z"/>
      <path class="cls-25" d="M376.5,220.5c.03.5,0,1,0,1.5,1.4,68.87,1.18,140.72,0,210-.03.58-1.02,1.26-1.5,1.5v-214.5h1.5c1.36.36,1.33.86,0,1.5Z"/>
      <path class="cls-26" d="M483,198c.03.5-.06,1.01,0,1.5h-138v-1.5h138Z"/>
      <path class="cls-33" d="M411,219c.29,1.07-.27,1.52-1.5,1.5-.44.99-.94.97-1.5,0-4.15,0-9.26-.61-13.5-1.5-5.17,1.3-12.48,1.24-18,0-1.2-6.16,12.76-1.97,19.41-1.39,5.47.48,11.13-1.77,15.09,1.39Z"/>
      <path class="cls-24" d="M409.5,220.5c1.84-.97,4.54-1.33,6,0v1.5h-9c-.69-1.33-.12-1.79,1.5-1.5h1.5Z"/>
      <path class="cls-17" d="M415.5,220.5h-6c.45-.55.95-1.05,1.5-1.5,2.29.14,4.38-.32,7.59.25-.62,1.6-2.07,1.31-3.09,1.25Z"/>
      <path class="cls-28" d="M486,213c-.17,1.06.69,2.28-.84,4.49-1.09-2.1-1.61-6.11.84-7.49,0,.92-.22,2.14,0,3Z"/>
      <path class="cls-32" d="M376.5,432v-210c.18-.21,1.88.6,1.85,1.78-1.81,69.95,1.88,139.51-1.85,208.22Z"/>
      <path class="cls-45" d="M408,220.5c-.55.45-1.05.95-1.5,1.5-.45,0-1.08.15-1.5,0-3.43-1.2-6.91-1.5-10.5-1.5-1.31-.43-1.29-.93,0-1.5,4.57,0,9.74-1.34,13.5,1.5Z"/>
      <path class="cls-49" d="M394.5,219v1.5h-18c-.03-.48.09-1.03,0-1.5h18Z"/>
      <path class="cls-49" d="M109.5,229.5c.24,2.14.16,4.45-1.5,6,.2-2.49-1.09-6.08,1.5-7.5-.09.46-.05,1.03,0,1.5Z"/>
      <g>
        <path class="cls-45" d="M253.5,199.5c1.21,85.39,1.79,175.74,1.28,262.12-.01,2.35-15.18-9.57-16-12.65-.52.1-1.26-.18-1.77-.3-2.73-1.66-4.78-3.74-6.13-6.24-1.18-3.01-4.14-4.66-5.69-7.43-.65-71.99-1.21-143.99-1.68-216-.49,1.36-.99,1.36-1.5,0,.78,3.96-4.25,2.12-6,0-1.93-1.79-.28-2.57,4.93-2.33-10.66.84-21.31,1.62-31.93,2.33-4.34.75-5.34,1.25-3,1.5v1.5c-.79.68-1.79.68-3,0-1.5-.08-3,0-4.5,0-1.24-.62-5.26-1.66-3,0v1.5c-.51,1.01-2.22.92-3,0-2.02,1.65-5.24,2.97-7.5,1.5-1.38,2.08-5.28,2.61-7.47,1.49-15.09,2.67-29.43,8.27-43.76,13.68-6.09,2.62-4.73-7.5-1.81-10.31-.52-3.22-1.34-5.84-2.46-7.86-.05-5.6.27-13.29,3-18,1.08-.03.97-.58,0-1.5-1.65-1.2-.77-4.51,1.5-4.5.44-.99.94-.97,1.5,0,46.03.51,92.03,1.01,138,1.5Z"/>
        <g>
          <path class="cls-11" d="M256.22,463.65l.06,1.67c-4.15.84-5.11-4.58-9.01-6.1-4.73-1.84-9.06-5.51-8.49-10.25,4.97-.91,8.36,8.51,14.66,11.19l.06-260.66c.44-.99.94-.97,1.5,0,1.07,87.56,1.47,175.61,1.22,264.15Z"/>
          <path class="cls-26" d="M225.18,435c-.34-.6-1.41-.78-1.68-1.5-1.31-69.61-1.31-144.35,0-214.5.6-.16,1.47.11,1.47,1.71l.21,214.3Z"/>
          <path class="cls-8" d="M223.5,433.5h-1.5v-214.5c.48,0,1.03.12,1.5,0v214.5Z"/>
          <path class="cls-43" d="M111.96,229.86c-.99,3.65-2.07,8.34,1.81,10.31-1.77.67-3.17,2.11-5.45,2.52-.5-1.82-.26-3.01-.29-4.19.54-.61-.39-2.23-.04-3,.33-2.16.83-4.16,1.5-6,.41-3.97,1.86-3.59,2.46.36Z"/>
          <path d="M165,225c1.31.43,1.29.93,0,1.5-1.6,2.57-8.71,1.68-7.47-.01,2.52-.45,4.88-1.32,7.47-1.49Z"/>
          <path d="M172.5,223.5c1.31.43,1.29.93,0,1.5-2.31.94-4.69,2.36-7.5,1.5v-1.5c2.51-.17,4.89-1.5,7.5-1.5Z"/>
          <path class="cls-7" d="M175.5,223.5c2.2,0,4.72-.87,7.58.71-3.24,2.33-7.36-.42-10.58.79v-1.5h3Z"/>
          <path d="M237.01,448.67c-2.82-.7-7.64-2.91-6.13-6.24,2.71,1.3,4.85,3.54,6.13,6.24Z"/>
          <path class="cls-40" d="M256.5,196.5v1.5c-.43,1.31-.93,1.29-1.5,0-45.04,1.29-93.84,1.32-139.5,0h-1.5v-1.5h142.5Z"/>
          <path class="cls-48" d="M255,198c.99.44.97.94,0,1.5H117.19c-1.2,0-1.87-.95-1.69-1.5h139.5Z"/>
          <path class="cls-41" d="M216,219c-3.87,0-8.19-.84-12,0-4.55.44-9.05.94-13.5,1.5-.47-.13-1.01,0-1.5,0-1.31-.43-1.29-.93,0-1.5,3.01-2.95,7.66-.99,12.12-1.41,7.46-.71,14.24-3.09,20.99-.91-2.42,1.7-5.08.26-6.1,2.32Z"/>
          <path class="cls-31" d="M111.96,229.86l-2.46-.36c-.68-.43-.65-.94,0-1.5.39-1.89-.54-4.15,0-6,2.34-.65,3.23.94,3.14,2.32-.15,2.35-.24,3.93-.68,5.54Z"/>
          <path class="cls-39" d="M189,219v1.5h-3c-2.01,0-4.14.79-6.08-.99,3.55-1.16,6.32-.21,9.08-.51Z"/>
          <path class="cls-39" d="M112.5,204v-1.5c1.33-.29,2.8.03,2.9.93.2,1.73.47,3.27-.39,6.24l-2.51-5.67Z"/>
          <path class="cls-35" d="M113.13,220.47c-1.07-2.14-1.06-4.53-.06-7.58,1.57,1.61,1.39,3.65.06,7.58Z"/>
          <path class="cls-28" d="M178.5,222c-1,0-2.01.1-3,0-1.22-.12-2.61.67-4.61-.74,2.21-1.27,6.22-1.69,7.61.74Z"/>
          <polygon class="cls-15" points="256.22 463.65 255 199.5 255 198 256.5 198 256.22 463.65"/>
          <path class="cls-45" d="M204,219c-2.44.54-4.48,2.66-7.5,1.5-1.77-.68-4.16.49-6,0-.11-1.22,1.35-1.52,2.93-1.51h10.57Z"/>
        </g>
      </g>
      <g>
        <path d="M424.5,171c.14.64-.33,1.52-1.55,1.52l-103.45-.02-3,1.5c-1.24-.38-1.09-2.21,0-3,34.84-1.3,72.83-1.29,108,0Z"/>
        <path class="cls-37" d="M340.5,147c1.31.43,1.29.93,0,1.5h-12c-19.21,1.3-39.31,1.29-58.5,0-3.49,0-7.02.19-10.5,0-1.31-.43-1.29-.93,0-1.5h81Z"/>
        <path class="cls-49" d="M282,201c1.3,60.54,1.32,124.09,0,184.5-.55.17-1.5-.44-1.5-1.77v-212.73c.45,0,1.11.09,1.5,0,.8.22,1.42.44,1.43.7.44,8.66.45,19.65.03,28.31-.02.35-.65.68-1.46.99Z"/>
        <g>
          <path class="cls-45" d="M189,135c3.01,1.36,5.99,1.85,8.94,1.49,8.6,1.89,16.93,4.85,25.67,5.93,2.82-1.29,6.38.05,8.89,1.58,1.14-1.73,4.61-.83,3,1.5-2.48,1.4-1.98,1.4,1.5,0-.26-2.27,3.21-1.44,4.5,0,.67-1.16,1.8-.63,3,0v1.5c-2.79.29-1.79.79,3,1.5,33.09,3.26,69.92,3.17,103.5,0,5.01-.9,6.01-1.4,3-1.5v-1.5c.79-.67,1.79-.67,3,0h4.5c1.31.59,5.28,1.67,3,0v-1.5c.32-.9,1.28-.92,2.89-.05-3.76,2.12,19.12-2.05,12.42-2.64.92-.94,2.31-1.55,4.19-1.81l28.96-9,1.34,1.35,14.47-4.39c.02,4.58-.9,8.59-2.76,12.03.48,2.21.98,4.71,1.5,7.5,1.36.15,1.28.67,0,1.5,2.46,1.88,1.72,6.98-1.5,6-1.62-1.59-.62,1.33,0,3,2.52-.26,1.76,4.7,0,6h-1.5c-1.02.07-1.02,1.07,0,3v1.5c-35.78.5-71.78,1-108,1.5,1.31.43,1.29.93,0,1.5-.43,1.31-.93,1.29-1.5,0-.83,107.71-.83,215.71,0,324,2.67-.3,2.33.38,0,1.69l-16.6,15.51c-5.59-3.72-11.74-8.33-13.21-14.2-1.57-85.63-1.4-175.42-.18-261-1.08-21.29-1.6-42.95-1.57-64.96.21,2.64-.26,2.29-1.43-1.04-.48,1.34-.98,1.34-1.5,0-.53,3.32-1.58,4.12-2.25.87-34.77.24-69.52-.05-104.25-.87-2.06-1.02-2.33-4.04-1.5-6,2.19-1.75,2.19-2.25,0-1.5-1.5-2.18-3.62-9.52,0-9,.99-2.18.99-2.68,0-1.5-3.45,1.1-4.13-6.1-1.5-7.5-.02-3.06.37-5.63,1.16-7.73-4.05-.9-4.07-13.27,1.6-10.29,5.25,2.48,11.87,2.72,15.24,7.52Z"/>
          <g>
            <path class="cls-18" d="M430.5,150l-3.69,21.11c-1.67-2.89-.81-5.4-.81-7.61v-6c-.94-1.41-.94-2.41,0-3,1.64-1.56,1.75-3.86,1.5-6,1.68-3.27,2.43-1.55,3,1.5Z"/>
            <path class="cls-7" d="M381,139.5h3c-1.07.74-2.52,2.21-4.19,1.81-1.7.07-3.77.63-4.95-1.34,2.52-1.3,4.51.07,6.13-.47Z"/>
            <g>
              <path class="cls-3" d="M285.18,498c-.62-.43-1.18-.94-1.68-1.5v-1.5c-1.32-84.72-1.32-173.4,0-258,.43-1.31.93-1.29,1.5,0l.18,261Z"/>
              <path class="cls-9" d="M259.5,148.5c3.17-1.12,7.35-1.19,10.5,0,19.16,1.31,39.3,1.25,58.5,0,3.15-1.28,8.7-1.19,12,0,2.9-.4,5.9-.9,9-1.5h1.5c1.31.43,1.29.93,0,1.5-11.11,4.26-66.89,2.69-82.37,2.83-5.11.05-9.87-2.84-15.32-1.09-2.55.82-4.4-1.36-5.81-1.74-1.31-.43-1.29-.93,0-1.5h1.5c3.61.59,7.11,1.09,10.5,1.5Z"/>
              <path class="cls-46" d="M424.5,168v1.5c-34.84,1.3-72.83,1.29-108,0-.18-.55.51-1.5,1.66-1.5h106.34Z"/>
              <path class="cls-50" d="M424.5,169.5c0,.49-.11,1.02,0,1.5h-108v-1.5h108Z"/>
              <path class="cls-32" d="M419.94,128.92c.22,2.32-3.41,3.04-5.64,2.94-11.27,1.47-17.33,7.44-30.3,7.65-1.49.89-2.49.89-3,0l36.17-11.99c1.28-.42,3.29.52,2.77,1.41Z"/>
              <path class="cls-29" d="M169.5,138c2.43.8,2.36,5.02,1.5,7.5.43,2.47-1.27,6.13,1.5,7.5.69.42.65.92,0,1.5-2.46,2.66.77,5.94,0,9,1.23.37,1.2.87,0,1.5.34,2.04,1.3,3.93,1.5,6-1.25-.14-2.32.04-2.78-1.02,1.17,2.67-3.62-26.15-4.72-30.48.15-1.45.65-2.45,1.5-3,2.22-2.03,3.02-1.12,1.5,1.5Z"/>
              <path class="cls-13" d="M427.5,139.5c-.43,1.31-.93,1.29-1.5,0-.08-3.38,2.02-6.28,1.44-10.64-4.53.72-10.96,6.34-13.14,2.99,1.37-1.47,3.56-2.28,5.64-2.94l10.27-3.23c-1.84,4.69-.36,9.66-2.71,13.82Z"/>
              <path class="cls-42" d="M173.76,127.48c-4.29,1.79-2.37,6.58-1.6,10.29.15,4-1.21,3.92-2.66.23.01-.67-1.04-1.22-1.5-1.5-1.27-1.7-1.26-4.2.02-7.5.03-1.08-.14-2.22.25-3.77,2.37-.04,3.79,1.45,5.49,2.25Z"/>
              <path class="cls-2" d="M430.5,150l-3-1.5c-.06-.49,0-1.01,0-1.5-.91-1.81-1.51-4.47,0-6,.63-.02,1.68-.29,2.18.07,1.39.98.88,8.62.82,8.93Z"/>
              <path class="cls-10" d="M232.5,142.5c1.31.43,1.29.93,0,1.5-3.13.66-5.93-1.21-8.89-1.58,2.1-3.53,6.44-.76,8.89.08Z"/>
              <path class="cls-2" d="M241.5,144c1.31.43,1.29.93,0,1.5h-6c-.25-1.23-1.87-1.74-3-1.5v-1.5c3.49-.34,6.03.31,9,1.5Z"/>
              <path class="cls-47" d="M197.94,136.49c-1.51,2.85-7.28.87-8.94-1.49,3.25-.97,6.04.85,8.94,1.49Z"/>
              <path class="cls-45" d="M259.5,147v1.5c-3.49-.19-8.09,1.34-10.5-1.5h10.5Z"/>
              <path class="cls-45" d="M349.5,147c-1.91,2.67-6.02,1.5-9,1.5v-1.5h9Z"/>
              <path class="cls-4" d="M354,147c2.84.08,4.72-.59,6.08,1.03-3.44,1.57-6.57-.49-9.08.47v-1.5h3Z"/>
              <path class="cls-34" d="M244.5,147c.98-.15,2.01,0,3,0v1.5c-2.9-.77-6.22,1.19-9.07-.75,2.32-1.57,4.37-.49,6.07-.75Z"/>
              <path class="cls-39" d="M424.5,163.5c.11.99,0,2,0,3-2.41-1.34-2.02-5.41-.73-7.61,1.41,2.02.6,3.38.73,4.61Z"/>
              <path class="cls-34" d="M427.5,141v6c-2.5-1.42-1.44-5.01-1.5-7.5h1.5c-.21.36,0,1.07,0,1.5Z"/>
              <path class="cls-11" d="M315,495l-1.86-322.13c0-1.32,1.68-2.07,1.86-1.87.79,107.51.79,215.51,0,324Z"/>
              <path class="cls-15" d="M316.5,174c0,107.09-1,214.47-1.5,321V171h1.5v3Z"/>
              <path class="cls-46" d="M282.04,168.73l-106.58.03,106.58-.03Z"/>
              <path class="cls-36" d="M285,237h-1.5c-.52-11.86-1.02-23.86-1.5-36v-30c.53-.12,2.81-.28,2.86.4l.14,65.6Z"/>
              <path class="cls-35" d="M172.16,137.77c.51,2.44,1.32,6.36-1.16,7.73-.44-2.5-1.54-4.91-1.5-7.5l2.66-.23Z"/>
              <path class="cls-38" d="M172.5,165c-.08-.45-.11-1.06,0-1.5,1.83-1.14,1.18-3.3,1.81-6.16,2.17,1,.9,3.08,1.26,5.37.23,1.44-.79,2.88-3.07,2.28Z"/>
              <path class="cls-5" d="M426,154.5v3c-2.54-1.89-1.95-6.39-.75-9.12,1.57,2.56.46,4.39.75,6.12Z"/>
              <path class="cls-31" d="M364.5,145.5c1.09.23,2.3-1.09,4.64.66-2.16,1.44-6.24,1.75-7.64-.66.98,0,2.04-.2,3,0Z"/>
              <path class="cls-14" d="M172.5,154.5c.18-.34-.07-1.08,0-1.5.28-1.74-.73-3.52.67-6.13,1.42,2.22,1.71,6.29-.67,7.63Z"/>
              <path class="cls-44" d="M235.5,145.5c.49-.07,1,0,1.5,0-1.34,2.39-5.42,2.09-7.63.67,2.62-1.39,4.39-.42,6.13-.67Z"/>
              <path class="cls-45" d="M283.5,237v258c-.55.18-1.5-.51-1.5-1.66v-107.84s0-184.5,0-184.5c.58-.18,1.47.54,1.47,1.57l.03,34.43Z"/>
              <path class="cls-45" d="M328.5,148.5c.12,1.16-1.38,1.54-2.95,1.54h-52.6c-1.58,0-3.06-.37-2.95-1.54h58.5Z"/>
            </g>
          </g>
        </g>
      </g>
    </g>
  </g>
</svg>