<?xml version="1.0" encoding="UTF-8"?>
<svg id="Capa_1" data-name="Capa 1" xmlns="http://www.w3.org/2000/svg" xmlns:xlink="http://www.w3.org/1999/xlink" viewBox="0 0 600 600">
  <defs>
    <style>
      .cls-1 {
        fill: url(#linear-gradient);
      }
    </style>
    <linearGradient id="linear-gradient" x1="512.2" y1="-1465.8" x2="87.81" y2="-1890.19" gradientTransform="translate(0 -1378) scale(1 -1)" gradientUnits="userSpaceOnUse">
      <stop offset="0" stop-color="#3ef8f3"/>
      <stop offset="1" stop-color="#07aefe"/>
    </linearGradient>
  </defs>
  <ellipse cx="300" cy="300" rx="289.83" ry="289.69"/>
  <path class="cls-1" d="M576.6,183.24c-15.12-35.72-36.77-67.81-64.32-95.36-5.26-5.26-10.68-10.3-16.27-15.12-.62-.52-1.25-1.06-1.87-1.59-23.21-19.72-49.12-35.66-77.29-47.57C379.84,7.93,340.52,0,300,0s-79.82,7.93-116.83,23.58c-35.74,15.12-67.85,36.73-95.4,64.28-27.57,27.55-49.2,59.64-64.32,95.36C7.78,220.23-.15,259.51-.15,300.01s7.93,79.78,23.6,116.77c15.12,35.72,36.77,67.81,64.32,95.36,4.46,4.46,9.06,8.78,13.76,12.91.88.78,1.79,1.57,2.67,2.33,23.64,20.38,50.12,36.85,78.98,49.04,37.01,15.64,76.33,23.58,116.83,23.58s79.82-7.93,116.83-23.58c35.74-15.1,67.85-36.73,95.4-64.28,27.57-27.55,49.2-59.64,64.32-95.36,15.64-36.99,23.6-76.29,23.6-116.77.02-40.5-7.91-79.78-23.56-116.77ZM300,583.85c-67.75,0-130.04-23.84-178.9-63.56l297.5-125.2-101.87-103.38-.04.04-.2-.2-203.92,221.51c-59.16-52.07-96.55-128.28-96.55-213.06C16.01,143.5,143.41,16.17,300,16.17c66.93,0,128.52,23.27,177.11,62.11l-262.56,110.06,101.93,103.2.04-.04.2.2,168.9-206.33c60.22,52.09,98.38,129,98.38,214.65,0,156.51-127.39,283.84-284.01,283.84ZM152.97,490.92l163.94-178.08,75.99,77.11-239.93,100.97ZM450.09,105.59l-134.42,164.2-75.34-76.27,209.77-87.93Z"/>
</svg>