<?xml version="1.0" encoding="UTF-8"?>
<svg id="Capa_1" data-name="Capa 1" xmlns="http://www.w3.org/2000/svg" xmlns:xlink="http://www.w3.org/1999/xlink" viewBox="0 0 600 600">
  <defs>
    <style>
      .cls-1 {
        fill: #111;
      }

      .cls-2 {
        fill: url(#linear-gradient-2);
      }

      .cls-3 {
        fill: #fff;
      }

      .cls-4 {
        fill: url(#linear-gradient);
      }
    </style>
    <linearGradient id="linear-gradient" x1="238.94" y1="187.35" x2="392.08" y2="187.35" gradientUnits="userSpaceOnUse">
      <stop offset="0" stop-color="#12dedb"/>
      <stop offset=".87" stop-color="#2cf8a7"/>
    </linearGradient>
    <linearGradient id="linear-gradient-2" x1="221.19" y1="316.36" x2="393.63" y2="316.36" gradientUnits="userSpaceOnUse">
      <stop offset="0" stop-color="#12dedb"/>
      <stop offset=".81" stop-color="#2cf8a7"/>
    </linearGradient>
  </defs>
  <rect class="cls-1" x="0" width="600" height="600"/>
  <g>
    <path class="cls-3" d="M142.8,423.88h-11.32v-6.67h30.84v6.67h-11.32v28.71h-8.19v-28.71Z"/>
    <path class="cls-3" d="M199.12,417.21v35.39h-8.19v-14.51h-16.08v14.51h-8.19v-35.39h8.19v13.95h16.08v-13.95h8.19Z"/>
    <path class="cls-3" d="M205.24,434.9c0-10.51,8.19-18.3,19.36-18.3s19.36,7.73,19.36,18.3-8.24,18.3-19.36,18.3-19.36-7.79-19.36-18.3ZM235.67,434.9c0-6.72-4.75-11.32-11.07-11.32s-11.07,4.6-11.07,11.32,4.75,11.32,11.07,11.32,11.07-4.6,11.07-11.32Z"/>
    <path class="cls-3" d="M272.63,452.59l-6.83-9.86h-7.53v9.86h-8.19v-35.39h15.32c9.45,0,15.37,4.9,15.37,12.84,0,5.31-2.68,9.2-7.28,11.17l7.94,11.37h-8.8ZM264.94,423.88h-6.67v12.33h6.67c5,0,7.53-2.33,7.53-6.17s-2.53-6.17-7.53-6.17Z"/>
    <path class="cls-3" d="M340.67,417.21l-11.58,35.39h-8.8l-7.79-23.96-8.04,23.96h-8.75l-11.63-35.39h8.49l7.99,24.87,8.34-24.87h7.58l8.09,25.07,8.24-25.07h7.84Z"/>
    <path class="cls-3" d="M366.66,437.07v15.52h-7.38v-3.39c-1.47,2.48-4.3,3.79-8.29,3.79-6.37,0-10.16-3.54-10.16-8.24s3.39-8.14,11.68-8.14h6.27c0-3.39-2.02-5.36-6.27-5.36-2.88,0-5.86.96-7.83,2.53l-2.83-5.51c2.98-2.12,7.38-3.29,11.73-3.29,8.29,0,13.09,3.84,13.09,12.08ZM358.78,444v-2.78h-5.41c-3.69,0-4.85,1.36-4.85,3.18,0,1.97,1.67,3.29,4.45,3.29,2.63,0,4.9-1.21,5.81-3.69Z"/>
    <path class="cls-3" d="M373.74,415.08h7.89v37.51h-7.89v-37.51Z"/>
    <path class="cls-3" d="M388.91,415.08h7.89v37.51h-7.89v-37.51Z"/>
    <path class="cls-3" d="M430.57,441.22h-20.58c.76,3.39,3.64,5.46,7.79,5.46,2.88,0,4.95-.86,6.82-2.63l4.2,4.55c-2.53,2.88-6.32,4.4-11.22,4.4-9.4,0-15.52-5.91-15.52-14s6.22-14,14.51-14,14.16,5.36,14.16,14.1c0,.61-.1,1.47-.15,2.12ZM409.89,436.62h13.4c-.56-3.44-3.13-5.66-6.67-5.66s-6.17,2.17-6.72,5.66Z"/>
    <path class="cls-3" d="M453.47,451.28c-1.62,1.16-3.99,1.72-6.42,1.72-6.42,0-10.16-3.29-10.16-9.76v-11.17h-4.2v-6.07h4.2v-6.62h7.89v6.62h6.77v6.07h-6.77v11.07c0,2.33,1.26,3.59,3.39,3.59,1.16,0,2.33-.35,3.18-1.01l2.12,5.56Z"/>
  </g>
  <g>
    <path class="cls-4" d="M302.55,248.72c-.37.43-1.01.47-1.43.09l-59.74-53.9c-3.94-3.46-2.93-9.85,1.88-11.93l129.6-56.14c13.4-5.8,25.36,10.59,15.75,21.58l-86.06,100.29Z"/>
    <path class="cls-2" d="M302.7,250.65l59.16,48.45c6.41,5.25,4.98,15.42-2.62,18.71l-146.68,63.34c-13.6,5.87-25.45-11.16-15.22-21.87l103.69-108.53c.45-.47,1.17-.51,1.67-.1Z"/>
  </g>
</svg>