<?xml version="1.0" encoding="UTF-8"?>
<svg id="Capa_1" data-name="Capa 1" xmlns="http://www.w3.org/2000/svg" xmlns:xlink="http://www.w3.org/1999/xlink" viewBox="0 0 600 600">
  <defs>
    <style>
      .cls-1 {
        fill: #0500ff;
      }

      .cls-2 {
        fill: url(#linear-gradient);
      }
    </style>
    <linearGradient id="linear-gradient" x1="457.01" y1="-1305.43" x2="294.65" y2="-796.86" gradientTransform="translate(0 1390)" gradientUnits="userSpaceOnUse">
      <stop offset=".02" stop-color="blue"/>
      <stop offset=".08" stop-color="#0094ff"/>
      <stop offset=".16" stop-color="#48ff91"/>
      <stop offset=".42" stop-color="#0094ff"/>
      <stop offset=".68" stop-color="#0038ff"/>
      <stop offset=".9" stop-color="#0500ff"/>
    </linearGradient>
  </defs>
  <path class="cls-1" d="M86.81,187.76l213.19-69.6v481.84c-152.28-64.25-213.19-187.39-213.19-256.98v-155.26Z"/>
  <path class="cls-2" d="M513.19,187.76l-213.19-69.6v481.84c152.28-64.25,213.19-187.39,213.19-256.98v-155.26Z"/>
  <path class="cls-1" d="M170.76,2.39h29.75v16.66c9.75-14.98,20.97-16.66,37.39-16.66v29.46h-7.48c-19.68,0-29.1,9.26-29.1,27.6v31.31h-30.57V2.39h0Z"/>
  <path class="cls-1" d="M337.17,90.74h-30.57v-8.42c-6.67,7.75-15.77,11.11-26.98,11.11-21.29,0-33.33-12.62-33.33-35.85V2.38h30.57v48.31c0,10.94,5.36,17.33,14.46,17.33s15.29-6.23,15.29-16.83V2.38h30.57v88.36Z"/>
  <path class="cls-1" d="M344.64,63.47h28.62c1.31,6.39,5.69,9.08,16.25,9.08,8.62,0,13.66-2.01,13.66-5.72,0-2.87-2.45-4.72-9.42-6.23l-23.09-5.22c-15.44-3.52-23.25-12.45-23.25-26.76,0-18.86,13.81-28.62,40.63-28.62s39.99,9.51,42.27,29.88h-28.45c-.48-5.38-6.02-8.67-15.11-8.67-7.31,0-12.02,2.35-12.02,5.89,0,3.02,3.08,5.38,9.27,6.91l24.22,5.89c15.92,3.86,23.58,11.95,23.58,25.08,0,18.19-15.77,28.96-42.58,28.96s-44.54-11.61-44.54-30.47h-.04Z"/>
  <path class="cls-1" d="M513.19,29.87V2.39h-75.43v27.49h22.51v60.86h30.4V29.86h22.52Z"/>
  <path class="cls-1" d="M162.25,29.87V2.39h-75.43v27.49h22.51v60.86h30.4V29.86h22.52Z"/>
</svg>