<?xml version="1.0" encoding="UTF-8"?>
<svg id="Capa_1" data-name="Capa 1" xmlns="http://www.w3.org/2000/svg" xmlns:xlink="http://www.w3.org/1999/xlink" viewBox="0 0 600 600">
  <defs>
    <style>
      .cls-1 {
        fill: url(#linear-gradient-2);
      }

      .cls-2 {
        fill: url(#linear-gradient-4);
      }

      .cls-3 {
        fill: url(#linear-gradient-3);
      }

      .cls-4 {
        fill: url(#linear-gradient-5);
      }

      .cls-5 {
        fill: url(#linear-gradient-7);
      }

      .cls-6 {
        fill: url(#linear-gradient-6);
      }

      .cls-7 {
        fill: url(#linear-gradient);
      }
    </style>
    <linearGradient id="linear-gradient" x1="238.8" y1="-3093.35" x2="467.82" y2="-2870.05" gradientTransform="translate(0 -2698) scale(1 -1)" gradientUnits="userSpaceOnUse">
      <stop offset="0" stop-color="#0121cd"/>
      <stop offset="1" stop-color="#cf00f8"/>
    </linearGradient>
    <linearGradient id="linear-gradient-2" x1="57.24" y1="-3108.75" x2="346.66" y2="-2780.87" xlink:href="#linear-gradient"/>
    <linearGradient id="linear-gradient-3" x1="409.2" y1="-3233.43" x2="631.28" y2="-3016.89" xlink:href="#linear-gradient"/>
    <linearGradient id="linear-gradient-4" x1="134.24" y1="2508.72" x2="178.96" y2="2553.98" gradientTransform="translate(0 -2166.45)" gradientUnits="userSpaceOnUse">
      <stop offset="0" stop-color="#020892"/>
      <stop offset="1" stop-color="#0121cd" stop-opacity="0"/>
    </linearGradient>
    <linearGradient id="linear-gradient-5" x1="104.84" y1="2476.87" x2="68.38" y2="2444.84" xlink:href="#linear-gradient-4"/>
    <linearGradient id="linear-gradient-6" x1="489.94" y1="-3042.13" x2="523.68" y2="-3081.27" gradientTransform="translate(0 -2698) scale(1 -1)" gradientUnits="userSpaceOnUse">
      <stop offset="0" stop-color="#59006b"/>
      <stop offset="1" stop-color="#850be8" stop-opacity="0"/>
    </linearGradient>
    <linearGradient id="linear-gradient-7" x1="466.36" y1="-3013.32" x2="433.08" y2="-2973.98" xlink:href="#linear-gradient-6"/>
  </defs>
  <path class="cls-7" d="M568.73,129.37l-50.33-50.13c-9.92-10.13-23.48-15.86-37.65-15.91h-103.69c-20.57,0-37.25,16.68-37.25,37.25v85.77c0,14.99,5.35,29.49,15.1,40.87l85.17,100.87-140.13,140.33-140.13-140.33-2.42,2.82-31.41,37.25-2.82,3.42,150.8,151c6.81,6.75,15.98,10.58,25.57,10.67h.6c9.6-.05,18.78-3.89,25.57-10.67l154.22-154.02,34.63-34.63,54.56-54.36c41.31-41.61,41.13-108.81-.4-150.2ZM528.67,239.7l-48.32,48.32-82.35-97.45c-.97-1.19-1.48-2.69-1.41-4.23v-66.44h82.55l49.73,49.73c19.29,19.23,19.34,50.47.11,69.76-.1.1-.2.2-.31.31Z"/>
  <path class="cls-1" d="M222.84,63.33h-103.29c-14.27-.07-27.98,5.59-38.05,15.7l-50.54,50.54c-41.36,41.55-41.27,108.75.2,150.2l51.74,51.54-29.19,34.43c-36.92,44.07-31.12,109.72,12.95,146.64,18.61,15.59,42.1,24.19,66.38,24.3h87.78v-56.58h-87.98c-11.15-.03-21.93-4.02-30.4-11.27-9.6-8.01-15.55-19.55-16.51-32.01-.99-12.49,2.99-24.86,11.07-34.43l26.17-30.8,2.82-3.42,31.41-37.25,2.42-2.82,85.37-100.87h0c9.63-11.46,14.97-25.91,15.1-40.87v-85.77c-.22-20.56-16.89-37.14-37.45-37.25ZM203.51,186.35c0,1.56-.58,3.06-1.61,4.23h0l-82.35,97.45-48.52-48.32c-18.95-19.59-18.95-50.68,0-70.27l49.73-49.53h82.75v66.44Z"/>
  <path class="cls-3" d="M534.1,512.11c-18.79,15.91-42.63,24.62-67.25,24.56h-87.78v-56.58h87.98c12.46.05,24.42-4.88,33.22-13.69,8.94-8.73,13.96-20.72,13.89-33.22.18-8.35-1.98-16.58-6.24-23.76-1.42-2.47-3.04-4.83-4.83-7.05l-26.17-30.8,40.27-40.27,28.99,34.43,1.41,1.81h.2l2.62,3.62c32.58,43.93,25.45,105.61-16.31,140.94Z"/>
  <polygon class="cls-2" points="159.82 328.09 123.18 371.58 158.21 406.61 196.46 364.73 159.82 328.09"/>
  <polygon class="cls-4" points="119.55 288.02 82.91 331.31 41.03 289.43 81.5 249.77 119.55 288.02"/>
  <path class="cls-6" d="M550.61,371.17h-.2l-42.28,38.25h-.2c-1.42-2.47-3.04-4.83-4.83-7.05l-26.17-30.8,40.27-40.27,30.4,36.24h.2l2.82,3.62Z"/>
  <polygon class="cls-5" points="480.35 288.02 440.08 328.09 404.85 286.41 445.52 246.95 480.35 288.02"/>
</svg>