<?xml version="1.0" encoding="UTF-8"?>
<svg id="Capa_1" data-name="Capa 1" xmlns="http://www.w3.org/2000/svg" viewBox="0 0 600 600">
  <path d="M268.4,246.31l8.08-7.5,7.93-7.37,8.5-7.92,7.93-7.37,7.92-7.36c2.5-2.33,4.64-4.64,7.54-7.16l-12.55-16.8-41.89-56.04-40.69-54.48-39.31-52.87,206.69,118.21,13.4,50.04-96.22,52.99,36.63,78.07-101.73-48c.7-2.2,2.86-3.25,4.5-4.65,2.68-2.3,4.98-4.81,7.55-7.19l7.93-7.36,7.78-7.24ZM340.66,179.19l7.78-7.23,7.93-7.36,7.93-7.36,7.36-6.82c2.75-2.55,5.39-5.14,7.99-7.8L206.94,43.81l36.57,48.96,40.21,53.82,37.74,50.42c1.29-1.59,2.62-2.32,3.83-3.46l7.28-6.86,8.08-7.49ZM312.59,214.59l-7.78,7.23-7.93,7.36-7.93,7.37-7.92,7.36c-.58.54-11.62,10.35-9.84,9.82l122.78-67.62-10.15-37.73-8.19,7.72-7.93,7.36-7.93,7.36-7.93,7.36-7.37,6.81-7.93,7.36-7.93,7.36-7.93,7.37-8.08,7.5ZM327.73,305.97l-27.96-59.96-45.78,25.26,73.75,34.7Z"/>
  <g>
    <g>
      <polygon points="0 574.2 0 563.44 76.01 450.15 6.16 450.12 15.91 417.82 124.38 417.86 48.16 538.48 121.02 538.52 107.95 574.22 0 574.2"/>
      <path d="M189.52,535.29l-9.89-.63c-6.08-.39-10.4-.67-16.65-.75l-15.74,41.02-25.82,2.76,60.37-158.62,31.78-4.82,55.44,160.5-36.37,3.43-15.98-41.5c-2.82.66-5.12-.32-7.59-.33-3.51-.02-6.74-.35-10.19-.54l-9.37-.52ZM206.54,510.64l-18.15-46.37-15.5,46.49,33.66-.13Z"/>
    </g>
    <g>
      <path d="M394,516.94c.97,13.62-4.14,25.16-11.46,36.36l-51.67,24.27c-21.16.88-46.44-5.68-59.93-24.06l30.89-26.17c1.62,1.9,2.84,3.32,3.99,5.1l8.81,8.73c5.09,5.04,11.48,7.86,18.06,10.95l28.14-.03c2.97-4.66,3.5-9.89,3.59-15.27.19-11.98-8.21-16.11-18.34-19.19-18.26-5.55-33.32-5.01-51.88-15.44-13.32-7.49-20.75-20.83-19.37-36.35.94-10.52,6-20.33,13.1-27.7l49.83-23.59c11.36-.98,25.58,2.32,36.11,6.81,8.42,3.59,17.22,9.93,22.97,17.51l-31.05,26.28c-9.17-12.36-17.66-18.2-31.56-24.68l-26.42.04c-2.97,4.11-3.65,8.72-3.68,13.57s1.42,8.79,5.45,11.86c21.32,16.26,81.07,3.64,84.43,51Z"/>
      <g>
        <path d="M504.25,577.46v-71.23c-4.59-.04-8.8-.2-13.34-.28l-31.69-.58c-4.15-.08-8-.36-12.21-.23v69.42c-2.46,1.31-4.92.4-7.35.87s-4.87.42-7.38.61l-7.38.57-6.85.53c-3.18.25-6.27.99-9.58.33v-158.93s38.53-4.28,38.53-4.28l-.02,68.21,29.13-.34,28.11-.32v-67.6s37.97,4.76,37.97,4.76l-.02,155.61c-1.99,1.39-4.15.4-6.26.77-2.7.48-5.22.48-7.91.69l-7.37.56c-5.31.4-10.65,1.21-16.42.86Z"/>
        <path d="M583.24,576.64l-7.61-.62c-2.71-.22-5.24,0-7.96-.63-2.22-.51-4.61.65-6.76-.79l-.02-156.11,38.52-4.3.03,163.27c-4.7.37-10.63-.36-16.2-.81Z"/>
      </g>
    </g>
  </g>
</svg>