<?xml version="1.0" encoding="UTF-8"?>
<svg id="Capa_1" data-name="Capa 1" xmlns="http://www.w3.org/2000/svg" viewBox="0 0 600 600">
  <defs>
    <style>
      .cls-1 {
        fill: #8bff95;
      }
    </style>
  </defs>
  <path class="cls-1" d="M0,64.26C0,28.63,28.93,0,64.26,0h471.47C571.37,0,600,28.93,600,64.26v11.27c-.3,139.19-81.62,259.19-199.19,315.53-4.87,2.44-10.96.3-13.4-4.57l-13.4-26.8c-3.65-7.01-13.4-7.92-18.27-1.52l-96.55,128.53c-5.18,7.01-.3,17.06,8.53,17.06h160.81c7.92,0,13.1-8.22,9.44-15.53l-12.79-25.89c-2.74-5.18-.3-11.57,4.87-14.01,59.09-28.63,110.25-70.66,149.54-122.44,6.09-8.22,20.1-3.96,20.1,6.4v203.45c0,35.63-28.93,64.26-64.26,64.26H64.26C28.63,600,0,571.07,0,535.74v-10.66C0,385.89,81.32,265.58,199.19,209.24c4.87-2.44,10.96-.3,13.4,4.57l13.4,26.8c3.65,7.01,13.4,7.92,18.27,1.52l96.55-128.53c5.18-7.01.3-17.06-8.53-17.06h-160.81c-7.92,0-13.1,8.22-9.44,15.53l12.79,25.89c2.74,5.18.3,11.57-4.87,14.01-59.09,28.63-110.25,70.66-149.85,122.44-6.09,8.22-20.1,3.96-20.1-6.4V64.26h0Z"/>
</svg>